<?xml version="1.0" encoding="UTF-8"?>
<svg xmlns="http://www.w3.org/2000/svg" viewBox="0 0 3840 2160">
  <defs>
    <style>
      .cls-1 {
        fill: #26b56e;
      }

      .cls-1, .cls-2, .cls-3 {
        stroke-width: 0px;
      }

      .cls-2 {
        fill: #c3e7f1;
      }

      .cls-3 {
        fill: #e63b7a;
      }
    </style>
  </defs>
  <g id="Community_Background" data-name="Community Background">
    <path class="cls-2" d="m4941.06,1079.29c0,519.24-416.66,940.16-930.63,940.16-125.91,0-245.97-25.26-355.51-71.03-214.09-89.47-454.7-89.47-668.79,0-109.53,45.77-229.59,71.03-355.49,71.03s-251.83-26.51-363.5-74.42c-217.6-93.36-463.45-93.52-680.91.17-112.01,48.26-235.3,74.97-364.77,74.97s-247.1-25.5-357.04-71.68c-214.9-90.27-456.57-90.11-671.61-.17-109.6,45.84-229.76,71.14-355.76,71.14-513.98,0-930.64-420.92-930.64-940.16S-676.94,139.13-162.96,139.13c126.5,0,247.1,25.5,357.05,71.68,214.91,90.28,456.58,90.11,671.63.16,109.59-45.84,229.74-71.14,355.74-71.14s251.83,26.51,363.5,74.42c217.6,93.36,463.45,93.52,680.91-.17,112.01-48.26,235.3-74.97,364.77-74.97s245.96,25.26,355.49,71.03c214.09,89.47,454.7,89.47,668.79,0,109.53-45.78,229.6-71.03,355.51-71.03,513.97,0,930.63,420.93,930.63,940.16Z"/>
  </g>
  <g id="Bones">
    <g>
      <path class="cls-1" d="m2433.88,466.33c12.54,24.95-7.41,43.38-26.85,36.95-19.44-6.43-24.13-34.17-24.13-34.17l-83.31-27.55s-20.3,19.47-39.73,13.04c-19.44-6.43-24.48-33.12.46-45.67-12.54-24.94,7.41-43.38,26.86-36.95,19.43,6.43,24.12,34.17,24.12,34.17l83.31,27.55s20.3-19.48,39.75-13.05c19.43,6.43,24.47,33.13-.47,45.67Z"/>
      <path class="cls-1" d="m3749.22,725.3c11.59,25.4-9.05,43.07-28.22,35.91-19.19-7.16-22.83-35.05-22.83-35.05l-82.21-30.68s-21.02,18.69-40.2,11.53c-19.19-7.16-23.21-34.02,2.19-45.62-11.59-25.4,9.05-43.06,28.23-35.91,19.18,7.16,22.81,35.06,22.81,35.06l82.21,30.68s21.02-18.7,40.21-11.54c19.18,7.16,23.2,34.03-2.2,45.62Z"/>
      <path class="cls-1" d="m3448.97,221.23c26.5,8.82,25.37,35.95,7.07,45.12s-41.21-7.16-41.21-7.16l-78.46,39.3s-.63,28.12-18.93,37.29c-18.31,9.17-40.72-6.18-31.92-32.68-26.49-8.81-25.37-35.95-7.06-45.13,18.3-9.17,41.21,7.17,41.21,7.17l78.46-39.3s.63-28.13,18.94-37.3c18.3-9.17,40.71,6.19,31.91,32.68Z"/>
      <path class="cls-1" d="m1592.93,277.05c25.34,11.74,21.17,38.58,1.95,45.63-19.23,7.06-40.15-11.75-40.15-11.75l-82.38,30.23s-3.79,27.87-23.01,34.92c-19.23,7.06-39.77-10.72-28.04-36.06-25.33-11.73-21.17-38.58-1.94-45.64,19.22-7.05,40.14,11.76,40.14,11.76l82.38-30.23s3.79-27.88,23.01-34.94,39.76,10.73,28.03,36.06Z"/>
      <path class="cls-1" d="m945.79,258.18c12.5,24.97-7.48,43.36-26.91,36.91-19.43-6.46-24.08-34.2-24.08-34.2l-83.27-27.68s-20.33,19.44-39.76,12.98-24.43-33.16.54-45.67c-12.5-24.96,7.48-43.36,26.92-36.9s24.07,34.21,24.07,34.21l83.27,27.68s20.33-19.45,39.77-12.99c19.42,6.46,24.41,33.17-.55,45.67Z"/>
      <path class="cls-1" d="m252.03,473.19c27.92.07,35.36,26.2,20.85,40.64s-41.38,6.11-41.38,6.11l-62.2,61.9s8.21,26.9-6.3,41.34-40.6,6.89-40.54-21.04c-27.92-.07-35.36-26.2-20.84-40.65,14.51-14.44,41.38-6.09,41.38-6.09l62.2-61.9s-8.22-26.91,6.3-41.36,40.6-6.87,40.54,21.04Z"/>
    </g>
    <g>
      <path class="cls-1" d="m1450.18,1722.7c-12.54-24.95,7.41-43.38,26.85-36.95,19.44,6.43,24.13,34.17,24.13,34.17l83.31,27.55s20.3-19.47,39.73-13.04c19.44,6.43,24.48,33.12-.46,45.67,12.54,24.94-7.41,43.38-26.86,36.95-19.43-6.43-24.12-34.17-24.12-34.17l-83.31-27.55s-20.3,19.48-39.75,13.05c-19.43-6.43-24.47-33.13.47-45.67Z"/>
      <path class="cls-1" d="m134.84,1463.73c-11.59-25.4,9.05-43.07,28.22-35.91,19.19,7.16,22.83,35.05,22.83,35.05l82.21,30.68s21.02-18.69,40.2-11.53c19.19,7.16,23.21,34.02-2.19,45.62,11.59,25.4-9.05,43.06-28.23,35.91-19.18-7.16-22.81-35.06-22.81-35.06l-82.21-30.68s-21.02,18.7-40.21,11.54c-19.18-7.16-23.2-34.03,2.2-45.62Z"/>
      <path class="cls-1" d="m435.09,1967.8c-26.5-8.82-25.37-35.95-7.07-45.12,18.31-9.17,41.21,7.16,41.21,7.16l78.46-39.3s.63-28.12,18.93-37.29,40.72,6.18,31.92,32.68c26.49,8.81,25.37,35.95,7.06,45.13-18.3,9.17-41.21-7.17-41.21-7.17l-78.46,39.3s-.63,28.13-18.94,37.3c-18.3,9.17-40.71-6.19-31.91-32.68Z"/>
      <path class="cls-1" d="m2291.13,1911.98c-25.34-11.74-21.17-38.58-1.95-45.63,19.23-7.06,40.15,11.75,40.15,11.75l82.38-30.23s3.79-27.87,23.01-34.92c19.23-7.06,39.77,10.72,28.04,36.06,25.33,11.73,21.17,38.58,1.94,45.64-19.22,7.05-40.14-11.76-40.14-11.76l-82.38,30.23s-3.79,27.88-23.01,34.94c-19.22,7.05-39.76-10.73-28.03-36.06Z"/>
      <path class="cls-1" d="m2938.27,1930.85c-12.5-24.97,7.48-43.36,26.91-36.91,19.43,6.46,24.08,34.2,24.08,34.2l83.27,27.68s20.33-19.44,39.76-12.98,24.43,33.16-.54,45.67c12.5,24.96-7.48,43.36-26.92,36.9-19.42-6.46-24.07-34.21-24.07-34.21l-83.27-27.68s-20.33,19.45-39.77,12.99-24.41-33.17.55-45.67Z"/>
      <path class="cls-1" d="m3590.4,1699.4c27.73-3.24,32.15-30.04,16.1-42.74-16.06-12.71-41.81-1.37-41.81-1.37l-68.82-54.44s5.1-27.66-10.95-40.36c-16.06-12.71-41.12-2.24-37.89,25.5-27.73,3.24-32.15,30.04-16.09,42.75,16.05,12.7,41.8,1.36,41.8,1.36l68.82,54.44s-5.11,27.67,10.95,40.38,41.12,2.22,37.89-25.51Z"/>
    </g>
  </g>
  <g id="Community_Paws" data-name="Community Paws">
    <g>
      <g>
        <path class="cls-3" d="m94.54,212.38c-1.61-15.68,4.89-14.69,3.79-25.43-1.1-10.74-7.26-8.43-8.87-24.12-1.61-15.7,18.05-19.39,28.15-10.41,8.18,7.28,13.03,13.13,24.04,12,3.15-.32,6.06.85,8.62,2.7,9.25,6.68,10.64,20.28,2.95,28.69-2.13,2.33-4.74,4.07-7.89,4.39-11.01,1.13-14.57,7.85-21.1,16.63-8.06,10.85-28.06,11.24-29.68-4.46Z"/>
        <path class="cls-3" d="m186.43,173.45c-12.03,2.96-23.08.08-25.88-11.31-2.73-11.1,5.65-19.07,17.68-22.03,12.03-2.96,22.27,2.44,24.54,11.64,2.26,9.21-4.31,18.74-16.33,21.7Z"/>
        <path class="cls-3" d="m146.57,151.21c-8.76,4.22-17.71,3.8-21.71-4.5-3.89-8.08,1.25-15.56,10.01-19.78,8.76-4.22,17.5-1.73,20.73,4.97,3.23,6.7-.27,15.09-9.03,19.31Z"/>
        <path class="cls-3" d="m188.71,180.85c-12.38-.45-22.61,4.61-23.04,16.34-.42,11.42,9.41,17.52,21.79,17.98,12.38.45,21.31-6.91,21.66-16.39.35-9.47-8.02-17.47-20.4-17.93Z"/>
        <path class="cls-3" d="m155.14,210.63c-9.43-2.35-18.11-.12-20.34,8.82-2.17,8.7,4.39,14.98,13.82,17.33,9.43,2.35,17.49-1.86,19.29-9.08,1.8-7.22-3.33-14.72-12.77-17.07Z"/>
      </g>
      <g>
        <path class="cls-3" d="m44.34,394.17c-7.1-14.08-.68-15.47-5.54-25.11-4.86-9.64-9.79-5.28-16.9-19.36-7.11-14.09,9.94-24.55,22.58-19.77,10.24,3.88,16.86,7.61,26.74,2.63,2.82-1.42,5.96-1.36,9.01-.55,11.02,2.93,17.18,15.14,12.99,25.75-1.16,2.93-2.98,5.5-5.8,6.92-9.88,4.99-10.81,12.54-13.77,23.07-3.66,13.02-22.2,20.52-29.31,6.43Z"/>
        <path class="cls-3" d="m116.28,325c-10.18,7.06-21.53,8.32-28.21-1.33-6.51-9.39-1.53-19.83,8.65-26.89,10.18-7.06,21.67-5.67,27.08,2.12s2.67,19.04-7.51,26.1Z"/>
        <path class="cls-3" d="m71.11,318.46c-6.68,7.07-15.19,9.87-21.89,3.55-6.52-6.16-4.39-14.98,2.29-22.05,6.68-7.07,15.73-7.87,21.14-2.76,5.41,5.11,5.13,14.19-1.54,21.26Z"/>
        <path class="cls-3" d="m121.05,331.1c-11.72,4-19.48,12.37-15.69,23.48,3.69,10.82,15.04,13.01,26.77,9.01,11.72-4,17.44-14.06,14.38-23.04-3.06-8.97-13.73-13.46-25.46-9.46Z"/>
        <path class="cls-3" d="m100.32,370.9c-9.65,1.17-16.96,6.35-15.86,15.5,1.08,8.91,9.45,12.43,19.1,11.26,9.65-1.17,15.67-7.98,14.78-15.37-.9-7.39-8.37-12.56-18.02-11.39Z"/>
      </g>
      <g>
        <path class="cls-3" d="m230.5,337.85c1.22-15.72,7.43-13.58,8.26-24.34.83-10.76-5.64-9.59-4.43-25.31,1.22-15.73,21.22-15.85,29.56-5.22,6.75,8.62,10.48,15.24,21.51,16.1,3.15.24,5.81,1.92,7.99,4.19,7.91,8.22,6.85,21.85-2.22,28.76-2.51,1.91-5.39,3.16-8.54,2.92-11.03-.85-15.74,5.13-23.73,12.6-9.87,9.24-29.62,6.05-28.4-9.69Z"/>
        <path class="cls-3" d="m327.86,315.95c-12.36.76-22.72-4.04-23.44-15.75-.71-11.41,8.96-17.75,21.33-18.52,12.36-.76,21.48,6.37,22.06,15.84s-7.58,17.67-19.94,18.43Z"/>
        <path class="cls-3" d="m292.61,286.96c-9.37,2.59-18.11.58-20.56-8.3-2.39-8.65,4.01-15.09,13.38-17.68,9.37-2.59,17.53,1.42,19.51,8.59,1.98,7.17-2.96,14.8-12.33,17.39Z"/>
        <path class="cls-3" d="m328.78,323.64c-12.1-2.66-23.07.5-25.59,11.96-2.45,11.16,6.13,18.92,18.23,21.58,12.1,2.66,22.2-3,24.23-12.26,2.03-9.26-4.78-18.62-16.87-21.28Z"/>
        <path class="cls-3" d="m290.43,346.94c-8.86-4-17.8-3.35-21.59,5.04-3.69,8.18,1.64,15.53,10.51,19.52,8.86,4,17.54,1.29,20.6-5.49,3.06-6.78-.65-15.08-9.52-19.08Z"/>
      </g>
      <g>
        <path class="cls-3" d="m354.93,218.71c3.62-15.35,9.43-12.28,11.91-22.78,2.48-10.5-4.1-10.35-.48-25.69,3.62-15.36,23.41-12.4,30.01-.61,5.34,9.56,8.01,16.67,18.78,19.21,3.08.73,5.44,2.79,7.25,5.37,6.55,9.34,3.41,22.65-6.62,28.07-2.77,1.5-5.81,2.29-8.89,1.57-10.77-2.54-16.34,2.65-25.39,8.8-11.18,7.61-30.2,1.42-26.58-13.94Z"/>
        <path class="cls-3" d="m454.5,212.03c-12.33-1.15-21.83-7.48-20.74-19.17,1.06-11.38,11.59-16.16,23.92-15.02,12.33,1.15,20.24,9.6,19.37,19.04-.88,9.44-10.21,16.29-22.54,15.15Z"/>
        <path class="cls-3" d="m424.13,177.96c-9.66,1.12-17.98-2.21-19.04-11.36-1.03-8.91,6.28-14.29,15.94-15.41,9.66-1.12,17.1,4.1,17.96,11.49.85,7.39-5.2,14.17-14.86,15.28Z"/>
        <path class="cls-3" d="m454.23,219.77c-11.55-4.48-22.87-3.06-27.12,7.88-4.14,10.65,3.15,19.64,14.69,24.12,11.55,4.48,22.4.45,25.83-8.38,3.43-8.84-1.86-19.14-13.4-23.62Z"/>
        <path class="cls-3" d="m412.76,236.9c-8.14-5.31-17.07-6.05-22.11,1.66-4.9,7.51-.76,15.59,7.38,20.91,8.14,5.31,17.13,3.98,21.2-2.26,4.07-6.23,1.67-15-6.47-20.31Z"/>
      </g>
      <g>
        <path class="cls-3" d="m438.09,368.62c7.6-13.82,12.38-9.3,17.58-18.76,5.2-9.46-1.18-11.07,6.42-24.88,7.6-13.83,25.87-5.68,29.07,7.45,2.58,10.64,3.25,18.21,12.95,23.54,2.77,1.52,4.5,4.15,5.55,7.12,3.81,10.75-2.78,22.73-13.9,25.27-3.07.7-6.22.65-8.99-.87-9.7-5.33-16.45-1.83-26.81,1.68-12.81,4.34-29.47-6.72-21.87-20.55Z"/>
        <path class="cls-3" d="m535.81,388.87c-11.58-4.41-19.03-13.06-14.85-24.03,4.07-10.68,15.49-12.47,27.07-8.06,11.58,4.41,16.93,14.67,13.56,23.53s-14.2,12.96-25.78,8.55Z"/>
        <path class="cls-3" d="m515.67,347.91c-9.61-1.51-16.73-6.95-15.3-16.05,1.39-8.86,9.88-12.09,19.49-10.58,9.61,1.51,15.38,8.53,14.22,15.88-1.16,7.35-8.81,12.26-18.41,10.74Z"/>
        <path class="cls-3" d="m533.47,396.25c-9.92-7.41-21.22-9.07-28.24.33-6.84,9.15-2.23,19.76,7.69,27.18,9.92,7.41,21.46,6.44,27.13-1.16,5.67-7.6,3.34-18.93-6.58-26.35Z"/>
        <path class="cls-3" d="m488.93,401.64c-6.42-7.3-14.83-10.4-21.75-4.32-6.74,5.92-4.91,14.82,1.51,22.12,6.42,7.3,15.44,8.42,21.03,3.5,5.59-4.92,5.63-14-.79-21.3Z"/>
      </g>
      <g>
        <path class="cls-3" d="m607.26,330.04c9.04-12.92,13.31-7.92,19.49-16.76,6.19-8.84.02-11.13,9.06-24.05,9.05-12.93,26.33-2.86,28.1,10.53,1.42,10.86,1.27,18.45,10.34,24.8,2.59,1.81,4.02,4.61,4.75,7.68,2.63,11.1-5.21,22.3-16.53,23.63-3.13.37-6.25-.02-8.84-1.83-9.07-6.34-16.16-3.59-26.84-1.22-13.2,2.94-28.58-9.85-19.53-22.78Z"/>
        <path class="cls-3" d="m702.24,360.68c-11.03-5.63-17.51-15.03-12.18-25.48,5.19-10.18,16.74-10.73,27.78-5.1,11.03,5.63,15.26,16.41,10.95,24.85s-15.51,11.36-26.55,5.73Z"/>
        <path class="cls-3" d="m686.62,317.79c-9.39-2.54-15.88-8.71-13.48-17.6,2.34-8.66,11.12-10.95,20.51-8.42,9.39,2.54,14.37,10.13,12.43,17.32-1.94,7.19-10.07,11.24-19.46,8.7Z"/>
        <path class="cls-3" d="m699.12,367.77c-9.07-8.44-20.12-11.3-28.11-2.71-7.78,8.37-4.34,19.41,4.73,27.85,9.07,8.44,20.64,8.71,27.1,1.77,6.46-6.94,5.36-18.47-3.71-26.9Z"/>
        <path class="cls-3" d="m654.25,368.34c-5.6-7.95-13.62-11.94-21.16-6.63-7.33,5.17-6.48,14.2-.88,22.15,5.6,7.95,14.45,10.03,20.53,5.74,6.08-4.29,7.1-13.32,1.5-21.27Z"/>
      </g>
      <g>
        <path class="cls-3" d="m671.66,509.36c7.27-13.99,12.15-9.59,17.13-19.17,4.97-9.58-1.44-11.04,5.83-25.03,7.27-14,25.73-6.29,29.24,6.76,2.83,10.57,3.68,18.13,13.5,23.23,2.81,1.46,4.59,4.04,5.72,6.99,4.06,10.66-2.24,22.79-13.29,25.6-3.06.78-6.2.8-9-.66-9.82-5.1-16.49-1.44-26.77,2.31-12.7,4.64-29.62-6.02-22.35-20.02Z"/>
        <path class="cls-3" d="m769.83,527.28c-11.68-4.13-19.33-12.6-15.42-23.67,3.81-10.77,15.19-12.83,26.87-8.7,11.68,4.13,17.27,14.27,14.11,23.2s-13.89,13.3-25.57,9.16Z"/>
        <path class="cls-3" d="m748.73,486.81c-9.64-1.28-16.89-6.55-15.67-15.68,1.18-8.89,9.59-12.32,19.23-11.03,9.64,1.28,15.58,8.16,14.6,15.54-.98,7.38-8.52,12.46-18.15,11.18Z"/>
        <path class="cls-3" d="m767.67,534.72c-10.1-7.18-21.43-8.57-28.23,1-6.62,9.31-1.76,19.81,8.33,26.99,10.1,7.18,21.61,5.93,27.1-1.8,5.49-7.73,2.89-19.01-7.21-26.18Z"/>
        <path class="cls-3" d="m723.26,541.17c-6.59-7.15-15.07-10.05-21.84-3.8-6.59,6.08-4.56,14.93,2.03,22.08,6.59,7.15,15.64,8.05,21.11,3,5.47-5.05,5.3-14.13-1.3-21.28Z"/>
      </g>
      <g>
        <path class="cls-3" d="m836.74,453.88c4.62-15.07,10.22-11.63,13.39-21.95,3.17-10.32-3.41-10.6,1.22-25.67,4.63-15.09,24.17-10.83,29.98,1.37,4.7,9.89,6.89,17.17,17.47,20.41,3.02.93,5.25,3.15,6.88,5.84,5.92,9.75,1.91,22.82-8.46,27.57-2.87,1.31-5.95,1.9-8.98.98-10.58-3.25-16.48,1.56-25.91,7.1-11.65,6.86-30.23-.58-25.6-15.66Z"/>
        <path class="cls-3" d="m936.54,453.81c-12.23-1.96-21.29-8.91-19.43-20.5,1.81-11.28,12.63-15.36,24.86-13.4,12.23,1.96,19.56,10.92,18.06,20.28-1.5,9.36-11.26,15.58-23.49,13.62Z"/>
        <path class="cls-3" d="m908.48,417.8c-9.71.48-17.79-3.4-18.24-12.6-.44-8.96,7.21-13.85,16.92-14.32,9.71-.48,16.79,5.22,17.16,12.65.36,7.43-6.13,13.79-15.84,14.27Z"/>
        <path class="cls-3" d="m935.75,461.51c-11.22-5.24-22.62-4.56-27.58,6.07-4.83,10.36,1.84,19.8,13.07,25.04,11.22,5.24,22.32,1.93,26.33-6.66,4.01-8.59-.59-19.22-11.81-24.46Z"/>
        <path class="cls-3" d="m893.24,475.86c-7.77-5.84-16.64-7.17-22.17.2-5.39,7.17-1.79,15.51,5.98,21.35,7.77,5.84,16.83,5.1,21.3-.85,4.47-5.95,2.66-14.86-5.11-20.7Z"/>
      </g>
      <g>
        <path class="cls-3" d="m966.06,602.18c1.37-15.71,7.57-13.51,8.51-24.26.94-10.75-5.54-9.65-4.17-25.36,1.37-15.72,21.38-15.64,29.61-4.92,6.66,8.69,10.33,15.35,21.35,16.31,3.15.28,5.79,1.98,7.95,4.28,7.82,8.3,6.63,21.92-2.51,28.73-2.53,1.88-5.42,3.11-8.57,2.83-11.02-.96-15.79,4.97-23.86,12.36-9.96,9.14-29.68,5.75-28.3-9.97Z"/>
        <path class="cls-3" d="m1063.64,581.26c-12.37.64-22.68-4.27-23.28-15.99-.59-11.41,9.14-17.66,21.51-18.3,12.37-.64,21.41,6.59,21.9,16.06.49,9.47-7.76,17.59-20.13,18.23Z"/>
        <path class="cls-3" d="m1028.68,551.91c-9.4,2.49-18.11.4-20.47-8.51-2.3-8.67,4.16-15.05,13.56-17.54,9.4-2.49,17.51,1.59,19.42,8.79,1.91,7.19-3.11,14.77-12.51,17.26Z"/>
        <path class="cls-3" d="m1064.48,588.96c-12.07-2.78-23.07.26-25.71,11.7-2.56,11.14,5.94,18.98,18.01,21.76s22.23-2.77,24.36-12.01c2.13-9.24-4.59-18.67-16.66-21.45Z"/>
        <path class="cls-3" d="m1025.9,611.87c-8.82-4.09-17.77-3.53-21.64,4.83-3.77,8.14,1.49,15.54,10.31,19.63,8.82,4.09,17.52,1.47,20.65-5.28,3.13-6.75-.5-15.08-9.32-19.17Z"/>
      </g>
      <g>
        <path class="cls-3" d="m1078.32,495.08c1.58-15.69,7.74-13.41,8.82-24.15,1.08-10.74-5.42-9.72-3.84-25.41,1.58-15.7,21.58-15.36,29.67-4.54,6.55,8.78,10.13,15.48,21.14,16.59,3.15.32,5.76,2.05,7.9,4.38,7.71,8.4,6.35,22-2.88,28.7-2.55,1.85-5.46,3.04-8.61,2.72-11.01-1.11-15.85,4.76-24.01,12.05-10.08,9.01-29.75,5.36-28.17-10.34Z"/>
        <path class="cls-3" d="m1176.15,475.42c-12.38.48-22.62-4.56-23.08-16.29-.44-11.42,9.37-17.54,21.75-18.02,12.38-.48,21.33,6.86,21.69,16.34.37,9.47-7.99,17.49-20.36,17.97Z"/>
        <path class="cls-3" d="m1141.58,445.62c-9.43,2.37-18.11.16-20.36-8.77-2.19-8.7,4.36-14.99,13.78-17.36,9.43-2.37,17.49,1.82,19.31,9.04,1.82,7.22-3.3,14.73-12.73,17.1Z"/>
        <path class="cls-3" d="m1176.9,483.12c-12.03-2.93-23.08-.03-25.86,11.37-2.71,11.1,5.69,19.06,17.73,21.99s22.27-2.49,24.51-11.7c2.24-9.21-4.35-18.73-16.38-21.66Z"/>
        <path class="cls-3" d="m1138.03,505.54c-8.77-4.2-17.72-3.76-21.7,4.55-3.88,8.09,1.29,15.56,10.06,19.76,8.77,4.2,17.5,1.7,20.72-5.02,3.22-6.71-.31-15.09-9.07-19.29Z"/>
      </g>
      <g>
        <path class="cls-3" d="m1323.27,493.9c1.29-15.71,7.5-13.55,8.38-24.31.88-10.76-5.6-9.62-4.3-25.33,1.29-15.73,21.3-15.75,29.58-5.08,6.7,8.66,10.41,15.29,21.43,16.2,3.15.26,5.8,1.95,7.97,4.23,7.87,8.26,6.75,21.88-2.36,28.75-2.52,1.9-5.41,3.13-8.56,2.88-11.03-.91-15.77,5.05-23.79,12.48-9.92,9.19-29.65,5.9-28.36-9.82Z"/>
        <path class="cls-3" d="m1420.74,472.46c-12.37.71-22.7-4.14-23.37-15.86-.65-11.41,9.05-17.71,21.41-18.42,12.37-.71,21.45,6.48,21.99,15.94.54,9.47-7.67,17.63-20.03,18.34Z"/>
        <path class="cls-3" d="m1385.63,443.3c-9.38,2.54-18.11.49-20.52-8.4-2.35-8.66,4.08-15.07,13.47-17.61,9.38-2.54,17.52,1.5,19.47,8.68,1.95,7.18-3.03,14.78-12.42,17.33Z"/>
        <path class="cls-3" d="m1421.62,480.15c-12.09-2.71-23.07.39-25.64,11.84-2.5,11.15,6.04,18.95,18.12,21.66,12.09,2.71,22.22-2.89,24.29-12.14,2.08-9.25-4.69-18.65-16.77-21.36Z"/>
        <path class="cls-3" d="m1383.16,503.28c-8.84-4.04-17.78-3.44-21.61,4.94-3.73,8.16,1.57,15.53,10.41,19.57,8.84,4.04,17.53,1.38,20.63-5.39,3.09-6.77-.58-15.08-9.42-19.12Z"/>
      </g>
      <g>
        <path class="cls-3" d="m1222.88,624.7c-1.75-15.67,4.76-14.74,3.57-25.46-1.19-10.73-7.34-8.37-9.08-24.04-1.75-15.68,17.88-19.54,28.06-10.65,8.24,7.21,13.15,13.01,24.14,11.79,3.14-.35,6.07.8,8.64,2.63,9.3,6.6,10.82,20.19,3.19,28.67-2.11,2.35-4.71,4.11-7.85,4.46-11,1.22-14.5,7.98-20.96,16.81-7.97,10.92-27.97,11.48-29.71-4.2Z"/>
        <path class="cls-3" d="m1314.43,584.98c-12,3.06-23.07.28-25.98-11.09-2.83-11.07,5.49-19.12,17.49-22.18,12-3.06,22.29,2.24,24.63,11.43,2.34,9.19-4.14,18.77-16.15,21.84Z"/>
        <path class="cls-3" d="m1274.38,563.08c-8.72,4.3-17.68,3.95-21.75-4.31-3.96-8.05,1.12-15.57,9.84-19.87,8.72-4.3,17.48-1.89,20.77,4.79,3.29,6.68-.14,15.09-8.87,19.39Z"/>
        <path class="cls-3" d="m1316.77,592.36c-12.38-.35-22.57,4.8-22.9,16.53-.32,11.42,9.56,17.44,21.94,17.79,12.38.35,21.25-7.09,21.52-16.57.27-9.48-8.17-17.4-20.56-17.75Z"/>
        <path class="cls-3" d="m1283.46,622.42c-9.45-2.27-18.11.03-20.27,8.99-2.1,8.72,4.52,14.94,13.97,17.22s17.47-2.01,19.21-9.25c1.74-7.24-3.46-14.69-12.91-16.96Z"/>
      </g>
      <g>
        <path class="cls-3" d="m1476.45,620.36c-4.48-15.12,2.09-15.34-.97-25.69-3.06-10.35-8.69-6.95-13.17-22.07-4.48-15.13,14.16-22.38,25.75-15.42,9.38,5.65,15.23,10.5,25.84,7.36,3.03-.9,6.11-.28,8.97,1.07,10.32,4.86,14.2,17.97,8.19,27.66-1.66,2.68-3.91,4.88-6.94,5.77-10.61,3.14-12.87,10.41-17.67,20.24-5.92,12.16-25.51,16.22-29.99,1.09Z"/>
        <path class="cls-3" d="m1559.58,565.15c-11.28,5.13-22.66,4.34-27.52-6.35-4.73-10.4,2.04-19.78,13.31-24.91,11.28-5.13,22.34-1.71,26.26,6.92,3.92,8.63-.78,19.21-12.05,24.34Z"/>
        <path class="cls-3" d="m1516.3,550.65c-7.83,5.76-16.71,7-22.17-.42-5.32-7.22-1.64-15.53,6.19-21.29,7.83-5.76,16.88-4.93,21.29,1.06,4.41,5.99,2.51,14.88-5.32,20.64Z"/>
        <path class="cls-3" d="m1563.19,572c-12.25,1.84-21.37,8.7-19.63,20.3,1.7,11.3,12.48,15.49,24.73,13.65,12.25-1.84,19.67-10.72,18.26-20.1-1.41-9.38-11.11-15.69-23.36-13.86Z"/>
        <path class="cls-3" d="m1535.68,607.46c-9.71-.57-17.83,3.22-18.37,12.42-.53,8.95,7.08,13.92,16.78,14.49s16.85-5.05,17.28-12.48c.44-7.43-5.99-13.85-15.7-14.42Z"/>
      </g>
      <g>
        <path class="cls-3" d="m1560.37,480.41c-6.67-14.29-.2-15.48-4.77-25.26-4.56-9.78-9.63-5.58-16.29-19.87-6.67-14.3,10.69-24.24,23.18-19.07,10.11,4.2,16.62,8.13,26.65,3.45,2.87-1.34,6-1.18,9.02-.28,10.92,3.27,16.7,15.66,12.19,26.14-1.25,2.9-3.14,5.4-6.01,6.74-10.03,4.68-11.19,12.2-14.48,22.63-4.06,12.9-22.83,19.82-29.5,5.52Z"/>
        <path class="cls-3" d="m1634.4,413.49c-10.39,6.74-21.77,7.65-28.16-2.2-6.22-9.59-.92-19.87,9.47-26.61,10.39-6.74,21.84-5,27,2.95,5.16,7.95,2.08,19.11-8.31,25.85Z"/>
        <path class="cls-3" d="m1589.46,405.56c-6.89,6.86-15.48,9.4-21.98,2.87-6.33-6.36-3.92-15.11,2.97-21.97,6.89-6.86,15.96-7.38,21.21-2.11,5.25,5.27,4.69,14.34-2.2,21.2Z"/>
        <path class="cls-3" d="m1638.99,419.73c-11.84,3.63-19.85,11.77-16.41,22.99,3.35,10.93,14.63,13.47,26.48,9.83s17.86-13.52,15.08-22.58c-2.78-9.06-13.31-13.87-25.15-10.24Z"/>
        <path class="cls-3" d="m1617.04,458.87c-9.68.87-17.15,5.83-16.32,15,.81,8.93,9.06,12.71,18.74,11.84s15.91-7.49,15.24-14.9c-.67-7.41-7.98-12.81-17.66-11.94Z"/>
      </g>
      <g>
        <path class="cls-3" d="m1729.84,562.24c-9.1-12.88-2.95-15.2-9.17-24.02-6.23-8.81-10.47-3.79-19.56-16.66-9.1-12.89,6.22-25.75,19.42-22.88,10.7,2.33,17.8,5.05,26.83-1.34,2.58-1.82,5.7-2.23,8.83-1.87,11.33,1.28,19.22,12.45,16.64,23.56-.71,3.07-2.13,5.87-4.72,7.7-9.04,6.38-8.85,13.99-10.23,24.84-1.7,13.41-18.94,23.56-28.05,10.67Z"/>
        <path class="cls-3" d="m1790.82,483.24c-9.03,8.48-20.07,11.39-28.1,2.84-7.82-8.33-4.43-19.39,4.6-27.87,9.03-8.48,20.6-8.8,27.09-1.89,6.49,6.91,5.44,18.44-3.59,26.92Z"/>
        <path class="cls-3" d="m1745.17,483.42c-5.56,7.97-13.57,12-21.13,6.73-7.36-5.13-6.54-14.17-.98-22.15,5.56-7.97,14.4-10.1,20.5-5.84,6.1,4.26,7.16,13.28,1.6,21.26Z"/>
        <path class="cls-3" d="m1796.43,488.58c-11.01,5.68-17.44,15.11-12.07,25.54,5.24,10.16,16.79,10.66,27.8,4.98s15.18-16.48,10.83-24.9c-4.35-8.43-15.56-11.29-26.57-5.61Z"/>
        <path class="cls-3" d="m1781.78,530.99c-9.38,2.58-15.85,8.78-13.4,17.66,2.38,8.65,11.17,10.9,20.55,8.33s14.33-10.2,12.35-17.37c-1.97-7.18-10.13-11.19-19.5-8.61Z"/>
      </g>
      <g>
        <path class="cls-3" d="m1746.89,384.92c-5.21-14.88,1.34-15.43-2.23-25.61-3.57-10.19-9.02-6.51-14.24-21.39-5.22-14.89,13.05-23.05,24.96-16.67,9.64,5.18,15.73,9.74,26.17,6.08,2.98-1.05,6.09-.58,9.01.62,10.54,4.34,15.06,17.25,9.53,27.22-1.53,2.76-3.67,5.06-6.65,6.11-10.44,3.66-12.35,11.03-16.66,21.08-5.32,12.43-24.68,17.45-29.9,2.56Z"/>
        <path class="cls-3" d="m1827.22,325.69c-11.01,5.67-22.42,5.45-27.8-4.99-5.23-10.16,1.06-19.86,12.07-25.53,11.01-5.67,22.23-2.81,26.57,5.62,4.34,8.43.17,19.23-10.84,24.9Z"/>
        <path class="cls-3" d="m1783.28,313.33c-7.54,6.14-16.34,7.81-22.16.67-5.67-6.95-2.4-15.43,5.14-21.57,7.54-6.14,16.62-5.75,21.32.02,4.7,5.77,3.24,14.74-4.3,20.88Z"/>
        <path class="cls-3" d="m1831.15,332.36c-12.14,2.44-20.92,9.74-18.61,21.24,2.25,11.2,13.22,14.86,25.37,12.42,12.14-2.44,19.12-11.68,17.26-20.97-1.87-9.3-11.87-15.13-24.01-12.69Z"/>
        <path class="cls-3" d="m1805.42,369.13c-9.72-.09-17.65,4.09-17.74,13.3-.09,8.97,7.75,13.55,17.47,13.65s16.58-5.87,16.65-13.31c.07-7.44-6.66-13.54-16.39-13.64Z"/>
      </g>
      <g>
        <path class="cls-3" d="m1866,478.77c-3.53-15.37,3.04-15.18.62-25.7-2.42-10.52-8.25-7.47-11.78-22.84-3.54-15.38,15.52-21.47,26.65-13.81,9.01,6.22,14.55,11.42,25.34,8.94,3.08-.71,6.12.1,8.88,1.62,10,5.48,13.06,18.81,6.46,28.11-1.83,2.57-4.2,4.63-7.28,5.33-10.78,2.48-13.49,9.59-18.89,19.11-6.66,11.77-26.46,14.61-30-.76Z"/>
        <path class="cls-3" d="m1952.38,428.8c-11.57,4.42-22.89,2.93-27.08-8.03-4.08-10.67,3.25-19.62,14.82-24.04,11.57-4.42,22.4-.33,25.79,8.53,3.38,8.86-1.96,19.13-13.53,23.55Z"/>
        <path class="cls-3" d="m1910.08,411.65c-8.17,5.27-17.11,5.96-22.1-1.78-4.86-7.54-.68-15.6,7.49-20.87,8.17-5.27,17.15-3.88,21.19,2.37,4.03,6.25,1.59,15.01-6.58,20.28Z"/>
        <path class="cls-3" d="m1955.56,435.86c-12.34,1.08-21.87,7.36-20.85,19.05.99,11.38,11.5,16.23,23.84,15.15s20.29-9.49,19.47-18.93c-.83-9.45-10.12-16.35-22.46-15.27Z"/>
        <path class="cls-3" d="m1925.92,469.56c-9.65-1.17-17.99,2.11-19.1,11.26-1.08,8.91,6.2,14.33,15.86,15.5s17.12-4,18.02-11.39c.9-7.39-5.12-14.2-14.78-15.37Z"/>
      </g>
      <g>
        <path class="cls-3" d="m1957.96,320.44c-8.94-12.98-2.77-15.24-8.89-24.12-6.12-8.89-10.42-3.91-19.36-16.89-8.95-12.99,6.52-25.67,19.69-22.65,10.67,2.46,17.74,5.26,26.85-1.02,2.6-1.79,5.72-2.16,8.85-1.77,11.31,1.42,19.07,12.68,16.36,23.75-.75,3.06-2.2,5.85-4.81,7.64-9.11,6.28-9.01,13.89-10.52,24.72-1.86,13.39-19.22,23.33-28.17,10.34Z"/>
        <path class="cls-3" d="m2019.87,242.16c-9.13,8.37-20.2,11.16-28.13,2.5-7.72-8.42-4.2-19.44,4.93-27.81,9.13-8.37,20.7-8.56,27.11-1.57s5.22,18.5-3.91,26.88Z"/>
        <path class="cls-3" d="m1974.22,241.8c-5.66,7.91-13.71,11.84-21.2,6.48-7.3-5.22-6.37-14.25-.72-22.16,5.66-7.91,14.52-9.93,20.57-5.6,6.05,4.33,7.01,13.37,1.35,21.28Z"/>
        <path class="cls-3" d="m2025.42,247.56c-11.08,5.55-17.62,14.9-12.37,25.39,5.12,10.22,16.67,10.85,27.74,5.31s15.37-16.3,11.13-24.77c-4.25-8.48-15.43-11.47-26.5-5.93Z"/>
        <path class="cls-3" d="m2010.27,289.8c-9.41,2.47-15.95,8.59-13.61,17.5,2.28,8.68,11.04,11.03,20.45,8.57s14.45-10.03,12.56-17.23c-1.89-7.2-9.99-11.31-19.4-8.84Z"/>
      </g>
      <g>
        <path class="cls-3" d="m2117.45,373.58c-7.68-13.77-1.32-15.43-6.58-24.85-5.26-9.42-10.01-4.87-17.69-18.64-7.69-13.78,8.91-24.95,21.74-20.7,10.39,3.45,17.16,6.9,26.82,1.51,2.76-1.54,5.9-1.61,8.98-.93,11.13,2.47,17.79,14.41,14.05,25.19-1.03,2.98-2.74,5.62-5.51,7.16-9.66,5.39-10.28,12.98-12.8,23.62-3.11,13.16-21.33,21.42-29.02,7.64Z"/>
        <path class="cls-3" d="m2186.44,301.48c-9.88,7.48-21.16,9.2-28.24-.15-6.9-9.11-2.35-19.75,7.52-27.22,9.88-7.48,21.42-6.57,27.14.99,5.72,7.56,3.46,18.91-6.42,26.39Z"/>
        <path class="cls-3" d="m2141.04,296.82c-6.38,7.34-14.76,10.5-21.72,4.45-6.77-5.88-5.01-14.79,1.37-22.13,6.38-7.34,15.39-8.51,21.01-3.63,5.62,4.88,5.72,13.97-.66,21.31Z"/>
        <path class="cls-3" d="m2191.47,307.37c-11.55,4.48-18.95,13.17-14.7,24.12,4.13,10.65,15.57,12.37,27.12,7.89s16.84-14.78,13.41-23.62c-3.43-8.84-14.28-12.87-25.83-8.39Z"/>
        <path class="cls-3" d="m2172.41,348c-9.6,1.57-16.69,7.05-15.2,16.14,1.45,8.85,9.96,12.03,19.55,10.45s15.33-8.62,14.12-15.97-8.88-12.2-18.48-10.63Z"/>
      </g>
      <g>
        <path class="cls-3" d="m2165.12,188.08c-1.8-15.66,4.71-14.75,3.48-25.47-1.23-10.72-7.36-8.34-9.16-24.01-1.8-15.68,17.82-19.6,28.02-10.75,8.26,7.18,13.19,12.97,24.18,11.71,3.14-.36,6.07.78,8.65,2.6,9.32,6.56,10.88,20.15,3.29,28.65-2.1,2.35-4.69,4.13-7.83,4.49-10.99,1.26-14.48,8.03-20.9,16.88-7.93,10.95-27.93,11.57-29.73-4.1Z"/>
        <path class="cls-3" d="m2256.53,148.05c-11.99,3.1-23.07.36-26.01-11-2.86-11.06,5.42-19.14,17.41-22.24,11.99-3.1,22.3,2.17,24.67,11.35,2.37,9.18-4.08,18.79-16.07,21.89Z"/>
        <path class="cls-3" d="m2216.41,126.29c-8.71,4.32-17.66,4.01-21.76-4.24-3.99-8.03,1.07-15.58,9.77-19.9,8.71-4.32,17.48-1.94,20.79,4.72,3.31,6.67-.09,15.09-8.8,19.42Z"/>
        <path class="cls-3" d="m2258.9,155.43c-12.38-.3-22.56,4.88-22.84,16.61-.28,11.42,9.62,17.41,22,17.71s21.23-7.17,21.46-16.64c.23-9.48-8.23-17.38-20.62-17.68Z"/>
        <path class="cls-3" d="m2225.69,185.6c-9.46-2.24-18.11.09-20.24,9.06-2.07,8.73,4.57,14.93,14.03,17.17s17.46-2.07,19.18-9.31c1.71-7.24-3.51-14.68-12.97-16.92Z"/>
      </g>
      <g>
        <path class="cls-3" d="m2302.24,311.42c1.14-15.73,7.37-13.62,8.15-24.38.78-10.76-5.69-9.57-4.55-25.29,1.14-15.74,21.15-15.95,29.53-5.36,6.79,8.59,10.55,15.19,21.59,15.99,3.15.23,5.82,1.89,8.01,4.16,7.94,8.18,6.95,21.82-2.09,28.77-2.5,1.92-5.38,3.19-8.53,2.96-11.04-.8-15.72,5.2-23.67,12.71-9.83,9.29-29.59,6.19-28.45-9.55Z"/>
        <path class="cls-3" d="m2399.5,289.06c-12.36.82-22.74-3.93-23.52-15.64-.76-11.4,8.88-17.8,21.24-18.62,12.36-.82,21.51,6.27,22.14,15.73.63,9.46-7.5,17.7-19.86,18.53Z"/>
        <path class="cls-3" d="m2364.11,260.23c-9.36,2.63-18.1.66-20.6-8.2-2.43-8.64,3.94-15.11,13.3-17.74,9.36-2.63,17.54,1.33,19.55,8.5,2.02,7.16-2.89,14.81-12.25,17.45Z"/>
        <path class="cls-3" d="m2400.46,296.74c-12.11-2.6-23.07.61-25.53,12.08-2.4,11.17,6.22,18.89,18.33,21.49s22.19-3.1,24.18-12.37c1.99-9.27-4.86-18.6-16.97-21.2Z"/>
        <path class="cls-3" d="m2362.22,320.23c-8.88-3.96-17.82-3.27-21.57,5.15s1.72,15.52,10.6,19.47,17.54,1.21,20.57-5.59c3.03-6.8-.72-15.07-9.61-19.03Z"/>
      </g>
      <g>
        <path class="cls-3" d="m2426.7,191.52c3.15-15.45,9.06-12.56,11.21-23.14,2.16-10.57-4.41-10.22-1.26-25.67,3.15-15.46,23.02-13.11,29.97-1.52,5.63,9.39,8.51,16.42,19.36,18.63,3.1.63,5.53,2.63,7.41,5.15,6.83,9.13,4.1,22.53-5.76,28.26-2.73,1.58-5.74,2.47-8.84,1.84-10.84-2.21-16.25,3.14-25.11,9.57-10.94,7.95-30.14,2.34-26.99-13.12Z"/>
        <path class="cls-3" d="m2526.02,181.83c-12.36-.77-22.05-6.82-21.32-18.53.71-11.41,11.09-16.51,23.45-15.74,12.36.77,20.52,8.98,19.93,18.44s-9.71,16.6-22.07,15.82Z"/>
        <path class="cls-3" d="m2494.63,148.7c-9.62,1.41-18.04-1.67-19.37-10.78-1.3-8.88,5.85-14.48,15.47-15.89,9.62-1.41,17.22,3.57,18.3,10.94,1.08,7.36-4.77,14.32-14.39,15.73Z"/>
        <path class="cls-3" d="m2525.99,189.57c-11.68-4.13-22.96-2.36-26.87,8.7-3.81,10.77,3.74,19.53,15.42,23.66s22.4-.23,25.56-9.17c3.16-8.94-2.44-19.07-14.11-23.2Z"/>
        <path class="cls-3" d="m2485.05,207.96c-8.3-5.06-17.25-5.53-22.05,2.33s-.29,15.61,8.01,20.67,17.24,3.45,21.12-2.9c3.88-6.35,1.22-15.04-7.08-20.11Z"/>
      </g>
      <g>
        <path class="cls-3" d="m2510.65,337.11c7.5-13.87,12.32-9.39,17.45-18.88,5.14-9.49-1.25-11.06,6.25-24.93,7.51-13.88,25.83-5.85,29.12,7.25,2.66,10.62,3.38,18.19,13.11,23.45,2.78,1.5,4.52,4.12,5.6,7.08,3.88,10.72-2.63,22.75-13.73,25.37-3.07.72-6.21.69-8.99-.81-9.73-5.27-16.47-1.72-26.8,1.86-12.78,4.43-29.52-6.52-22.01-20.4Z"/>
        <path class="cls-3" d="m2608.5,356.69c-11.61-4.33-19.12-12.93-15.01-23.92,3.99-10.71,15.41-12.57,27.01-8.24,11.61,4.33,17.03,14.56,13.72,23.44-3.31,8.88-14.11,13.06-25.72,8.73Z"/>
        <path class="cls-3" d="m2588.09,315.87c-9.62-1.45-16.78-6.83-15.41-15.94,1.33-8.87,9.8-12.15,19.41-10.71,9.62,1.45,15.44,8.42,14.33,15.78-1.11,7.36-8.72,12.32-18.34,10.87Z"/>
        <path class="cls-3" d="m2606.22,364.09c-9.97-7.35-21.28-8.93-28.24.52-6.78,9.2-2.1,19.78,7.88,27.12s21.5,6.29,27.12-1.34c5.62-7.63,3.21-18.96-6.76-26.3Z"/>
        <path class="cls-3" d="m2561.71,369.79c-6.47-7.26-14.9-10.3-21.77-4.17s-4.81,14.85,1.66,22.11,15.5,8.31,21.05,3.36c5.56-4.95,5.54-14.04-.94-21.3Z"/>
      </g>
      <g>
        <path class="cls-3" d="m2679.05,297.75c8.92-13,13.23-8.05,19.33-16.95,6.1-8.9-.09-11.13,8.83-24.13,8.92-13.01,26.3-3.11,28.2,10.27,1.53,10.84,1.45,18.44,10.58,24.7,2.61,1.79,4.07,4.57,4.82,7.63,2.73,11.07-5,22.35-16.31,23.79-3.13.4-6.25.04-8.86-1.75-9.13-6.26-16.19-3.43-26.85-.96-13.17,3.06-28.67-9.58-19.75-22.59Z"/>
        <path class="cls-3" d="m2774.32,327.48c-11.09-5.52-17.66-14.86-12.42-25.37,5.09-10.23,16.64-10.89,27.73-5.37,11.09,5.52,15.41,16.26,11.18,24.75s-15.4,11.51-26.49,5.99Z"/>
        <path class="cls-3" d="m2758.3,284.74c-9.41-2.45-15.97-8.55-13.65-17.47,2.26-8.68,11.02-11.06,20.43-8.61,9.41,2.45,14.47,10,12.6,17.2-1.87,7.2-9.97,11.33-19.38,8.89Z"/>
        <path class="cls-3" d="m2771.27,334.6c-9.15-8.35-20.23-11.11-28.14-2.44-7.7,8.44-4.16,19.45,4.99,27.8,9.15,8.35,20.72,8.51,27.12,1.51,6.39-7,5.18-18.52-3.97-26.87Z"/>
        <path class="cls-3" d="m2726.41,335.6c-5.67-7.9-13.74-11.81-21.22-6.43-7.28,5.24-6.34,14.27-.67,22.16s14.54,9.89,20.58,5.55c6.04-4.34,6.98-13.38,1.3-21.28Z"/>
      </g>
      <g>
        <path class="cls-3" d="m2746,473.73c7.45-13.89,12.28-9.43,17.38-18.94,5.1-9.51-1.29-11.05,6.16-24.95,7.46-13.9,25.81-5.94,29.15,7.15,2.69,10.61,3.44,18.18,13.19,23.41,2.79,1.49,4.54,4.1,5.62,7.06,3.92,10.71-2.55,22.76-13.64,25.41-3.07.73-6.21.72-8.99-.78-9.75-5.23-16.47-1.66-26.8,1.95-12.76,4.47-29.54-6.42-22.08-20.32Z"/>
        <path class="cls-3" d="m2843.93,492.97c-11.62-4.29-19.16-12.86-15.1-23.87,3.96-10.72,15.36-12.63,26.99-8.34,11.62,4.29,17.08,14.5,13.8,23.39-3.28,8.89-14.07,13.11-25.69,8.82Z"/>
        <path class="cls-3" d="m2823.37,452.22c-9.62-1.41-16.8-6.78-15.46-15.89,1.3-8.88,9.76-12.19,19.38-10.77,9.62,1.41,15.47,8.37,14.39,15.73s-8.68,12.35-18.3,10.93Z"/>
        <path class="cls-3" d="m2841.67,500.38c-10-7.31-21.31-8.85-28.24.62-6.75,9.22-2.03,19.78,7.97,27.1,10,7.31,21.52,6.22,27.12-1.44,5.6-7.65,3.14-18.97-6.85-26.28Z"/>
        <path class="cls-3" d="m2797.18,506.23c-6.5-7.23-14.93-10.25-21.79-4.1s-4.76,14.87,1.74,22.1,15.53,8.26,21.06,3.29c5.54-4.97,5.49-14.06-1.01-21.29Z"/>
      </g>
      <g>
        <path class="cls-3" d="m2909.27,417.79c4.61-15.08,10.22-11.64,13.37-21.96,3.16-10.32-3.41-10.59,1.2-25.67,4.62-15.09,24.17-10.85,29.98,1.35,4.7,9.89,6.91,17.16,17.49,20.4,3.02.92,5.25,3.14,6.89,5.84,5.92,9.74,1.92,22.82-8.44,27.58-2.87,1.32-5.95,1.91-8.97.98-10.58-3.24-16.48,1.57-25.91,7.12-11.65,6.87-30.23-.56-25.61-15.64Z"/>
        <path class="cls-3" d="m3009.06,417.64c-12.23-1.95-21.29-8.89-19.45-20.48,1.8-11.29,12.62-15.37,24.85-13.42,12.23,1.95,19.57,10.9,18.08,20.26s-11.25,15.59-23.48,13.64Z"/>
        <path class="cls-3" d="m2980.98,381.65c-9.71.48-17.8-3.38-18.25-12.58-.45-8.96,7.2-13.85,16.91-14.33,9.71-.48,16.8,5.2,17.17,12.64.37,7.43-6.12,13.8-15.83,14.28Z"/>
        <path class="cls-3" d="m3008.29,425.34c-11.23-5.23-22.62-4.54-27.58,6.1-4.82,10.36,1.86,19.8,13.09,25.03,11.23,5.23,22.32,1.92,26.32-6.68,4-8.6-.6-19.22-11.83-24.45Z"/>
        <path class="cls-3" d="m2965.78,439.73c-7.78-5.83-16.64-7.15-22.17.22s-1.78,15.51,6,21.34,16.83,5.09,21.3-.87c4.47-5.95,2.65-14.86-5.13-20.69Z"/>
      </g>
      <g>
        <path class="cls-3" d="m3041.91,564.52c1.09-15.73,7.32-13.64,8.07-24.41.75-10.77-5.72-9.55-4.63-25.28,1.09-15.74,21.09-16.02,29.51-5.46,6.81,8.57,10.6,15.16,21.64,15.92,3.15.22,5.82,1.88,8.03,4.13,7.97,8.15,7.03,21.8-1.99,28.77-2.49,1.93-5.37,3.2-8.52,2.98-11.04-.76-15.7,5.25-23.63,12.79-9.8,9.32-29.57,6.28-28.48-9.46Z"/>
        <path class="cls-3" d="m3139.09,541.84c-12.36.86-22.75-3.85-23.57-15.56-.8-11.4,8.82-17.83,21.18-18.69,12.36-.86,21.53,6.2,22.19,15.66.66,9.46-7.44,17.73-19.8,18.59Z"/>
        <path class="cls-3" d="m3103.61,513.13c-9.35,2.66-18.1.72-20.62-8.14-2.46-8.63,3.89-15.12,13.24-17.78,9.35-2.66,17.54,1.28,19.58,8.43,2.04,7.16-2.84,14.82-12.19,17.49Z"/>
        <path class="cls-3" d="m3140.07,549.52c-12.12-2.56-23.07.68-25.49,12.17-2.36,11.18,6.28,18.87,18.4,21.43s22.18-3.17,24.14-12.45c1.96-9.28-4.92-18.59-17.04-21.14Z"/>
        <path class="cls-3" d="m3101.92,573.13c-8.89-3.93-17.83-3.21-21.55,5.22-3.62,8.21,1.77,15.51,10.66,19.44,8.89,3.93,17.55,1.15,20.55-5.66,3.01-6.81-.77-15.07-9.67-19Z"/>
      </g>
      <g>
        <path class="cls-3" d="m3153.22,456.24c.87-15.74,7.13-13.75,7.72-24.52.59-10.78-5.85-9.47-4.98-25.21.87-15.76,20.86-16.32,29.43-5.87,6.93,8.47,10.81,15.01,21.86,15.62,3.16.17,5.85,1.79,8.09,4.02,8.08,8.04,7.33,21.69-1.59,28.8-2.47,1.96-5.32,3.28-8.48,3.1-11.05-.61-15.62,5.47-23.45,13.12-9.67,9.46-29.48,6.7-28.61-9.06Z"/>
        <path class="cls-3" d="m3250.07,432.19c-12.34,1.04-22.8-3.53-23.79-15.23-.96-11.39,8.57-17.95,20.91-18.99,12.34-1.04,21.61,5.9,22.41,15.34.79,9.45-7.19,17.83-19.53,18.87Z"/>
        <path class="cls-3" d="m3214.19,403.98c-9.31,2.8-18.09.98-20.74-7.85-2.58-8.59,3.68-15.17,12.99-17.97,9.31-2.8,17.56,1.03,19.7,8.16,2.14,7.13-2.63,14.86-11.95,17.66Z"/>
        <path class="cls-3" d="m3251.16,439.86c-12.15-2.39-23.05,1.01-25.32,12.52-2.2,11.21,6.54,18.78,18.7,21.17s22.13-3.49,23.96-12.79c1.83-9.3-5.19-18.51-17.34-20.9Z"/>
        <path class="cls-3" d="m3213.34,464c-8.95-3.8-17.87-2.96-21.47,5.52-3.51,8.26,1.99,15.49,10.94,19.29,8.95,3.8,17.56.91,20.47-5.94,2.91-6.85-.99-15.06-9.94-18.86Z"/>
      </g>
      <g>
        <path class="cls-3" d="m3298.98,580.94c-1.63-15.68,4.87-14.7,3.75-25.43-1.12-10.73-7.27-8.42-8.9-24.11-1.63-15.69,18.03-19.41,28.14-10.45,8.19,7.27,13.05,13.11,24.05,11.97,3.14-.33,6.06.85,8.62,2.69,9.25,6.66,10.67,20.26,2.98,28.69-2.13,2.33-4.74,4.08-7.88,4.4-11.01,1.14-14.56,7.87-21.08,16.66-8.05,10.86-28.05,11.27-29.68-4.42Z"/>
        <path class="cls-3" d="m3390.82,541.89c-12.02,2.97-23.08.11-25.89-11.28-2.74-11.09,5.63-19.08,17.65-22.05,12.02-2.97,22.27,2.41,24.55,11.61,2.28,9.2-4.28,18.74-16.31,21.72Z"/>
        <path class="cls-3" d="m3350.93,519.71c-8.75,4.23-17.71,3.82-21.72-4.47-3.9-8.08,1.23-15.56,9.99-19.79,8.75-4.23,17.5-1.76,20.74,4.94s-.25,15.09-9.01,19.32Z"/>
        <path class="cls-3" d="m3393.11,549.29c-12.38-.44-22.61,4.63-23.02,16.36-.4,11.42,9.43,17.51,21.81,17.95,12.38.44,21.3-6.94,21.64-16.41.33-9.48-8.05-17.46-20.42-17.9Z"/>
        <path class="cls-3" d="m3359.57,579.11c-9.44-2.34-18.11-.1-20.33,8.84s4.41,14.98,13.84,17.32,17.49-1.88,19.28-9.1c1.79-7.22-3.35-14.72-12.79-17.06Z"/>
      </g>
      <g>
        <path class="cls-3" d="m3396.47,449.31c1.46-15.7,7.65-13.47,8.65-24.21,1-10.75-5.49-9.68-4.03-25.38,1.46-15.71,21.47-15.52,29.63-4.75,6.61,8.73,10.24,15.41,21.26,16.43,3.15.29,5.78,2.01,7.93,4.32,7.77,8.34,6.51,21.96-2.68,28.72-2.54,1.87-5.44,3.07-8.59,2.78-11.02-1.03-15.82,4.88-23.93,12.22-10.02,9.08-29.71,5.58-28.25-10.13Z"/>
        <path class="cls-3" d="m3494.16,428.94c-12.37.57-22.65-4.39-23.19-16.12-.52-11.42,9.24-17.61,21.62-18.18,12.37-.57,21.37,6.71,21.81,16.18.44,9.47-7.86,17.55-20.23,18.12Z"/>
        <path class="cls-3" d="m3459.37,399.4c-9.41,2.44-18.11.29-20.42-8.63-2.25-8.68,4.25-15.02,13.66-17.46,9.41-2.44,17.5,1.69,19.37,8.9s-3.2,14.75-12.61,17.19Z"/>
        <path class="cls-3" d="m3494.96,436.65c-12.06-2.85-23.08.13-25.77,11.55-2.63,11.12,5.83,19.02,17.88,21.86s22.25-2.65,24.43-11.87c2.18-9.23-4.48-18.7-16.54-21.54Z"/>
        <path class="cls-3" d="m3456.25,459.34c-8.8-4.14-17.75-3.64-21.67,4.7-3.82,8.12,1.4,15.55,10.2,19.69,8.8,4.14,17.52,1.57,20.68-5.16,3.17-6.73-.41-15.09-9.21-19.22Z"/>
      </g>
      <g>
        <path class="cls-3" d="m3551.6,574.17c-4.46-15.12,2.11-15.34-.94-25.69-3.05-10.35-8.69-6.96-13.15-22.08-4.46-15.13,14.19-22.37,25.76-15.4,9.37,5.66,15.22,10.51,25.83,7.38,3.03-.89,6.11-.27,8.96,1.07,10.31,4.87,14.18,17.98,8.16,27.66-1.67,2.68-3.91,4.87-6.95,5.77-10.61,3.13-12.88,10.39-17.69,20.22-5.94,12.15-25.53,16.19-29.99,1.06Z"/>
        <path class="cls-3" d="m3634.79,519.04c-11.28,5.12-22.67,4.32-27.52-6.37-4.72-10.41,2.06-19.78,13.34-24.9,11.28-5.12,22.34-1.69,26.26,6.94,3.92,8.64-.79,19.21-12.08,24.33Z"/>
        <path class="cls-3" d="m3591.53,504.49c-7.84,5.76-16.71,6.99-22.17-.44-5.31-7.23-1.62-15.53,6.21-21.28,7.84-5.76,16.89-4.92,21.29,1.08,4.41,6,2.5,14.88-5.34,20.64Z"/>
        <path class="cls-3" d="m3638.39,525.9c-12.25,1.83-21.38,8.68-19.65,20.29,1.68,11.3,12.46,15.5,24.71,13.67s19.68-10.7,18.28-20.08c-1.4-9.38-11.09-15.7-23.34-13.88Z"/>
        <path class="cls-3" d="m3610.85,561.33c-9.71-.58-17.83,3.2-18.38,12.4-.54,8.95,7.06,13.92,16.77,14.5s16.85-5.03,17.3-12.46c.45-7.43-5.98-13.86-15.68-14.44Z"/>
      </g>
      <g>
        <path class="cls-3" d="m3633.87,433.72c-6.97-14.14-.53-15.48-5.3-25.16-4.77-9.68-9.74-5.38-16.71-19.52-6.97-14.16,10.18-24.46,22.77-19.55,10.2,3.98,16.79,7.77,26.71,2.88,2.84-1.4,5.98-1.31,9.02-.47,10.99,3.04,17.03,15.31,12.74,25.87-1.19,2.92-3.03,5.47-5.86,6.86-9.93,4.89-10.93,12.43-13.99,22.93-3.78,12.98-22.4,20.3-29.37,6.14Z"/>
        <path class="cls-3" d="m3706.47,365.25c-10.25,6.96-21.6,8.11-28.2-1.6-6.42-9.45-1.34-19.84,8.91-26.8,10.25-6.96,21.73-5.46,27.05,2.38,5.33,7.84,2.48,19.07-7.76,26.02Z"/>
        <path class="cls-3" d="m3661.36,358.27c-6.74,7-15.28,9.73-21.92,3.34-6.46-6.22-4.24-15.02,2.5-22.03,6.74-7,15.8-7.72,21.16-2.55,5.36,5.16,4.99,14.24-1.75,21.25Z"/>
        <path class="cls-3" d="m3711.18,371.4c-11.76,3.88-19.6,12.19-15.92,23.33,3.58,10.85,14.92,13.16,26.68,9.27,11.76-3.88,17.57-13.89,14.6-22.9-2.97-9-13.6-13.59-25.36-9.71Z"/>
        <path class="cls-3" d="m3690.07,410.99c-9.66,1.08-17.02,6.19-16,15.34.99,8.92,9.33,12.52,18.99,11.44s15.75-7.83,14.92-15.22c-.82-7.4-8.25-12.64-17.91-11.56Z"/>
      </g>
      <g>
        <path class="cls-3" d="m3805.86,512.04c-9.19-12.81-3.05-15.18-9.34-23.95-6.29-8.77-10.49-3.71-19.68-16.53-9.19-12.83,6.04-25.79,19.27-23.01,10.71,2.26,17.83,4.92,26.82-1.52,2.57-1.84,5.68-2.27,8.82-1.93,11.34,1.2,19.31,12.32,16.8,23.44-.69,3.08-2.09,5.89-4.66,7.73-8.99,6.45-8.75,14.05-10.06,24.91-1.61,13.43-18.78,23.69-27.97,10.86Z"/>
        <path class="cls-3" d="m3866.29,432.62c-8.97,8.54-19.99,11.53-28.08,3.03-7.88-8.28-4.56-19.36,4.41-27.9,8.97-8.54,20.54-8.94,27.08-2.07,6.54,6.87,5.57,18.4-3.41,26.94Z"/>
        <path class="cls-3" d="m3820.65,433.11c-5.51,8.01-13.49,12.09-21.08,6.87-7.39-5.08-6.64-14.13-1.13-22.14,5.51-8.01,14.33-10.19,20.46-5.98,6.13,4.22,7.26,13.23,1.75,21.25Z"/>
      </g>
      <g>
        <path class="cls-3" d="m3822.65,335.28c-6.51-14.36-.03-15.49-4.49-25.31-4.46-9.83-9.57-5.69-16.08-20.05-6.51-14.37,10.96-24.12,23.38-18.81,10.07,4.31,16.53,8.31,26.61,3.74,2.88-1.31,6.02-1.11,9.03-.18,10.89,3.39,16.53,15.85,11.91,26.27-1.28,2.88-3.2,5.37-6.08,6.67-10.08,4.57-11.32,12.08-14.72,22.47-4.2,12.85-23.04,19.57-29.56,5.2Z"/>
        <path class="cls-3" d="m3852.55,260.76c-6.97,6.78-15.59,9.23-22.01,2.63-6.26-6.43-3.76-15.15,3.21-21.94,6.97-6.78,16.04-7.2,21.24-1.87,5.19,5.33,4.53,14.39-2.43,21.18Z"/>
      </g>
    </g>
    <g>
      <g>
        <path class="cls-3" d="m3761.28,1982.98c1.61,15.68-4.89,14.69-3.79,25.43,1.1,10.74,7.26,8.43,8.87,24.12,1.61,15.7-18.05,19.39-28.15,10.41-8.18-7.28-13.03-13.13-24.04-12-3.15.32-6.06-.85-8.62-2.7-9.25-6.68-10.64-20.28-2.95-28.69,2.13-2.33,4.74-4.07,7.89-4.39,11.01-1.13,14.57-7.85,21.1-16.63,8.06-10.85,28.06-11.24,29.68,4.46Z"/>
        <path class="cls-3" d="m3669.39,2021.91c12.03-2.96,23.08-.08,25.88,11.31,2.73,11.1-5.65,19.07-17.68,22.03-12.03,2.96-22.27-2.44-24.54-11.64-2.26-9.21,4.31-18.74,16.33-21.7Z"/>
        <path class="cls-3" d="m3709.25,2044.15c8.76-4.22,17.71-3.8,21.71,4.5,3.89,8.08-1.25,15.56-10.01,19.78-8.76,4.22-17.5,1.73-20.73-4.97-3.23-6.7.27-15.09,9.03-19.31Z"/>
        <path class="cls-3" d="m3667.11,2014.51c12.38.45,22.61-4.61,23.04-16.34.42-11.42-9.41-17.52-21.79-17.98-12.38-.45-21.31,6.91-21.66,16.39-.35,9.47,8.02,17.47,20.4,17.93Z"/>
        <path class="cls-3" d="m3700.68,1984.73c9.43,2.35,18.11.12,20.34-8.82,2.17-8.7-4.39-14.98-13.82-17.33-9.43-2.35-17.49,1.86-19.29,9.08-1.8,7.22,3.33,14.72,12.77,17.07Z"/>
      </g>
      <g>
        <path class="cls-3" d="m3811.48,1801.19c7.1,14.08.68,15.47,5.54,25.11,4.86,9.64,9.79,5.28,16.9,19.36,7.11,14.09-9.94,24.55-22.58,19.77-10.24-3.88-16.86-7.61-26.74-2.63-2.82,1.42-5.96,1.36-9.01.55-11.02-2.93-17.18-15.14-12.99-25.75,1.16-2.93,2.98-5.5,5.8-6.92,9.88-4.99,10.81-12.54,13.77-23.07,3.66-13.02,22.2-20.52,29.31-6.43Z"/>
        <path class="cls-3" d="m3739.54,1870.36c10.18-7.06,21.53-8.32,28.21,1.33,6.51,9.39,1.53,19.83-8.65,26.89-10.18,7.06-21.67,5.67-27.08-2.12-5.4-7.79-2.67-19.04,7.51-26.1Z"/>
        <path class="cls-3" d="m3784.71,1876.9c6.68-7.07,15.19-9.87,21.89-3.55,6.52,6.16,4.39,14.98-2.29,22.05-6.68,7.07-15.73,7.87-21.14,2.76-5.41-5.11-5.13-14.19,1.54-21.26Z"/>
        <path class="cls-3" d="m3734.77,1864.26c11.72-4,19.48-12.37,15.69-23.48-3.69-10.82-15.04-13.01-26.77-9.01-11.72,4-17.44,14.06-14.38,23.04,3.06,8.97,13.73,13.46,25.46,9.46Z"/>
        <path class="cls-3" d="m3755.5,1824.46c9.65-1.17,16.96-6.35,15.86-15.5-1.08-8.91-9.45-12.43-19.1-11.26-9.65,1.17-15.67,7.98-14.78,15.37s8.37,12.56,18.02,11.39Z"/>
      </g>
      <g>
        <path class="cls-3" d="m3625.33,1857.51c-1.22,15.72-7.43,13.58-8.26,24.34-.83,10.76,5.64,9.59,4.43,25.31-1.22,15.73-21.22,15.85-29.56,5.22-6.75-8.62-10.48-15.24-21.51-16.1-3.15-.24-5.81-1.92-7.99-4.19-7.91-8.22-6.85-21.85,2.22-28.76,2.51-1.91,5.39-3.16,8.54-2.92,11.03.85,15.74-5.13,23.73-12.6,9.87-9.24,29.62-6.05,28.4,9.69Z"/>
        <path class="cls-3" d="m3527.96,1879.41c12.36-.76,22.72,4.04,23.44,15.75.71,11.41-8.96,17.75-21.33,18.52-12.36.76-21.48-6.37-22.06-15.84s7.58-17.67,19.94-18.43Z"/>
        <path class="cls-3" d="m3563.21,1908.4c9.37-2.59,18.11-.58,20.56,8.3,2.39,8.65-4.01,15.09-13.38,17.68-9.37,2.59-17.53-1.42-19.51-8.59-1.98-7.17,2.96-14.8,12.33-17.39Z"/>
        <path class="cls-3" d="m3527.04,1871.72c12.1,2.66,23.07-.5,25.59-11.96,2.45-11.16-6.13-18.92-18.23-21.58-12.1-2.66-22.2,3-24.23,12.26-2.03,9.26,4.78,18.62,16.87,21.28Z"/>
        <path class="cls-3" d="m3565.39,1848.42c8.86,4,17.8,3.35,21.59-5.04,3.69-8.18-1.64-15.53-10.51-19.52-8.86-4-17.54-1.29-20.6,5.49-3.06,6.78.65,15.08,9.52,19.08Z"/>
      </g>
      <g>
        <path class="cls-3" d="m3500.89,1976.65c-3.62,15.35-9.43,12.28-11.91,22.78-2.48,10.5,4.1,10.35.48,25.69-3.62,15.36-23.41,12.4-30.01.61-5.34-9.56-8.01-16.67-18.78-19.21-3.08-.73-5.44-2.79-7.25-5.37-6.55-9.34-3.41-22.65,6.62-28.07,2.77-1.5,5.81-2.29,8.89-1.57,10.77,2.54,16.34-2.65,25.39-8.8,11.18-7.61,30.2-1.42,26.58,13.94Z"/>
        <path class="cls-3" d="m3401.32,1983.33c12.33,1.15,21.83,7.48,20.74,19.17-1.06,11.38-11.59,16.16-23.92,15.02-12.33-1.15-20.24-9.6-19.37-19.04.88-9.44,10.21-16.29,22.54-15.15Z"/>
        <path class="cls-3" d="m3431.69,2017.4c9.66-1.12,17.98,2.21,19.04,11.36,1.03,8.91-6.28,14.29-15.94,15.41-9.66,1.12-17.1-4.1-17.96-11.49s5.2-14.17,14.86-15.28Z"/>
        <path class="cls-3" d="m3401.59,1975.59c11.55,4.48,22.87,3.06,27.12-7.88,4.14-10.65-3.15-19.64-14.69-24.12-11.55-4.48-22.4-.45-25.83,8.38-3.43,8.84,1.86,19.14,13.4,23.62Z"/>
        <path class="cls-3" d="m3443.07,1958.46c8.14,5.31,17.07,6.05,22.11-1.66,4.9-7.51.76-15.59-7.38-20.91-8.14-5.31-17.13-3.98-21.2,2.26-4.07,6.23-1.67,15,6.47,20.31Z"/>
      </g>
      <g>
        <path class="cls-3" d="m3417.73,1826.74c-7.6,13.82-12.38,9.3-17.58,18.76-5.2,9.46,1.18,11.07-6.42,24.88-7.6,13.83-25.87,5.68-29.07-7.45-2.58-10.64-3.25-18.21-12.95-23.54-2.77-1.52-4.5-4.15-5.55-7.12-3.81-10.75,2.78-22.73,13.9-25.27,3.07-.7,6.22-.65,8.99.87,9.7,5.33,16.45,1.83,26.81-1.68,12.81-4.34,29.47,6.72,21.87,20.55Z"/>
        <path class="cls-3" d="m3320.01,1806.49c11.58,4.41,19.03,13.06,14.85,24.03-4.07,10.68-15.49,12.47-27.07,8.06-11.58-4.41-16.93-14.67-13.56-23.53,3.37-8.86,14.2-12.96,25.78-8.55Z"/>
        <path class="cls-3" d="m3340.15,1847.45c9.61,1.51,16.73,6.95,15.3,16.05-1.39,8.86-9.88,12.09-19.49,10.58-9.61-1.51-15.38-8.53-14.22-15.88,1.16-7.35,8.81-12.26,18.41-10.74Z"/>
        <path class="cls-3" d="m3322.35,1799.11c9.92,7.41,21.22,9.07,28.24-.33,6.84-9.15,2.23-19.76-7.69-27.18-9.92-7.41-21.46-6.44-27.13,1.16-5.67,7.6-3.34,18.93,6.58,26.35Z"/>
        <path class="cls-3" d="m3366.9,1793.72c6.42,7.3,14.83,10.4,21.75,4.32,6.74-5.92,4.91-14.82-1.51-22.12-6.42-7.3-15.44-8.42-21.03-3.5-5.59,4.92-5.63,14,.79,21.3Z"/>
      </g>
      <g>
        <path class="cls-3" d="m3248.56,1865.32c-9.04,12.92-13.31,7.92-19.49,16.76-6.19,8.84-.02,11.13-9.06,24.05-9.05,12.93-26.33,2.86-28.1-10.53-1.42-10.86-1.27-18.45-10.34-24.8-2.59-1.81-4.02-4.61-4.75-7.68-2.63-11.1,5.21-22.3,16.53-23.63,3.13-.37,6.25.02,8.84,1.83,9.07,6.34,16.16,3.59,26.84,1.22,13.2-2.94,28.58,9.85,19.53,22.78Z"/>
        <path class="cls-3" d="m3153.58,1834.68c11.03,5.63,17.51,15.03,12.18,25.48-5.19,10.18-16.74,10.73-27.78,5.1-11.03-5.63-15.26-16.41-10.95-24.85s15.51-11.36,26.55-5.73Z"/>
        <path class="cls-3" d="m3169.2,1877.57c9.39,2.54,15.88,8.71,13.48,17.6-2.34,8.66-11.12,10.95-20.51,8.42-9.39-2.54-14.37-10.13-12.43-17.32s10.07-11.24,19.46-8.7Z"/>
        <path class="cls-3" d="m3156.7,1827.6c9.07,8.44,20.12,11.3,28.11,2.71,7.78-8.37,4.34-19.41-4.73-27.85-9.07-8.44-20.64-8.71-27.1-1.77-6.46,6.94-5.36,18.47,3.71,26.9Z"/>
        <path class="cls-3" d="m3201.57,1827.02c5.6,7.95,13.62,11.94,21.16,6.63,7.33-5.17,6.48-14.2.88-22.15-5.6-7.95-14.45-10.03-20.53-5.74-6.08,4.29-7.1,13.32-1.5,21.27Z"/>
      </g>
      <g>
        <path class="cls-3" d="m3184.16,1686c-7.27,13.99-12.15,9.59-17.13,19.17-4.97,9.58,1.44,11.04-5.83,25.03-7.27,14-25.73,6.29-29.24-6.76-2.83-10.57-3.68-18.13-13.5-23.23-2.81-1.46-4.59-4.04-5.72-6.99-4.06-10.66,2.24-22.79,13.29-25.6,3.06-.78,6.2-.8,9,.66,9.82,5.1,16.49,1.44,26.77-2.31,12.7-4.64,29.62,6.02,22.35,20.02Z"/>
        <path class="cls-3" d="m3085.99,1668.08c11.68,4.13,19.33,12.6,15.42,23.67-3.81,10.77-15.19,12.83-26.87,8.7-11.68-4.13-17.27-14.27-14.11-23.2,3.16-8.94,13.89-13.3,25.57-9.16Z"/>
        <path class="cls-3" d="m3107.09,1708.55c9.64,1.28,16.89,6.55,15.67,15.68-1.18,8.89-9.59,12.32-19.23,11.03-9.64-1.28-15.58-8.16-14.6-15.54.98-7.38,8.52-12.46,18.15-11.18Z"/>
        <path class="cls-3" d="m3088.15,1660.64c10.1,7.18,21.43,8.57,28.23-1,6.62-9.31,1.76-19.81-8.33-26.99s-21.61-5.93-27.1,1.8c-5.49,7.73-2.89,19.01,7.21,26.18Z"/>
        <path class="cls-3" d="m3132.56,1654.19c6.59,7.15,15.07,10.05,21.84,3.8s4.56-14.93-2.03-22.08c-6.59-7.15-15.64-8.05-21.11-3-5.47,5.05-5.3,14.13,1.3,21.28Z"/>
      </g>
      <g>
        <path class="cls-3" d="m3019.08,1741.48c-4.62,15.07-10.22,11.63-13.39,21.95-3.17,10.32,3.41,10.6-1.22,25.67-4.63,15.09-24.17,10.83-29.98-1.37-4.7-9.89-6.89-17.17-17.47-20.41-3.02-.93-5.25-3.15-6.88-5.84-5.92-9.75-1.91-22.82,8.46-27.57,2.87-1.31,5.95-1.9,8.98-.98,10.58,3.25,16.48-1.56,25.91-7.1,11.65-6.86,30.23.58,25.6,15.66Z"/>
        <path class="cls-3" d="m2919.29,1741.55c12.23,1.96,21.29,8.91,19.43,20.5-1.81,11.28-12.63,15.36-24.86,13.4-12.23-1.96-19.56-10.92-18.06-20.28s11.26-15.58,23.49-13.62Z"/>
        <path class="cls-3" d="m2947.34,1777.56c9.71-.48,17.79,3.4,18.24,12.6.44,8.96-7.21,13.85-16.92,14.32-9.71.48-16.79-5.22-17.16-12.65-.36-7.43,6.13-13.79,15.84-14.27Z"/>
        <path class="cls-3" d="m2920.07,1733.85c11.22,5.24,22.62,4.56,27.58-6.07,4.83-10.36-1.84-19.8-13.07-25.04-11.22-5.24-22.32-1.93-26.33,6.66-4.01,8.59.59,19.22,11.81,24.46Z"/>
        <path class="cls-3" d="m2962.58,1719.5c7.77,5.84,16.64,7.17,22.17-.2,5.39-7.17,1.79-15.51-5.98-21.35-7.77-5.84-16.83-5.1-21.3.85-4.47,5.95-2.66,14.86,5.11,20.7Z"/>
      </g>
      <g>
        <path class="cls-3" d="m2889.76,1593.18c-1.37,15.71-7.57,13.51-8.51,24.26-.94,10.75,5.54,9.65,4.17,25.36-1.37,15.72-21.38,15.64-29.61,4.92-6.66-8.69-10.33-15.35-21.35-16.31-3.15-.28-5.79-1.98-7.95-4.28-7.82-8.3-6.63-21.92,2.51-28.73,2.53-1.88,5.42-3.11,8.57-2.83,11.02.96,15.79-4.97,23.86-12.36,9.96-9.14,29.68-5.75,28.3,9.97Z"/>
        <path class="cls-3" d="m2792.19,1614.1c12.37-.64,22.68,4.27,23.28,15.99.59,11.41-9.14,17.66-21.51,18.3-12.37.64-21.41-6.59-21.9-16.06s7.76-17.59,20.13-18.23Z"/>
        <path class="cls-3" d="m2827.14,1643.45c9.4-2.49,18.11-.4,20.47,8.51,2.3,8.67-4.16,15.05-13.56,17.54-9.4,2.49-17.51-1.59-19.42-8.79-1.91-7.19,3.11-14.77,12.51-17.26Z"/>
        <path class="cls-3" d="m2791.34,1606.4c12.07,2.78,23.07-.26,25.71-11.7,2.56-11.14-5.94-18.98-18.01-21.76s-22.23,2.77-24.36,12.01c-2.13,9.24,4.59,18.67,16.66,21.45Z"/>
        <path class="cls-3" d="m2829.92,1583.49c8.82,4.09,17.77,3.53,21.64-4.83,3.77-8.14-1.49-15.54-10.31-19.63-8.82-4.09-17.52-1.47-20.65,5.28-3.13,6.75.5,15.08,9.32,19.17Z"/>
      </g>
      <g>
        <path class="cls-3" d="m2777.51,1700.28c-1.58,15.69-7.74,13.41-8.82,24.15-1.08,10.74,5.42,9.72,3.84,25.41-1.58,15.7-21.58,15.36-29.67,4.54-6.55-8.78-10.13-15.48-21.14-16.59-3.15-.32-5.76-2.05-7.9-4.38-7.71-8.4-6.35-22,2.88-28.7,2.55-1.85,5.46-3.04,8.61-2.72,11.01,1.11,15.85-4.76,24.01-12.05,10.08-9.01,29.75-5.36,28.17,10.34Z"/>
        <path class="cls-3" d="m2679.67,1719.94c12.38-.48,22.62,4.56,23.08,16.29.44,11.42-9.37,17.54-21.75,18.02-12.38.48-21.33-6.86-21.69-16.34-.37-9.47,7.99-17.49,20.36-17.97Z"/>
        <path class="cls-3" d="m2714.24,1749.74c9.43-2.37,18.11-.16,20.36,8.77,2.19,8.7-4.36,14.99-13.78,17.36-9.43,2.37-17.49-1.82-19.31-9.04-1.82-7.22,3.3-14.73,12.73-17.1Z"/>
        <path class="cls-3" d="m2678.92,1712.24c12.03,2.93,23.08.03,25.86-11.37,2.71-11.1-5.69-19.06-17.73-21.99-12.03-2.93-22.27,2.49-24.51,11.7-2.24,9.21,4.35,18.73,16.38,21.66Z"/>
        <path class="cls-3" d="m2717.79,1689.82c8.77,4.2,17.72,3.76,21.7-4.55,3.88-8.09-1.29-15.56-10.06-19.76s-17.5-1.7-20.72,5.02c-3.22,6.71.31,15.09,9.07,19.29Z"/>
      </g>
      <g>
        <path class="cls-3" d="m2532.55,1701.46c-1.29,15.71-7.5,13.55-8.38,24.31-.88,10.76,5.6,9.62,4.3,25.33-1.29,15.73-21.3,15.75-29.58,5.08-6.7-8.66-10.41-15.29-21.43-16.2-3.15-.26-5.8-1.95-7.97-4.23-7.87-8.26-6.75-21.88,2.36-28.75,2.52-1.9,5.41-3.13,8.56-2.88,11.03.91,15.77-5.05,23.79-12.48,9.92-9.19,29.65-5.9,28.36,9.82Z"/>
        <path class="cls-3" d="m2435.09,1722.9c12.37-.71,22.7,4.14,23.37,15.86.65,11.41-9.05,17.71-21.41,18.42-12.37.71-21.45-6.48-21.99-15.94s7.67-17.63,20.03-18.34Z"/>
        <path class="cls-3" d="m2470.2,1752.06c9.38-2.54,18.11-.49,20.52,8.4,2.35,8.66-4.08,15.07-13.47,17.61-9.38,2.54-17.52-1.5-19.47-8.68-1.95-7.18,3.03-14.78,12.42-17.33Z"/>
        <path class="cls-3" d="m2434.2,1715.21c12.09,2.71,23.07-.39,25.64-11.84,2.5-11.15-6.04-18.95-18.12-21.66-12.09-2.71-22.22,2.89-24.29,12.14-2.08,9.25,4.69,18.65,16.77,21.36Z"/>
        <path class="cls-3" d="m2472.66,1692.09c8.84,4.04,17.78,3.44,21.61-4.94,3.73-8.16-1.57-15.53-10.41-19.57s-17.53-1.38-20.63,5.39c-3.09,6.77.58,15.08,9.42,19.12Z"/>
      </g>
      <g>
        <path class="cls-3" d="m2632.94,1570.66c1.75,15.67-4.76,14.74-3.57,25.46,1.19,10.73,7.34,8.37,9.08,24.04,1.75,15.68-17.88,19.54-28.06,10.65-8.24-7.21-13.15-13.01-24.14-11.79-3.14.35-6.07-.8-8.64-2.63-9.3-6.6-10.82-20.19-3.19-28.67,2.11-2.35,4.71-4.11,7.85-4.46,11-1.22,14.5-7.98,20.96-16.81,7.97-10.92,27.97-11.48,29.71,4.2Z"/>
        <path class="cls-3" d="m2541.39,1610.39c12-3.06,23.07-.28,25.98,11.09,2.83,11.07-5.49,19.12-17.49,22.18-12,3.06-22.29-2.24-24.63-11.43-2.34-9.19,4.14-18.77,16.15-21.84Z"/>
        <path class="cls-3" d="m2581.44,1632.28c8.72-4.3,17.68-3.95,21.75,4.31,3.96,8.05-1.12,15.57-9.84,19.87-8.72,4.3-17.48,1.89-20.77-4.79-3.29-6.68.14-15.09,8.87-19.39Z"/>
        <path class="cls-3" d="m2539.05,1603c12.38.35,22.57-4.8,22.9-16.53.32-11.42-9.56-17.44-21.94-17.79-12.38-.35-21.25,7.09-21.52,16.57-.27,9.48,8.17,17.4,20.56,17.75Z"/>
        <path class="cls-3" d="m2572.36,1572.94c9.45,2.27,18.11-.03,20.27-8.99,2.1-8.72-4.52-14.94-13.97-17.22s-17.47,2.01-19.21,9.25,3.46,14.69,12.91,16.96Z"/>
      </g>
      <g>
        <path class="cls-3" d="m2379.37,1575c4.48,15.12-2.09,15.34.97,25.69,3.06,10.35,8.69,6.95,13.17,22.07,4.48,15.13-14.16,22.38-25.75,15.42-9.38-5.65-15.23-10.5-25.84-7.36-3.03.9-6.11.28-8.97-1.07-10.32-4.86-14.2-17.97-8.19-27.66,1.66-2.68,3.91-4.88,6.94-5.77,10.61-3.14,12.87-10.41,17.67-20.24,5.92-12.16,25.51-16.22,29.99-1.09Z"/>
        <path class="cls-3" d="m2296.24,1630.21c11.28-5.13,22.66-4.34,27.52,6.35,4.73,10.4-2.04,19.78-13.31,24.91-11.28,5.13-22.34,1.71-26.26-6.92s.78-19.21,12.05-24.34Z"/>
        <path class="cls-3" d="m2339.52,1644.71c7.83-5.76,16.71-7,22.17.42,5.32,7.22,1.64,15.53-6.19,21.29-7.83,5.76-16.88,4.93-21.29-1.06-4.41-5.99-2.51-14.88,5.32-20.64Z"/>
        <path class="cls-3" d="m2292.64,1623.36c12.25-1.84,21.37-8.7,19.63-20.3-1.7-11.3-12.48-15.49-24.73-13.65s-19.67,10.72-18.26,20.1c1.41,9.38,11.11,15.69,23.36,13.86Z"/>
        <path class="cls-3" d="m2320.14,1587.9c9.71.57,17.83-3.22,18.37-12.42.53-8.95-7.08-13.92-16.78-14.49-9.71-.57-16.85,5.05-17.28,12.48-.44,7.43,5.99,13.85,15.7,14.42Z"/>
      </g>
      <g>
        <path class="cls-3" d="m2295.45,1714.95c6.67,14.29.2,15.48,4.77,25.26,4.56,9.78,9.63,5.58,16.29,19.87,6.67,14.3-10.69,24.24-23.18,19.07-10.11-4.2-16.62-8.13-26.65-3.45-2.87,1.34-6,1.18-9.02.28-10.92-3.27-16.7-15.66-12.19-26.14,1.25-2.9,3.14-5.4,6.01-6.74,10.03-4.68,11.19-12.2,14.48-22.63,4.06-12.9,22.83-19.82,29.5-5.52Z"/>
        <path class="cls-3" d="m2221.42,1781.87c10.39-6.74,21.77-7.65,28.16,2.2,6.22,9.59.92,19.87-9.47,26.61-10.39,6.74-21.84,5-27-2.95-5.16-7.95-2.08-19.11,8.31-25.85Z"/>
        <path class="cls-3" d="m2266.37,1789.8c6.89-6.86,15.48-9.4,21.98-2.87,6.33,6.36,3.92,15.11-2.97,21.97-6.89,6.86-15.96,7.38-21.21,2.11-5.25-5.27-4.69-14.34,2.2-21.2Z"/>
        <path class="cls-3" d="m2216.84,1775.63c11.84-3.63,19.85-11.77,16.41-22.99-3.35-10.93-14.63-13.47-26.48-9.83-11.84,3.63-17.86,13.52-15.08,22.58,2.78,9.06,13.31,13.87,25.15,10.24Z"/>
        <path class="cls-3" d="m2238.78,1736.49c9.68-.87,17.15-5.83,16.32-15-.81-8.93-9.06-12.71-18.74-11.84s-15.91,7.49-15.24,14.9,7.98,12.81,17.66,11.94Z"/>
      </g>
      <g>
        <path class="cls-3" d="m2125.98,1633.12c9.1,12.88,2.95,15.2,9.17,24.02,6.23,8.81,10.47,3.79,19.56,16.66,9.1,12.89-6.22,25.75-19.42,22.88-10.7-2.33-17.8-5.05-26.83,1.34-2.58,1.82-5.7,2.23-8.83,1.87-11.33-1.28-19.22-12.45-16.64-23.56.71-3.07,2.13-5.87,4.72-7.7,9.04-6.38,8.85-13.99,10.23-24.84,1.7-13.41,18.94-23.56,28.05-10.67Z"/>
        <path class="cls-3" d="m2065.01,1712.12c9.03-8.48,20.07-11.39,28.1-2.84,7.82,8.33,4.43,19.39-4.6,27.87-9.03,8.48-20.6,8.8-27.09,1.89-6.49-6.91-5.44-18.44,3.59-26.92Z"/>
        <path class="cls-3" d="m2110.65,1711.94c5.56-7.97,13.57-12,21.13-6.73,7.36,5.13,6.54,14.17.98,22.15-5.56,7.97-14.4,10.1-20.5,5.84-6.1-4.26-7.16-13.28-1.6-21.26Z"/>
        <path class="cls-3" d="m2059.39,1706.78c11.01-5.68,17.44-15.11,12.07-25.54-5.24-10.16-16.79-10.66-27.8-4.98-11.01,5.68-15.18,16.48-10.83,24.9,4.35,8.43,15.56,11.29,26.57,5.61Z"/>
        <path class="cls-3" d="m2074.04,1664.37c9.38-2.58,15.85-8.78,13.4-17.66-2.38-8.65-11.17-10.9-20.55-8.33s-14.33,10.2-12.35,17.37c1.97,7.18,10.13,11.19,19.5,8.61Z"/>
      </g>
      <g>
        <path class="cls-3" d="m2108.93,1810.44c5.21,14.88-1.34,15.43,2.23,25.61,3.57,10.19,9.02,6.51,14.24,21.39s-13.05,23.05-24.96,16.67c-9.64-5.18-15.73-9.74-26.17-6.08-2.98,1.05-6.09.58-9.01-.62-10.54-4.34-15.06-17.25-9.53-27.22,1.53-2.76,3.67-5.06,6.65-6.11,10.44-3.66,12.35-11.03,16.66-21.08,5.32-12.43,24.68-17.45,29.9-2.56Z"/>
        <path class="cls-3" d="m2028.6,1869.67c11.01-5.67,22.42-5.45,27.8,4.99,5.23,10.16-1.06,19.86-12.07,25.53-11.01,5.67-22.23,2.81-26.57-5.62-4.34-8.43-.17-19.23,10.84-24.9Z"/>
        <path class="cls-3" d="m2072.54,1882.03c7.54-6.14,16.34-7.81,22.16-.67,5.67,6.95,2.4,15.43-5.14,21.57-7.54,6.14-16.62,5.75-21.32-.02-4.7-5.77-3.24-14.74,4.3-20.88Z"/>
        <path class="cls-3" d="m2024.67,1863c12.14-2.44,20.92-9.74,18.61-21.24-2.25-11.2-13.22-14.86-25.37-12.42s-19.12,11.68-17.26,20.97c1.87,9.3,11.87,15.13,24.01,12.69Z"/>
        <path class="cls-3" d="m2050.4,1826.23c9.72.09,17.65-4.09,17.74-13.3.09-8.97-7.75-13.55-17.47-13.65-9.72-.09-16.58,5.87-16.65,13.31s6.66,13.54,16.39,13.64Z"/>
      </g>
      <g>
        <path class="cls-3" d="m1989.82,1716.59c3.53,15.37-3.04,15.18-.62,25.7,2.42,10.52,8.25,7.47,11.78,22.84,3.54,15.38-15.52,21.47-26.65,13.81-9.01-6.22-14.55-11.42-25.34-8.94-3.08.71-6.12-.1-8.88-1.62-10-5.48-13.06-18.81-6.46-28.11,1.83-2.57,4.2-4.63,7.28-5.33,10.78-2.48,13.49-9.59,18.89-19.11,6.66-11.77,26.46-14.61,30,.76Z"/>
        <path class="cls-3" d="m1903.44,1766.56c11.57-4.42,22.89-2.93,27.08,8.03,4.08,10.67-3.25,19.62-14.82,24.04-11.57,4.42-22.4.33-25.79-8.53-3.38-8.86,1.96-19.13,13.53-23.55Z"/>
        <path class="cls-3" d="m1945.74,1783.71c8.17-5.27,17.11-5.96,22.1,1.78,4.86,7.54.68,15.6-7.49,20.87-8.17,5.27-17.15,3.88-21.19-2.37-4.03-6.25-1.59-15.01,6.58-20.28Z"/>
        <path class="cls-3" d="m1900.26,1759.5c12.34-1.08,21.87-7.36,20.85-19.05-.99-11.38-11.5-16.23-23.84-15.15s-20.29,9.49-19.47,18.93c.83,9.45,10.12,16.35,22.46,15.27Z"/>
        <path class="cls-3" d="m1929.9,1725.81c9.65,1.17,17.99-2.11,19.1-11.26,1.08-8.91-6.2-14.33-15.86-15.5s-17.12,4-18.02,11.39c-.9,7.39,5.12,14.2,14.78,15.37Z"/>
      </g>
      <g>
        <path class="cls-3" d="m1897.86,1874.92c8.94,12.98,2.77,15.24,8.89,24.12,6.12,8.89,10.42,3.91,19.36,16.89,8.95,12.99-6.52,25.67-19.69,22.65-10.67-2.46-17.74-5.26-26.85,1.02-2.6,1.79-5.72,2.16-8.85,1.77-11.31-1.42-19.07-12.68-16.36-23.75.75-3.06,2.2-5.85,4.81-7.64,9.11-6.28,9.01-13.89,10.52-24.72,1.86-13.39,19.22-23.33,28.17-10.34Z"/>
        <path class="cls-3" d="m1835.96,1953.2c9.13-8.37,20.2-11.16,28.13-2.5,7.72,8.42,4.2,19.44-4.93,27.81-9.13,8.37-20.7,8.56-27.11,1.57s-5.22-18.5,3.91-26.88Z"/>
        <path class="cls-3" d="m1881.6,1953.56c5.66-7.91,13.71-11.84,21.2-6.48,7.3,5.22,6.37,14.25.72,22.16-5.66,7.91-14.52,9.93-20.57,5.6-6.05-4.33-7.01-13.37-1.35-21.28Z"/>
        <path class="cls-3" d="m1830.4,1947.8c11.08-5.55,17.62-14.9,12.37-25.39-5.12-10.22-16.67-10.85-27.74-5.31s-15.37,16.3-11.13,24.77c4.25,8.48,15.43,11.47,26.5,5.93Z"/>
        <path class="cls-3" d="m1845.55,1905.56c9.41-2.47,15.95-8.59,13.61-17.5-2.28-8.68-11.04-11.03-20.45-8.57s-14.45,10.03-12.56,17.23c1.89,7.2,9.99,11.31,19.4,8.84Z"/>
      </g>
      <g>
        <path class="cls-3" d="m1738.37,1821.78c7.68,13.77,1.32,15.43,6.58,24.85,5.26,9.42,10.01,4.87,17.69,18.64,7.69,13.78-8.91,24.95-21.74,20.7-10.39-3.45-17.16-6.9-26.82-1.51-2.76,1.54-5.9,1.61-8.98.93-11.13-2.47-17.79-14.41-14.05-25.19,1.03-2.98,2.74-5.62,5.51-7.16,9.66-5.39,10.28-12.98,12.8-23.62,3.11-13.16,21.33-21.42,29.02-7.64Z"/>
        <path class="cls-3" d="m1669.38,1893.88c9.88-7.48,21.16-9.2,28.24.15,6.9,9.11,2.35,19.75-7.52,27.22-9.88,7.48-21.42,6.57-27.14-.99-5.72-7.56-3.46-18.91,6.42-26.39Z"/>
        <path class="cls-3" d="m1714.78,1898.54c6.38-7.34,14.76-10.5,21.72-4.45,6.77,5.88,5.01,14.79-1.37,22.13-6.38,7.34-15.39,8.51-21.01,3.63-5.62-4.88-5.72-13.97.66-21.31Z"/>
        <path class="cls-3" d="m1664.36,1887.99c11.55-4.48,18.95-13.17,14.7-24.12-4.13-10.65-15.57-12.37-27.12-7.89s-16.84,14.78-13.41,23.62c3.43,8.84,14.28,12.87,25.83,8.39Z"/>
        <path class="cls-3" d="m1683.41,1847.36c9.6-1.57,16.69-7.05,15.2-16.14-1.45-8.85-9.96-12.03-19.55-10.45s-15.33,8.62-14.12,15.97,8.88,12.2,18.48,10.63Z"/>
      </g>
      <g>
        <path class="cls-3" d="m1690.7,2007.28c1.8,15.66-4.71,14.75-3.48,25.47,1.23,10.72,7.36,8.34,9.16,24.01,1.8,15.68-17.82,19.6-28.02,10.75-8.26-7.18-13.19-12.97-24.18-11.71-3.14.36-6.07-.78-8.65-2.6-9.32-6.56-10.88-20.15-3.29-28.65,2.1-2.35,4.69-4.13,7.83-4.49,10.99-1.26,14.48-8.03,20.9-16.88,7.93-10.95,27.93-11.57,29.73,4.1Z"/>
        <path class="cls-3" d="m1599.29,2047.31c11.99-3.1,23.07-.36,26.01,11,2.86,11.06-5.42,19.14-17.41,22.24-11.99,3.1-22.3-2.17-24.67-11.35-2.37-9.18,4.08-18.79,16.07-21.89Z"/>
        <path class="cls-3" d="m1639.41,2069.07c8.71-4.32,17.66-4.01,21.76,4.24,3.99,8.03-1.07,15.58-9.77,19.9-8.71,4.32-17.48,1.94-20.79-4.72-3.31-6.67.09-15.09,8.8-19.42Z"/>
        <path class="cls-3" d="m1596.92,2039.94c12.38.3,22.56-4.88,22.84-16.61.28-11.42-9.62-17.41-22-17.71s-21.23,7.17-21.46,16.64c-.23,9.48,8.23,17.38,20.62,17.68Z"/>
        <path class="cls-3" d="m1630.13,2009.76c9.46,2.24,18.11-.09,20.24-9.06,2.07-8.73-4.57-14.93-14.03-17.17s-17.46,2.07-19.18,9.31c-1.71,7.24,3.51,14.68,12.97,16.92Z"/>
      </g>
      <g>
        <path class="cls-3" d="m1553.58,1883.94c-1.14,15.73-7.37,13.62-8.15,24.38-.78,10.76,5.69,9.57,4.55,25.29-1.14,15.74-21.15,15.95-29.53,5.36-6.79-8.59-10.55-15.19-21.59-15.99-3.15-.23-5.82-1.89-8.01-4.16-7.94-8.18-6.95-21.82,2.09-28.77,2.5-1.92,5.38-3.19,8.53-2.96,11.04.8,15.72-5.2,23.67-12.71,9.83-9.29,29.59-6.19,28.45,9.55Z"/>
        <path class="cls-3" d="m1456.32,1906.3c12.36-.82,22.74,3.93,23.52,15.64.76,11.4-8.88,17.8-21.24,18.62-12.36.82-21.51-6.27-22.14-15.73s7.5-17.7,19.86-18.53Z"/>
        <path class="cls-3" d="m1491.71,1935.13c9.36-2.63,18.1-.66,20.6,8.2,2.43,8.64-3.94,15.11-13.3,17.74-9.36,2.63-17.54-1.33-19.55-8.5-2.02-7.16,2.89-14.81,12.25-17.45Z"/>
        <path class="cls-3" d="m1455.37,1898.62c12.11,2.6,23.07-.61,25.53-12.08,2.4-11.17-6.22-18.89-18.33-21.49-12.11-2.6-22.19,3.1-24.18,12.37-1.99,9.27,4.86,18.6,16.97,21.2Z"/>
        <path class="cls-3" d="m1493.6,1875.13c8.88,3.96,17.82,3.27,21.57-5.15s-1.72-15.52-10.6-19.47c-8.88-3.96-17.54-1.21-20.57,5.59-3.03,6.8.72,15.07,9.61,19.03Z"/>
      </g>
      <g>
        <path class="cls-3" d="m1429.12,2003.84c-3.15,15.45-9.06,12.56-11.21,23.14-2.16,10.57,4.41,10.22,1.26,25.67-3.15,15.46-23.02,13.11-29.97,1.52-5.63-9.39-8.51-16.42-19.36-18.63-3.1-.63-5.53-2.63-7.41-5.15-6.83-9.13-4.1-22.53,5.76-28.26,2.73-1.58,5.74-2.47,8.84-1.84,10.84,2.21,16.25-3.14,25.11-9.57,10.94-7.95,30.14-2.34,26.99,13.12Z"/>
        <path class="cls-3" d="m1329.8,2013.53c12.36.77,22.05,6.82,21.32,18.53-.71,11.41-11.09,16.51-23.45,15.74-12.36-.77-20.52-8.98-19.93-18.44.59-9.46,9.71-16.6,22.07-15.82Z"/>
        <path class="cls-3" d="m1361.19,2046.66c9.62-1.41,18.04,1.67,19.37,10.78,1.3,8.88-5.85,14.48-15.47,15.89-9.62,1.41-17.22-3.57-18.3-10.94-1.08-7.36,4.77-14.32,14.39-15.73Z"/>
        <path class="cls-3" d="m1329.84,2005.79c11.68,4.13,22.96,2.36,26.87-8.7,3.81-10.77-3.74-19.53-15.42-23.66s-22.4.23-25.56,9.17c-3.16,8.94,2.44,19.07,14.11,23.2Z"/>
        <path class="cls-3" d="m1370.77,1987.4c8.3,5.06,17.25,5.53,22.05-2.33,4.67-7.66.29-15.61-8.01-20.67-8.3-5.06-17.24-3.45-21.12,2.9-3.88,6.35-1.22,15.04,7.08,20.11Z"/>
      </g>
      <g>
        <path class="cls-3" d="m1345.17,1858.25c-7.5,13.87-12.32,9.39-17.45,18.88-5.14,9.49,1.25,11.06-6.25,24.93-7.51,13.88-25.83,5.85-29.12-7.25-2.66-10.62-3.38-18.19-13.11-23.45-2.78-1.5-4.52-4.12-5.6-7.08-3.88-10.72,2.63-22.75,13.73-25.37,3.07-.72,6.21-.69,8.99.81,9.73,5.27,16.47,1.72,26.8-1.86,12.78-4.43,29.52,6.52,22.01,20.4Z"/>
        <path class="cls-3" d="m1247.32,1838.67c11.61,4.33,19.12,12.93,15.01,23.92-3.99,10.71-15.41,12.57-27.01,8.24-11.61-4.33-17.03-14.56-13.72-23.44s14.11-13.06,25.72-8.73Z"/>
        <path class="cls-3" d="m1267.73,1879.49c9.62,1.45,16.78,6.83,15.41,15.94-1.33,8.87-9.8,12.15-19.41,10.71-9.62-1.45-15.44-8.42-14.33-15.78,1.11-7.36,8.72-12.32,18.34-10.87Z"/>
        <path class="cls-3" d="m1249.6,1831.27c9.97,7.35,21.28,8.93,28.24-.52,6.78-9.2,2.1-19.78-7.88-27.12-9.97-7.35-21.5-6.29-27.12,1.34-5.62,7.63-3.21,18.96,6.76,26.3Z"/>
        <path class="cls-3" d="m1294.11,1825.57c6.47,7.26,14.9,10.3,21.77,4.17s4.81-14.85-1.66-22.11-15.5-8.31-21.05-3.36c-5.56,4.95-5.54,14.04.94,21.3Z"/>
      </g>
      <g>
        <path class="cls-3" d="m1176.77,1897.61c-8.92,13-13.23,8.05-19.33,16.95-6.1,8.9.09,11.13-8.83,24.13-8.92,13.01-26.3,3.11-28.2-10.27-1.53-10.84-1.45-18.44-10.58-24.7-2.61-1.79-4.07-4.57-4.82-7.63-2.73-11.07,5-22.35,16.31-23.79,3.13-.4,6.25-.04,8.86,1.75,9.13,6.26,16.19,3.43,26.85.96,13.17-3.06,28.67,9.58,19.75,22.59Z"/>
        <path class="cls-3" d="m1081.51,1867.88c11.09,5.52,17.66,14.86,12.42,25.37-5.09,10.23-16.64,10.89-27.73,5.37-11.09-5.52-15.41-16.26-11.18-24.75,4.23-8.49,15.4-11.51,26.49-5.99Z"/>
        <path class="cls-3" d="m1097.53,1910.62c9.41,2.45,15.97,8.55,13.65,17.47-2.26,8.68-11.02,11.06-20.43,8.61-9.41-2.45-14.47-10-12.6-17.2s9.97-11.33,19.38-8.89Z"/>
        <path class="cls-3" d="m1084.55,1860.76c9.15,8.35,20.23,11.11,28.14,2.44,7.7-8.44,4.16-19.45-4.99-27.8-9.15-8.35-20.72-8.51-27.12-1.51-6.39,7-5.18,18.52,3.97,26.87Z"/>
        <path class="cls-3" d="m1129.42,1859.76c5.67,7.9,13.74,11.81,21.22,6.43,7.28-5.24,6.34-14.27.67-22.16s-14.54-9.89-20.58-5.55c-6.04,4.34-6.98,13.38-1.3,21.28Z"/>
      </g>
      <g>
        <path class="cls-3" d="m1109.82,1721.63c-7.45,13.89-12.28,9.43-17.38,18.94-5.1,9.51,1.29,11.05-6.16,24.95-7.46,13.9-25.81,5.94-29.15-7.15-2.69-10.61-3.44-18.18-13.19-23.41-2.79-1.49-4.54-4.1-5.62-7.06-3.92-10.71,2.55-22.76,13.64-25.41,3.07-.73,6.21-.72,8.99.78,9.75,5.23,16.47,1.66,26.8-1.95,12.76-4.47,29.54,6.42,22.08,20.32Z"/>
        <path class="cls-3" d="m1011.9,1702.39c11.62,4.29,19.16,12.86,15.1,23.87-3.96,10.72-15.36,12.63-26.99,8.34-11.62-4.29-17.08-14.5-13.8-23.39,3.28-8.89,14.07-13.11,25.69-8.82Z"/>
        <path class="cls-3" d="m1032.45,1743.14c9.62,1.41,16.8,6.78,15.46,15.89-1.3,8.88-9.76,12.19-19.38,10.77-9.62-1.41-15.47-8.37-14.39-15.73s8.68-12.35,18.3-10.93Z"/>
        <path class="cls-3" d="m1014.15,1694.98c10,7.31,21.31,8.85,28.24-.62,6.75-9.22,2.03-19.78-7.97-27.1-10-7.31-21.52-6.22-27.12,1.44-5.6,7.65-3.14,18.97,6.85,26.28Z"/>
        <path class="cls-3" d="m1058.64,1689.13c6.5,7.23,14.93,10.25,21.79,4.1s4.76-14.87-1.74-22.1c-6.5-7.23-15.53-8.26-21.06-3.29-5.54,4.97-5.49,14.06,1.01,21.29Z"/>
      </g>
      <g>
        <path class="cls-3" d="m946.55,1777.57c-4.61,15.08-10.22,11.64-13.37,21.96-3.16,10.32,3.41,10.59-1.2,25.67-4.62,15.09-24.17,10.85-29.98-1.35-4.7-9.89-6.91-17.16-17.49-20.4-3.02-.92-5.25-3.14-6.89-5.84-5.92-9.74-1.92-22.82,8.44-27.58,2.87-1.32,5.95-1.91,8.97-.98,10.58,3.24,16.48-1.57,25.91-7.12,11.65-6.87,30.23.56,25.61,15.64Z"/>
        <path class="cls-3" d="m846.76,1777.72c12.23,1.95,21.29,8.89,19.45,20.48-1.8,11.29-12.62,15.37-24.85,13.42-12.23-1.95-19.57-10.9-18.08-20.26s11.25-15.59,23.48-13.64Z"/>
        <path class="cls-3" d="m874.84,1813.71c9.71-.48,17.8,3.38,18.25,12.58.45,8.96-7.2,13.85-16.91,14.33-9.71.48-16.8-5.2-17.17-12.64s6.12-13.8,15.83-14.28Z"/>
        <path class="cls-3" d="m847.53,1770.02c11.23,5.23,22.62,4.54,27.58-6.1,4.82-10.36-1.86-19.8-13.09-25.03-11.23-5.23-22.32-1.92-26.32,6.68-4,8.6.6,19.22,11.83,24.45Z"/>
        <path class="cls-3" d="m890.04,1755.63c7.78,5.83,16.64,7.15,22.17-.22s1.78-15.51-6-21.34-16.83-5.09-21.3.87c-4.47,5.95-2.65,14.86,5.13,20.69Z"/>
      </g>
      <g>
        <path class="cls-3" d="m813.91,1630.84c-1.09,15.73-7.32,13.64-8.07,24.41-.75,10.77,5.72,9.55,4.63,25.28-1.09,15.74-21.09,16.02-29.51,5.46-6.81-8.57-10.6-15.16-21.64-15.92-3.15-.22-5.82-1.88-8.03-4.13-7.97-8.15-7.03-21.8,1.99-28.77,2.49-1.93,5.37-3.2,8.52-2.98,11.04.76,15.7-5.25,23.63-12.79,9.8-9.32,29.57-6.28,28.48,9.46Z"/>
        <path class="cls-3" d="m716.73,1653.52c12.36-.86,22.75,3.85,23.57,15.56.8,11.4-8.82,17.83-21.18,18.69-12.36.86-21.53-6.2-22.19-15.66-.66-9.46,7.44-17.73,19.8-18.59Z"/>
        <path class="cls-3" d="m752.21,1682.23c9.35-2.66,18.1-.72,20.62,8.14,2.46,8.63-3.89,15.12-13.24,17.78-9.35,2.66-17.54-1.28-19.58-8.43s2.84-14.82,12.19-17.49Z"/>
        <path class="cls-3" d="m715.75,1645.84c12.12,2.56,23.07-.68,25.49-12.17,2.36-11.18-6.28-18.87-18.4-21.43-12.12-2.56-22.18,3.17-24.14,12.45-1.96,9.28,4.92,18.59,17.04,21.14Z"/>
        <path class="cls-3" d="m753.91,1622.23c8.89,3.93,17.83,3.21,21.55-5.22s-1.77-15.51-10.66-19.44c-8.89-3.93-17.55-1.15-20.55,5.66-3.01,6.81.77,15.07,9.67,19Z"/>
      </g>
      <g>
        <path class="cls-3" d="m702.6,1739.12c-.87,15.74-7.13,13.75-7.72,24.52-.59,10.78,5.85,9.47,4.98,25.21-.87,15.76-20.86,16.32-29.43,5.87-6.93-8.47-10.81-15.01-21.86-15.62-3.16-.17-5.85-1.79-8.09-4.02-8.08-8.04-7.33-21.69,1.59-28.8,2.47-1.96,5.32-3.28,8.48-3.1,11.05.61,15.62-5.47,23.45-13.12,9.67-9.46,29.48-6.7,28.61,9.06Z"/>
        <path class="cls-3" d="m605.75,1763.17c12.34-1.04,22.8,3.53,23.79,15.23.96,11.39-8.57,17.95-20.91,18.99-12.34,1.04-21.61-5.9-22.41-15.34-.79-9.45,7.19-17.83,19.53-18.87Z"/>
        <path class="cls-3" d="m641.63,1791.38c9.31-2.8,18.09-.98,20.74,7.85,2.58,8.59-3.68,15.17-12.99,17.97-9.31,2.8-17.56-1.03-19.7-8.16s2.63-14.86,11.95-17.66Z"/>
        <path class="cls-3" d="m604.66,1755.5c12.15,2.39,23.05-1.01,25.32-12.52,2.2-11.21-6.54-18.78-18.7-21.17s-22.13,3.49-23.96,12.79c-1.83,9.3,5.19,18.51,17.34,20.9Z"/>
        <path class="cls-3" d="m642.48,1731.36c8.95,3.8,17.87,2.96,21.47-5.52,3.51-8.26-1.99-15.49-10.94-19.29-8.95-3.8-17.56-.91-20.47,5.94-2.91,6.85.99,15.06,9.94,18.86Z"/>
      </g>
      <g>
        <path class="cls-3" d="m556.84,1614.42c1.63,15.68-4.87,14.7-3.75,25.43,1.12,10.73,7.27,8.42,8.9,24.11,1.63,15.69-18.03,19.41-28.14,10.45-8.19-7.27-13.05-13.11-24.05-11.97-3.14.33-6.06-.85-8.62-2.69-9.25-6.66-10.67-20.26-2.98-28.69,2.13-2.33,4.74-4.08,7.88-4.4,11.01-1.14,14.56-7.87,21.08-16.66,8.05-10.86,28.05-11.27,29.68,4.42Z"/>
        <path class="cls-3" d="m465,1653.47c12.02-2.97,23.08-.11,25.89,11.28,2.74,11.09-5.63,19.08-17.65,22.05-12.02,2.97-22.27-2.41-24.55-11.61-2.28-9.2,4.28-18.74,16.31-21.72Z"/>
        <path class="cls-3" d="m504.89,1675.65c8.75-4.23,17.71-3.82,21.72,4.47,3.9,8.08-1.23,15.56-9.99,19.79-8.75,4.23-17.5,1.76-20.74-4.94-3.24-6.7.25-15.09,9.01-19.32Z"/>
        <path class="cls-3" d="m462.72,1646.07c12.38.44,22.61-4.63,23.02-16.36.4-11.42-9.43-17.51-21.81-17.95s-21.3,6.94-21.64,16.41c-.33,9.48,8.05,17.46,20.42,17.9Z"/>
        <path class="cls-3" d="m496.25,1616.25c9.44,2.34,18.11.1,20.33-8.84s-4.41-14.98-13.84-17.32c-9.44-2.34-17.49,1.88-19.28,9.1-1.79,7.22,3.35,14.72,12.79,17.06Z"/>
      </g>
      <g>
        <path class="cls-3" d="m459.36,1746.05c-1.46,15.7-7.65,13.47-8.65,24.21-1,10.75,5.49,9.68,4.03,25.38-1.46,15.71-21.47,15.52-29.63,4.75-6.61-8.73-10.24-15.41-21.26-16.43-3.15-.29-5.78-2.01-7.93-4.32-7.77-8.34-6.51-21.96,2.68-28.72,2.54-1.87,5.44-3.07,8.59-2.78,11.02,1.03,15.82-4.88,23.93-12.22,10.02-9.08,29.71-5.58,28.25,10.13Z"/>
        <path class="cls-3" d="m361.66,1766.42c12.37-.57,22.65,4.39,23.19,16.12.52,11.42-9.24,17.61-21.62,18.18-12.37.57-21.37-6.71-21.81-16.18-.44-9.47,7.86-17.55,20.23-18.12Z"/>
        <path class="cls-3" d="m396.45,1795.96c9.41-2.44,18.11-.29,20.42,8.63,2.25,8.68-4.25,15.02-13.66,17.46-9.41,2.44-17.5-1.69-19.37-8.9-1.87-7.2,3.2-14.75,12.61-17.19Z"/>
        <path class="cls-3" d="m360.86,1758.71c12.06,2.85,23.08-.13,25.77-11.55,2.63-11.12-5.83-19.02-17.88-21.86s-22.25,2.65-24.43,11.87c-2.18,9.23,4.48,18.7,16.54,21.54Z"/>
        <path class="cls-3" d="m399.57,1736.02c8.8,4.14,17.75,3.64,21.67-4.7,3.82-8.12-1.4-15.55-10.2-19.69-8.8-4.14-17.52-1.57-20.68,5.16-3.17,6.73.41,15.09,9.21,19.22Z"/>
      </g>
      <g>
        <path class="cls-3" d="m304.22,1621.19c4.46,15.12-2.11,15.34.94,25.69,3.05,10.35,8.69,6.96,13.15,22.08,4.46,15.13-14.19,22.37-25.76,15.4-9.37-5.66-15.22-10.51-25.83-7.38-3.03.89-6.11.27-8.96-1.07-10.31-4.87-14.18-17.98-8.16-27.66,1.67-2.68,3.91-4.87,6.95-5.77,10.61-3.13,12.88-10.39,17.69-20.22,5.94-12.15,25.53-16.19,29.99-1.06Z"/>
        <path class="cls-3" d="m221.03,1676.32c11.28-5.12,22.67-4.32,27.52,6.37,4.72,10.41-2.06,19.78-13.34,24.9-11.28,5.12-22.34,1.69-26.26-6.94-3.92-8.64.79-19.21,12.08-24.33Z"/>
        <path class="cls-3" d="m264.29,1690.87c7.84-5.76,16.71-6.99,22.17.44,5.31,7.23,1.62,15.53-6.21,21.28-7.84,5.76-16.89,4.92-21.29-1.08-4.41-6-2.5-14.88,5.34-20.64Z"/>
        <path class="cls-3" d="m217.43,1669.46c12.25-1.83,21.38-8.68,19.65-20.29-1.68-11.3-12.46-15.5-24.71-13.67s-19.68,10.7-18.28,20.08c1.4,9.38,11.09,15.7,23.34,13.88Z"/>
        <path class="cls-3" d="m244.97,1634.03c9.71.58,17.83-3.2,18.38-12.4.54-8.95-7.06-13.92-16.77-14.5s-16.85,5.03-17.3,12.46c-.45,7.43,5.98,13.86,15.68,14.44Z"/>
      </g>
      <g>
        <path class="cls-3" d="m221.96,1761.64c6.97,14.14.53,15.48,5.3,25.16,4.77,9.68,9.74,5.38,16.71,19.52,6.97,14.16-10.18,24.46-22.77,19.55-10.2-3.98-16.79-7.77-26.71-2.88-2.84,1.4-5.98,1.31-9.02.47-10.99-3.04-17.03-15.31-12.74-25.87,1.19-2.92,3.03-5.47,5.86-6.86,9.93-4.89,10.93-12.43,13.99-22.93,3.78-12.98,22.4-20.3,29.37-6.14Z"/>
        <path class="cls-3" d="m149.35,1830.11c10.25-6.96,21.6-8.11,28.2,1.6,6.42,9.45,1.34,19.84-8.91,26.8-10.25,6.96-21.73,5.46-27.05-2.38-5.33-7.84-2.48-19.07,7.76-26.02Z"/>
        <path class="cls-3" d="m194.46,1837.09c6.74-7,15.28-9.73,21.92-3.34,6.46,6.22,4.24,15.02-2.5,22.03s-15.8,7.72-21.16,2.55c-5.36-5.16-4.99-14.24,1.75-21.25Z"/>
        <path class="cls-3" d="m144.64,1823.96c11.76-3.88,19.6-12.19,15.92-23.33-3.58-10.85-14.92-13.16-26.68-9.27s-17.57,13.89-14.6,22.9c2.97,9,13.6,13.59,25.36,9.71Z"/>
        <path class="cls-3" d="m165.76,1784.37c9.66-1.08,17.02-6.19,16-15.34-.99-8.92-9.33-12.52-18.99-11.44-9.66,1.08-15.75,7.83-14.92,15.22.82,7.4,8.25,12.64,17.91,11.56Z"/>
      </g>
      <g>
        <path class="cls-3" d="m49.96,1683.32c9.19,12.81,3.05,15.18,9.34,23.95,6.29,8.77,10.49,3.71,19.68,16.53,9.19,12.83-6.04,25.79-19.27,23.01-10.71-2.26-17.83-4.92-26.82,1.52-2.57,1.84-5.68,2.27-8.82,1.93-11.34-1.2-19.31-12.32-16.8-23.44.69-3.08,2.09-5.89,4.66-7.73,8.99-6.45,8.75-14.05,10.06-24.91,1.61-13.43,18.78-23.69,27.97-10.86Z"/>
        <path class="cls-3" d="m-10.47,1762.74c8.97-8.54,19.99-11.53,28.08-3.03,7.88,8.28,4.56,19.36-4.41,27.9-8.97,8.54-20.54,8.94-27.08,2.07-6.54-6.87-5.57-18.4,3.41-26.94Z"/>
        <path class="cls-3" d="m35.17,1762.25c5.51-8.01,13.49-12.09,21.08-6.87,7.39,5.08,6.64,14.13,1.13,22.14-5.51,8.01-14.33,10.19-20.46,5.98-6.13-4.22-7.26-13.23-1.75-21.25Z"/>
        <path class="cls-3" d="m-1.77,1714.93c9.36-2.64,15.78-8.89,13.28-17.75-2.44-8.63-11.25-10.83-20.61-8.18-9.36,2.64-14.26,10.3-12.23,17.46,2.02,7.16,10.2,11.12,19.56,8.48Z"/>
      </g>
      <g>
        <path class="cls-3" d="m33.17,1860.08c6.51,14.36.03,15.49,4.49,25.31,4.46,9.83,9.57,5.69,16.08,20.05,6.51,14.37-10.96,24.12-23.38,18.81-10.07-4.31-16.53-8.31-26.61-3.74-2.88,1.31-6.02,1.11-9.03.18-10.89-3.39-16.53-15.85-11.91-26.27,1.28-2.88,3.2-5.37,6.08-6.67,10.08-4.57,11.32-12.08,14.72-22.47,4.2-12.85,23.04-19.57,29.56-5.2Z"/>
        <path class="cls-3" d="m3.27,1934.6c6.97-6.78,15.59-9.23,22.01-2.63,6.26,6.43,3.76,15.15-3.21,21.94-6.97,6.78-16.04,7.2-21.24,1.87-5.19-5.33-4.53-14.39,2.43-21.18Z"/>
      </g>
    </g>
  </g>
</svg>