<?xml version="1.0" encoding="UTF-8"?>
<svg xmlns="http://www.w3.org/2000/svg" viewBox="0 0 3840 2160">
  <defs>
    <style>
      .cls-1 {
        fill: #26b56e;
      }

      .cls-1, .cls-2, .cls-3 {
        stroke-width: 0px;
      }

      .cls-2 {
        fill: #c3e7f1;
      }

      .cls-3 {
        fill: #e63b7a;
      }
    </style>
  </defs>
  <g id="Layer_3" data-name="Layer 3">
    <rect class="cls-3" width="3840" height="2160"/>
    <path class="cls-1" d="m-269.86,1234.6S.87,699.08,477.62,743.24s469.44,348.77,465.07,391.13-138.84,405.62,238.46,608.31,466.07,303.68,466.07,466.07H-269.86v-974.14Z"/>
    <path class="cls-1" d="m2108.1-83.54s-110.27,584.07,544.47,980.92,63.71,798.14,891.26,1310.37h406.71V-83.54h-1842.44Z"/>
  </g>
  <g id="Layer_4" data-name="Layer 4">
    <g>
      <g>
        <path class="cls-2" d="m3779.57,1134.19c.11-26.23-10.48-23.53-10.41-41.49.08-17.95,10.65-15.14,10.77-41.37.11-26.25-33.04-29.16-48.3-12.66-12.35,13.39-19.44,23.86-37.85,23.77-5.26-.02-9.89,2.4-13.82,5.87-14.22,12.56-14.32,35.3-.21,47.98,3.9,3.51,8.51,5.97,13.77,5.99,18.41.08,25.41,10.63,37.64,24.1,15.12,16.66,48.29,14.04,48.41-12.21Z"/>
        <path class="cls-2" d="m3621.1,1084.69c20.4,2.94,38.22-3.61,41.01-22.94,2.71-18.82-12.46-30.65-32.85-33.6-20.4-2.94-36.48,7.66-38.73,23.27-2.25,15.61,10.18,30.32,30.57,33.27Z"/>
        <path class="cls-2" d="m3683.48,1041.38c15.19,5.56,29.94,3.41,35.21-10.98,5.13-14.01-4.6-25.56-19.79-31.12-15.19-5.56-29.26-.02-33.51,11.6-4.26,11.63,2.91,24.94,18.1,30.5Z"/>
        <path class="cls-2" d="m3618.53,1097.31c20.42-2.76,38.19,3.95,40.81,23.3,2.55,18.84-12.72,30.54-33.15,33.31-20.42,2.76-36.41-7.98-38.52-23.61-2.12-15.63,10.44-30.23,30.86-33Z"/>
        <path class="cls-2" d="m3678.95,1141.15c15.24-5.43,29.97-3.15,35.12,11.29,5.01,14.06-4.83,25.52-20.07,30.95-15.24,5.43-29.26-.23-33.41-11.89-4.16-11.66,3.12-24.91,18.36-30.34Z"/>
      </g>
      <g>
        <path class="cls-2" d="m3527.06,940.77c-1.79-26.17-12.16-22.71-13.39-40.62-1.22-17.91,9.53-15.88,7.74-42.04-1.79-26.19-35.07-26.69-49.09-9.12-11.35,14.25-17.66,25.2-36.03,26.46-5.25.36-9.69,3.11-13.36,6.86-13.27,13.55-11.72,36.25,3.27,47.87,4.15,3.21,8.92,5.34,14.17,4.98,18.37-1.25,26.11,8.76,39.29,21.31,16.28,15.52,49.18,10.5,47.4-15.69Z"/>
        <path class="cls-2" d="m3365.42,902.88c20.56,1.46,37.86-6.38,39.24-25.85,1.34-18.96-14.65-29.67-35.2-31.13-20.56-1.46-35.83,10.28-36.94,26.02-1.11,15.73,12.35,29.51,32.9,30.96Z"/>
        <path class="cls-2" d="m3424.49,855.17c15.55,4.45,30.11,1.23,34.32-13.5,4.1-14.35-6.45-25.16-22-29.61-15.55-4.45-29.18,2.1-32.59,14-3.4,11.9,4.71,24.66,20.26,29.11Z"/>
        <path class="cls-2" d="m3363.77,915.66c20.17-4.24,38.37,1.17,42.39,20.28,3.91,18.61-10.48,31.39-30.64,35.62-20.17,4.24-36.89-5.32-40.13-20.75-3.24-15.44,8.22-30.91,28.39-35.15Z"/>
        <path class="cls-2" d="m3427.22,955c14.8-6.52,29.66-5.31,35.84,8.71,6.01,13.66-2.97,25.8-17.77,32.32-14.8,6.52-29.2,1.89-34.19-9.44-4.99-11.33,1.31-25.07,16.11-31.59Z"/>
      </g>
      <g>
        <path class="cls-2" d="m3354.99,1175.65c-11.33-23.66-19.69-16.61-27.45-32.8-7.76-16.19,2.99-18.27-8.34-41.93-11.34-23.68-42.45-11.84-48.99,9.66-5.28,17.43-7.1,29.94-23.7,37.9-4.74,2.27-7.86,6.47-9.88,11.31-7.33,17.5,2.5,38.02,20.73,43.28,5.04,1.45,10.26,1.66,15.01-.61,16.6-7.95,27.5-1.5,44.38,5.29,20.87,8.4,49.58-8.42,38.24-32.09Z"/>
        <path class="cls-2" d="m3190.78,1200.16c19.64-6.24,32.82-19.91,26.91-38.52-5.76-18.12-24.57-22.16-44.21-15.92-19.64,6.24-29.49,22.79-24.71,37.82,4.78,15.03,22.38,22.86,42.02,16.61Z"/>
        <path class="cls-2" d="m3228.05,1134c16.1-1.61,28.44-9.98,26.91-25.23-1.49-14.85-15.29-21-31.38-19.38-16.1,1.61-26.34,12.73-25.11,25.05,1.24,12.32,13.49,21.18,29.58,19.56Z"/>
        <path class="cls-2" d="m3193.97,1212.65c17.17-11.39,36.09-13.09,46.88,3.18,10.51,15.84,1.86,33.04-15.31,44.42-17.17,11.39-36.24,8.69-44.96-4.45-8.72-13.15-3.78-31.76,13.39-43.15Z"/>
        <path class="cls-2" d="m3267.46,1225.76c11.35-11.53,25.6-15.9,36.52-5.15,10.64,10.47,6.78,25.07-4.57,36.6-11.35,11.53-26.43,12.54-35.26,3.86-8.82-8.69-8.05-23.78,3.3-35.31Z"/>
      </g>
      <g>
        <path class="cls-2" d="m3090.78,1042.2c-9.15-24.58-18.11-18.32-24.38-35.15-6.26-16.83,4.62-17.93-4.52-42.51-9.16-24.6-41.2-15.63-49.66,5.2-6.83,16.88-9.77,29.18-27.03,35.6-4.93,1.83-8.41,5.74-10.86,10.37-8.88,16.77-.94,38.09,16.74,44.97,4.89,1.9,10.07,2.58,15,.75,17.25-6.42,27.52.98,43.73,9.27,20.02,10.25,50.14-3.91,40.99-28.51Z"/>
        <path class="cls-2" d="m2925.04,1051.8c20.12-4.44,34.49-16.87,30.27-35.94-4.1-18.56-22.47-24.29-42.59-19.84-20.12,4.44-31.43,20.04-28.03,35.44,3.4,15.4,20.22,24.78,40.35,20.34Z"/>
        <path class="cls-2" d="m2968.12,989.28c16.18-.16,29.22-7.37,29.07-22.7-.14-14.92-13.33-22.29-29.5-22.14-16.18.16-27.38,10.3-27.26,22.68.12,12.38,11.52,22.31,27.7,22.15Z"/>
        <path class="cls-2" d="m2927.09,1064.52c18.13-9.79,37.12-9.78,46.4,7.4,9.03,16.73-1.13,33.07-19.26,42.86-18.13,9.79-36.88,5.38-44.38-8.49-7.5-13.88-.9-31.97,17.23-41.77Z"/>
        <path class="cls-2" d="m2999.1,1084.22c12.34-10.46,26.93-13.52,36.84-1.83,9.65,11.39,4.49,25.58-7.85,36.04-12.34,10.46-27.46,10.11-35.46.66-8-9.45-5.87-24.41,6.47-34.87Z"/>
      </g>
      <g>
        <path class="cls-2" d="m2926.94,1344.06c.14-26.23-10.46-23.54-10.36-41.5.1-17.95,10.67-15.13,10.81-41.36.14-26.25-33.01-29.2-48.29-12.71-12.37,13.37-19.47,23.83-37.88,23.73-5.26-.03-9.89,2.39-13.83,5.86-14.23,12.54-14.36,35.29-.26,47.98,3.9,3.51,8.51,5.98,13.77,6.01,18.41.1,25.39,10.66,37.61,24.15,15.1,16.68,48.28,14.09,48.42-12.16Z"/>
        <path class="cls-2" d="m2768.52,1294.38c20.39,2.96,38.22-3.57,41.03-22.9,2.73-18.81-12.42-30.67-32.82-33.63-20.39-2.96-36.48,7.62-38.75,23.23-2.27,15.61,10.14,30.34,30.54,33.3Z"/>
        <path class="cls-2" d="m2830.94,1251.14c15.18,5.58,29.94,3.45,35.22-10.94,5.15-14.01-4.58-25.57-19.76-31.15-15.18-5.58-29.26-.06-33.53,11.57-4.27,11.62,2.88,24.94,18.06,30.52Z"/>
        <path class="cls-2" d="m2765.94,1307c20.42-2.74,38.18,3.99,40.78,23.34,2.53,18.84-12.76,30.53-33.18,33.27-20.42,2.74-36.4-8.02-38.5-23.65-2.1-15.63,10.47-30.22,30.9-32.96Z"/>
        <path class="cls-2" d="m2826.31,1350.9c15.24-5.41,29.97-3.12,35.1,11.33,4.99,14.06-4.86,25.51-20.1,30.93-15.24,5.41-29.26-.26-33.4-11.93-4.14-11.67,3.15-24.91,18.4-30.32Z"/>
      </g>
      <g>
        <path class="cls-2" d="m2712.66,1092.51c5.49-25.65-5.44-25.18-1.68-42.74,3.76-17.56,13.53-12.64,19.02-38.29,5.49-25.67-26.36-35.31-44.68-22.29-14.83,10.57-23.92,19.37-41.92,15.51-5.14-1.1-10.17.32-14.73,2.91-16.49,9.38-21.25,31.62-10.04,46.92,3.1,4.23,7.11,7.59,12.25,8.69,18,3.85,22.69,15.61,31.9,31.31,11.38,19.4,44.39,23.64,49.88-2.03Z"/>
        <path class="cls-2" d="m2567.7,1011.58c19.36,7.06,38.15,4.29,44.84-14.05,6.51-17.86-5.91-32.56-25.27-39.61-19.36-7.06-37.27.02-42.68,14.84-5.4,14.82,3.75,31.77,23.11,38.83Z"/>
        <path class="cls-2" d="m2637.62,981.98c13.73,8.56,28.61,9.48,36.72-3.53,7.89-12.66.73-25.96-13-34.52-13.73-8.56-28.63-6.02-35.18,4.49-6.55,10.51-2.27,25.01,11.46,33.56Z"/>
        <path class="cls-2" d="m2562.59,1023.41c20.55,1.48,36.57,11.69,35.17,31.17-1.36,18.96-18.71,27.29-39.27,25.81-20.55-1.48-34-15.27-32.87-31,1.13-15.73,16.42-27.45,36.97-25.97Z"/>
        <path class="cls-2" d="m2612.75,1078.7c16.03-2.19,29.98,3.06,32.06,18.24,2.02,14.79-9.95,23.99-25.98,26.18-16.03,2.19-28.59-6.22-30.27-18.49-1.68-12.27,8.16-23.74,24.19-25.94Z"/>
      </g>
      <g>
        <path class="cls-2" d="m2456.46,1258.29c9.2-24.57-1.68-25.71,4.61-42.52,6.3-16.82,15.24-10.51,24.44-35.08,9.2-24.59-20.89-38.8-40.92-28.61-16.23,8.28-26.5,15.64-43.74,9.19-4.93-1.84-10.11-1.18-15,.72-17.69,6.85-25.67,28.15-16.82,44.94,2.45,4.64,5.92,8.55,10.84,10.39,17.24,6.45,20.15,18.78,26.96,35.65,8.41,20.87,40.44,29.9,49.64,5.32Z"/>
        <path class="cls-2" d="m2324.96,1156.94c18.11,9.83,37.11,9.85,46.42-7.31,9.07-16.71-1.06-33.07-19.18-42.9-18.11-9.83-36.87-5.46-44.39,8.41-7.52,13.86-.96,31.97,17.15,41.8Z"/>
        <path class="cls-2" d="m2398.48,1137.93c12.32,10.48,26.9,13.58,36.84,1.9,9.67-11.37,4.54-25.57-7.78-36.05-12.32-10.48-27.44-10.16-35.46-.73-8.02,9.43-5.91,24.4,6.41,34.88Z"/>
        <path class="cls-2" d="m2318.18,1167.89c20.11,4.48,34.45,16.94,30.21,35.99-4.14,18.56-22.52,24.24-42.63,19.76-20.11-4.48-31.39-20.1-27.96-35.49,3.43-15.4,20.27-24.74,40.38-20.26Z"/>
        <path class="cls-2" d="m2359.67,1229.95c16.18.19,29.21,7.43,29.03,22.76-.17,14.92-13.37,22.27-29.55,22.08-16.18-.19-27.36-10.35-27.22-22.74.14-12.38,11.56-22.29,27.74-22.1Z"/>
      </g>
      <g>
        <path class="cls-2" d="m2337.92,970.52c15.56-21.12,5.41-25.19,16.06-39.64,10.65-14.45,17.53-5.95,33.09-27.06,15.57-21.13-9.49-43.03-31.54-38.7-17.87,3.53-29.77,7.8-44.59-3.12-4.23-3.12-9.4-3.9-14.63-3.41-18.89,1.75-32.38,20.07-28.47,38.63,1.08,5.13,3.35,9.84,7.59,12.96,14.82,10.92,14.25,23.57,16.18,41.66,2.38,22.37,30.72,39.82,46.3,18.68Z"/>
        <path class="cls-2" d="m2239.13,837.08c14.74,14.4,33,19.62,46.65,5.66,13.29-13.6,8.02-32.1-6.72-46.51-14.74-14.4-33.97-15.33-45-4.05-11.03,11.28-9.66,30.49,5.07,44.9Z"/>
        <path class="cls-2" d="m2315.04,838.89c8.99,13.45,22.17,20.41,34.91,11.9,12.41-8.29,11.36-23.36,2.37-36.81-8.99-13.45-23.61-17.27-33.91-10.39-10.29,6.88-12.36,21.86-3.37,35.31Z"/>
        <path class="cls-2" d="m2229.61,845.76c18.12,9.81,28.51,25.71,19.22,42.88-9.05,16.72-28.29,17.16-46.41,7.35-18.12-9.81-24.7-27.91-17.19-41.78,7.51-13.87,26.26-18.26,44.38-8.45Z"/>
        <path class="cls-2" d="m2252.56,916.8c15.51,4.6,26.06,15.13,21.7,29.82-4.24,14.31-18.95,17.76-34.46,13.16-15.51-4.6-23.49-17.44-19.97-29.31,3.52-11.87,17.22-18.28,32.72-13.68Z"/>
      </g>
      <g>
        <path class="cls-2" d="m2031.73,984.57c17.65-19.4,7.98-24.5,20.06-37.77,12.08-13.28,18.05-4.11,35.71-23.51,17.67-19.42-5-43.78-27.39-41.75-18.14,1.66-30.41,4.69-44.03-7.7-3.89-3.54-8.95-4.84-14.2-4.9-18.97-.2-34.28,16.62-32.3,35.49.55,5.22,2.32,10.14,6.21,13.68,13.61,12.39,11.74,24.91,11.8,43.11.07,22.5,26.46,42.77,44.12,23.36Z"/>
        <path class="cls-2" d="m1947.22,841.66c13.17,15.85,30.8,22.92,45.82,10.43,14.62-12.15,11.28-31.1-1.89-46.95-13.17-15.85-32.21-18.75-44.34-8.66-12.13,10.08-12.75,29.33.42,45.18Z"/>
        <path class="cls-2" d="m2022.54,851.29c7.55,14.3,19.95,22.59,33.5,15.43,13.2-6.97,13.7-22.06,6.15-36.37-7.55-14.3-21.71-19.62-32.66-13.83-10.95,5.78-14.55,20.47-6.99,34.77Z"/>
        <path class="cls-2" d="m1936.86,849.31c17.01,11.63,25.71,28.51,14.69,44.63-10.73,15.7-29.91,14.16-46.92,2.53-17.01-11.63-21.69-30.31-12.79-43.33,8.9-13.02,28-15.46,45.02-3.83Z"/>
        <path class="cls-2" d="m1952.36,922.34c14.95,6.18,24.36,17.74,18.51,31.9-5.7,13.79-20.68,15.72-35.63,9.54-14.95-6.18-21.57-19.77-16.84-31.21,4.73-11.44,19.01-16.41,33.96-10.23Z"/>
      </g>
      <g>
        <path class="cls-2" d="m1975.04,671.06c15.41-21.22,5.23-25.23,15.78-39.75,10.55-14.53,17.49-6.07,32.9-27.29,15.42-21.24-9.79-42.97-31.81-38.48-17.84,3.65-29.71,8.01-44.61-2.81-4.26-3.09-9.43-3.83-14.65-3.31-18.88,1.89-32.24,20.29-28.19,38.83,1.12,5.13,3.42,9.82,7.68,12.91,14.9,10.82,14.41,23.47,16.48,41.55,2.54,22.35,31,39.6,46.43,18.36Z"/>
        <path class="cls-2" d="m1875.32,538.32c14.84,14.3,33.14,19.39,46.69,5.33,13.19-13.69,7.79-32.16-7.05-46.46-14.84-14.3-34.08-15.09-45.03-3.73-10.95,11.36-9.45,30.56,5.39,44.86Z"/>
        <path class="cls-2" d="m1951.24,539.6c9.08,13.39,22.31,20.26,35,11.65,12.35-8.38,11.19-23.44,2.11-36.82-9.08-13.39-23.73-17.11-33.98-10.16-10.25,6.95-12.21,21.94-3.12,35.33Z"/>
        <path class="cls-2" d="m1865.86,547.06c18.19,9.68,28.69,25.51,19.52,42.74-8.93,16.78-28.17,17.36-46.36,7.68-18.19-9.68-24.9-27.74-17.48-41.66,7.41-13.92,26.13-18.44,44.32-8.76Z"/>
        <path class="cls-2" d="m1889.3,617.94c15.54,4.49,26.17,14.95,21.91,29.67-4.14,14.34-18.82,17.9-34.36,13.4-15.54-4.49-23.61-17.27-20.17-29.17,3.44-11.89,17.09-18.4,32.63-13.91Z"/>
      </g>
      <g>
        <path class="cls-2" d="m1696.14,729.31c10.97-23.83.2-25.76,7.71-42.07,7.51-16.31,15.97-9.37,26.93-33.2,10.98-23.85-18-40.23-38.72-31.52-16.79,7.07-27.58,13.66-44.3,5.97-4.78-2.2-10-1.91-15.02-.38-18.14,5.54-27.66,26.2-20.06,43.59,2.1,4.81,5.28,8.96,10.05,11.16,16.72,7.7,18.72,20.2,24.28,37.53,6.86,21.42,38.14,32.78,49.12,8.93Z"/>
        <path class="cls-2" d="m1572.4,618.62c17.35,11.12,36.29,12.54,46.83-3.9,10.26-16,1.36-33.06-15.99-44.18-17.35-11.12-36.37-8.14-44.89,5.14-8.52,13.28-3.29,31.82,14.05,42.94Z"/>
        <path class="cls-2" d="m1647.11,605.04c11.52,11.35,25.84,15.51,36.6,4.59,10.47-10.63,6.39-25.17-5.13-36.53-11.52-11.35-26.62-12.14-35.31-3.32-8.69,8.82-7.68,23.9,3.84,35.26Z"/>
        <path class="cls-2" d="m1564.83,629.05c19.73,5.94,33.12,19.41,27.49,38.11-5.48,18.2-24.23,22.53-43.96,16.59-19.73-5.94-29.84-22.34-25.29-37.44,4.55-15.1,22.02-23.2,41.76-17.25Z"/>
        <path class="cls-2" d="m1601.68,693.98c16.12,1.37,28.58,9.54,27.29,24.82-1.26,14.87-14.96,21.23-31.08,19.86-16.12-1.37-26.53-12.33-25.49-24.66,1.05-12.34,13.16-21.38,29.28-20.01Z"/>
      </g>
      <g>
        <path class="cls-2" d="m1530.59,448.67c5.76-25.59-5.18-25.24-1.24-42.75,3.94-17.52,13.66-12.5,19.42-38.09,5.76-25.61-25.99-35.59-44.45-22.75-14.94,10.41-24.12,19.11-42.08,15.07-5.13-1.15-10.18.22-14.76,2.76-16.59,9.2-21.58,31.4-10.53,46.81,3.06,4.26,7.03,7.66,12.16,8.82,17.96,4.04,22.52,15.85,31.57,31.64,11.18,19.52,44.14,24.1,49.9-1.51Z"/>
        <path class="cls-2" d="m1386.49,366.23c19.29,7.26,38.1,4.69,44.98-13.58,6.7-17.79-5.57-32.62-24.85-39.88-19.29-7.26-37.27-.37-42.83,14.39-5.56,14.76,3.41,31.8,22.7,39.07Z"/>
        <path class="cls-2" d="m1456.72,337.36c13.64,8.7,28.51,9.78,36.75-3.15,8.03-12.58,1-25.95-12.63-34.65-13.64-8.7-28.57-6.32-35.23,4.12-6.66,10.44-2.53,24.98,11.11,33.68Z"/>
        <path class="cls-2" d="m1381.26,378c20.54,1.69,36.44,12.07,34.84,31.53-1.56,18.95-19,27.09-39.54,25.39-20.54-1.69-33.84-15.62-32.54-31.34,1.3-15.72,16.7-27.28,37.24-25.58Z"/>
        <path class="cls-2" d="m1430.84,433.81c16.05-2.02,29.95,3.37,31.86,18.58,1.87,14.81-10.21,23.88-26.26,25.91-16.05,2.02-28.52-6.52-30.07-18.81-1.55-12.28,8.41-23.66,24.46-25.68Z"/>
      </g>
      <g>
        <path class="cls-2" d="m1311.2,601.02c5.12-25.73-5.8-25.1-2.29-42.71,3.5-17.61,13.35-12.83,18.47-38.56,5.12-25.75-26.86-34.93-45-21.64-14.68,10.78-23.64,19.7-41.69,16.11-5.16-1.03-10.17.47-14.69,3.13-16.36,9.61-20.8,31.92-9.37,47.06,3.16,4.19,7.22,7.49,12.38,8.51,18.05,3.59,22.91,15.29,32.35,30.85,11.66,19.24,44.73,23,49.85-2.75Z"/>
        <path class="cls-2" d="m1165.09,522.17c19.46,6.78,38.21,3.75,44.63-14.69,6.26-17.95-6.38-32.47-25.84-39.25-19.46-6.78-37.27.55-42.46,15.45-5.19,14.89,4.2,31.71,23.66,38.49Z"/>
        <path class="cls-2" d="m1234.59,491.58c13.85,8.36,28.74,9.07,36.66-4.06,7.71-12.78.36-25.97-13.49-34.33-13.85-8.36-28.71-5.61-35.11,4.99-6.4,10.6-1.91,25.04,11.94,33.4Z"/>
        <path class="cls-2" d="m1160.16,534.07c20.57,1.19,36.73,11.17,35.61,30.66-1.09,18.98-18.32,27.55-38.89,26.37-20.57-1.19-34.22-14.78-33.31-30.53.91-15.75,16.02-27.68,36.59-26.5Z"/>
        <path class="cls-2" d="m1211.11,588.64c15.99-2.42,30.02,2.63,32.31,17.78,2.23,14.76-9.61,24.13-25.61,26.55-15.99,2.42-28.67-5.81-30.53-18.05-1.85-12.24,7.82-23.86,23.82-26.28Z"/>
      </g>
      <g>
        <path class="cls-2" d="m1113.02,345.73c.98-26.21-9.7-23.87-9.03-41.81.67-17.94,11.15-14.78,12.13-40.99.98-26.23-32.06-30.24-47.85-14.25-12.79,12.97-20.22,23.2-38.62,22.51-5.26-.2-9.97,2.07-14.01,5.41-14.63,12.08-15.48,34.81-1.8,47.95,3.78,3.63,8.31,6.25,13.57,6.45,18.4.69,25.04,11.47,36.82,25.34,14.56,17.15,47.8,15.63,48.79-10.6Z"/>
        <path class="cls-2" d="m956.27,291.01c20.29,3.62,38.32-2.35,41.75-21.57,3.34-18.72-11.44-31.05-31.72-34.66-20.29-3.62-36.71,6.45-39.48,21.97-2.77,15.53,9.17,30.64,29.46,34.26Z"/>
        <path class="cls-2" d="m1020.05,249.79c15,6.06,29.81,4.4,35.56-9.81,5.59-13.84-3.76-25.7-18.75-31.76-15-6.06-29.24-.99-33.88,10.49-4.64,11.48,2.08,25.02,17.08,31.08Z"/>
        <path class="cls-2" d="m953.29,303.54c20.5-2.09,38.04,5.21,40.01,24.64,1.92,18.91-13.73,30.11-34.23,32.19-20.5,2.09-36.12-9.18-37.72-24.87-1.6-15.69,11.44-29.87,31.94-31.96Z"/>
        <path class="cls-2" d="m1012.23,349.35c15.41-4.92,30.06-2.16,34.72,12.44,4.54,14.22-5.67,25.35-21.08,30.27-15.41,4.92-29.23-1.2-33-12.99-3.77-11.79,3.95-24.8,19.36-29.72Z"/>
      </g>
      <g>
        <path class="cls-2" d="m894.13,541.02c5.96-25.55-4.98-25.28-.9-42.76,4.08-17.49,13.76-12.39,19.72-37.93,5.96-25.57-25.71-35.79-44.27-23.1-15.02,10.3-24.27,18.92-42.2,14.74-5.12-1.19-10.18.14-14.79,2.64-16.66,9.07-21.83,31.23-10.9,46.73,3.02,4.29,6.97,7.72,12.09,8.91,17.93,4.18,22.4,16.03,31.32,31.89,11.02,19.61,43.95,24.45,49.91-1.12Z"/>
        <path class="cls-2" d="m750.68,457.44c19.23,7.41,38.06,4.99,45.09-13.23,6.84-17.74-5.31-32.66-24.54-40.07-19.23-7.41-37.27-.66-42.94,14.05-5.67,14.72,3.16,31.83,22.39,39.24Z"/>
        <path class="cls-2" d="m821.13,429.13c13.57,8.81,28.43,10,36.77-2.86,8.13-12.52,1.21-25.94-12.36-34.75-13.57-8.81-28.52-6.54-35.26,3.84-6.74,10.39-2.72,24.96,10.85,33.77Z"/>
        <path class="cls-2" d="m745.36,469.18c20.52,1.86,36.35,12.36,34.59,31.8-1.71,18.93-19.21,26.94-39.73,25.08-20.52-1.86-33.72-15.89-32.3-31.6,1.42-15.71,16.92-27.15,37.44-25.29Z"/>
        <path class="cls-2" d="m794.5,525.38c16.06-1.9,29.92,3.61,31.72,18.83,1.75,14.82-10.39,23.8-26.46,25.7-16.06,1.9-28.47-6.74-29.92-19.04-1.45-12.3,8.6-23.59,24.66-25.49Z"/>
      </g>
      <g>
        <path class="cls-2" d="m695.65,287.28c-3.2-26.03-13.38-22.02-15.57-39.84-2.19-17.82,8.65-16.37,5.45-42.4-3.21-26.06-36.46-24.75-49.51-6.45-10.56,14.84-16.27,26.12-34.54,28.37-5.22.64-9.51,3.63-12.97,7.57-12.52,14.25-9.74,36.83,5.86,47.63,4.31,2.99,9.2,4.85,14.42,4.2,18.27-2.25,26.55,7.34,40.39,19.15,17.1,14.61,49.68,7.82,46.48-18.23Z"/>
        <path class="cls-2" d="m532.19,258.21c20.6.34,37.46-8.42,37.78-27.94.31-19.01-16.23-28.83-36.84-29.17-20.6-.34-35.22,12.21-35.48,27.98-.26,15.77,13.93,28.79,34.53,29.13Z"/>
        <path class="cls-2" d="m588.59,207.37c15.77,3.6,30.13-.4,33.54-15.34,3.32-14.55-7.8-24.77-23.57-28.37-15.77-3.6-29.03,3.67-31.78,15.75-2.75,12.07,6.04,24.37,21.81,27.97Z"/>
        <path class="cls-2" d="m531.24,271.06c19.91-5.32,38.38-.91,43.42,17.95,4.91,18.37-8.76,31.91-28.67,37.23-19.91,5.32-37.12-3.31-41.2-18.55-4.07-15.24,6.54-31.31,26.44-36.64Z"/>
        <path class="cls-2" d="m596.72,306.9c14.43-7.31,29.33-6.91,36.26,6.76,6.75,13.31-1.56,25.93-15.99,33.24-14.43,7.31-29.05,3.47-34.65-7.58-5.6-11.04-.05-25.11,14.38-32.42Z"/>
      </g>
      <g>
        <path class="cls-2" d="m530.63,500.33c-7.14-25.24-16.58-19.72-21.46-37-4.88-17.28,6.06-17.5-1.08-42.74-7.14-25.26-39.81-18.9-49.92,1.18-8.17,16.28-12.1,28.3-29.81,33.31-5.06,1.43-8.84,5.04-11.66,9.46-10.2,16-4.01,37.89,13.05,46.17,4.72,2.29,9.83,3.39,14.89,1.95,17.71-5.01,27.35,3.2,42.84,12.77,19.13,11.84,50.29.15,43.15-25.11Z"/>
        <path class="cls-2" d="m364.65,496.53c20.42-2.81,35.73-14.03,33.08-33.38-2.59-18.83-20.44-26.02-40.86-23.21-20.42,2.81-32.94,17.44-30.79,33.06,2.15,15.63,18.16,26.33,38.57,23.53Z"/>
        <path class="cls-2" d="m412.63,437.68c16.14,1.15,29.72-4.99,30.81-20.28,1.06-14.89-11.49-23.29-27.62-24.44-16.14-1.15-28.13,8.06-29.01,20.41-.88,12.35,9.68,23.17,25.82,24.32Z"/>
        <path class="cls-2" d="m365.66,509.37c18.86-8.3,37.79-6.75,45.65,11.12,7.66,17.4-3.79,32.87-22.65,41.17-18.86,8.3-37.19,2.39-43.55-12.05-6.35-14.44,1.68-31.94,20.55-40.24Z"/>
        <path class="cls-2" d="m435.85,534.81c13.14-9.43,27.93-11.31,36.87,1.15,8.7,12.13,2.41,25.86-10.74,35.29-13.14,9.43-28.18,7.86-35.4-2.2-7.22-10.06-3.88-24.81,9.27-34.23Z"/>
      </g>
      <g>
        <path class="cls-2" d="m275.75,310.53c-12.13-23.25-20.25-15.92-28.56-31.84-8.31-15.92,2.36-18.36-9.77-41.62-12.14-23.27-42.83-10.38-48.63,11.34-4.68,17.6-6.07,30.17-22.39,38.69-4.66,2.43-7.63,6.74-9.49,11.64-6.72,17.74,3.8,37.91,22.2,42.54,5.09,1.28,10.32,1.31,14.98-1.12,16.32-8.52,27.43-2.45,44.54,3.76,21.14,7.68,49.27-10.11,37.12-33.38Z"/>
        <path class="cls-2" d="m112.48,340.66c19.41-6.91,32.12-21.03,25.57-39.42-6.38-17.91-25.32-21.3-44.73-14.39-19.41,6.91-28.69,23.79-23.4,38.65,5.29,14.86,23.15,22.08,42.56,15.16Z"/>
        <path class="cls-2" d="m147.46,273.26c16.03-2.17,28.08-10.95,26.02-26.14-2-14.79-16-20.46-32.03-18.3-16.03,2.17-25.89,13.63-24.23,25.9,1.66,12.27,14.2,20.7,30.24,18.54Z"/>
        <path class="cls-2" d="m116.1,353.02c16.77-11.97,35.62-14.32,46.96,1.57,11.04,15.48,2.99,32.95-13.78,44.92-16.77,11.97-35.93,9.93-45.09-2.91-9.16-12.84-4.87-31.61,11.91-43.58Z"/>
        <path class="cls-2" d="m190,363.61c10.95-11.91,25.04-16.77,36.33-6.4,10.99,10.1,7.63,24.83-3.31,36.74-10.95,11.91-25.99,13.44-35.1,5.06-9.12-8.38-8.86-23.49,2.09-35.4Z"/>
      </g>
      <g>
        <path class="cls-2" d="m178.41,615.5c-5.19-25.71-15.03-20.93-18.58-38.52-3.55-17.6,7.37-16.98,2.18-42.7-5.2-25.73-38.25-21.88-49.86-2.63-9.39,15.61-14.22,27.29-32.26,30.94-5.16,1.04-9.2,4.35-12.35,8.55-11.39,15.17-6.88,37.47,9.5,47.03,4.53,2.64,9.54,4.12,14.7,3.08,18.04-3.64,27.03,5.28,41.74,15.99,18.17,13.26,50.14,3.98,44.94-21.75Z"/>
        <path class="cls-2" d="m13.2,599.07c20.57-1.24,36.7-11.27,35.52-30.76-1.15-18.98-18.4-27.5-38.97-26.26-20.57,1.24-34.17,14.88-33.22,30.62.95,15.74,16.1,27.64,36.67,26.4Z"/>
        <path class="cls-2" d="m65.53,544.04c16,2.38,30.01-2.71,32.26-17.88,2.19-14.76-9.68-24.1-25.68-26.48-16-2.38-28.66,5.89-30.48,18.14-1.82,12.25,7.89,23.84,23.89,26.21Z"/>
        <path class="cls-2" d="m13.24,611.95c19.44-6.84,38.2-3.86,44.68,14.56,6.31,17.93-6.28,32.49-25.72,39.32-19.44,6.84-37.27-.45-42.5-15.33-5.23-14.88,4.11-31.72,23.55-38.56Z"/>
        <path class="cls-2" d="m81.28,642.66c13.82-8.4,28.71-9.15,36.67,3.95,7.75,12.75.43,25.97-13.39,34.37-13.82,8.4-28.7,5.69-35.13-4.89-6.43-10.58-1.98-25.03,11.85-33.43Z"/>
      </g>
      <g>
        <path class="cls-2" d="m3839.28,848.24c20.57-1.24,36.7-11.27,35.52-30.76-1.15-18.98-18.4-27.5-38.97-26.26-20.57,1.24-34.17,14.88-33.22,30.62.95,15.74,16.1,27.64,36.67,26.4Z"/>
        <path class="cls-2" d="m3839.32,861.12c19.44-6.84,38.2-3.86,44.68,14.56,6.31,17.93-6.28,32.49-25.72,39.32-19.44,6.84-37.27-.45-42.5-15.33-5.23-14.88,4.11-31.72,23.55-38.56Z"/>
      </g>
    </g>
  </g>
</svg>