<?xml version="1.0" encoding="utf-8"?>
<!-- Generator: Adobe Illustrator 27.8.0, SVG Export Plug-In . SVG Version: 6.00 Build 0)  -->
<svg version="1.1" id="Layer_2_00000152224269041731605990000013264951117655104688_"
	 xmlns="http://www.w3.org/2000/svg" xmlns:xlink="http://www.w3.org/1999/xlink" x="0px" y="0px" viewBox="0 0 4318.4 1553.4"
	 style="enable-background:new 0 0 4318.4 1553.4;" xml:space="preserve">
<style type="text/css">
	.st0{fill:#E63B7A;}
</style>
<g>
	<path class="st0" d="M2310.1,962.3c-2.7-11.8,2.4-11.7,0.6-19.8s-6.3-5.8-9-17.6s12-16.5,20.6-10.5c6.9,4.8,11.2,8.8,19.5,7
		c2.4-0.5,4.7,0.1,6.8,1.3c7.7,4.3,10,14.5,4.9,21.7c-1.4,2-3.2,3.6-5.6,4.1c-8.3,1.9-10.4,7.3-14.6,14.6
		C2328,972.1,2312.7,974.2,2310.1,962.3L2310.1,962.3z"/>
	<path class="st0" d="M2376.8,924.2c-8.9,3.4-17.6,2.2-20.8-6.3c-3.1-8.2,2.6-15.1,11.5-18.4s17.2-0.2,19.8,6.7
		C2389.8,912.9,2385.7,920.8,2376.8,924.2z"/>
	<path class="st0" d="M2344.3,910.8c-6.3,4-13.2,4.5-17-1.5c-3.7-5.8-0.5-12,5.9-16s13.2-2.9,16.3,1.9S2350.6,906.8,2344.3,910.8
		L2344.3,910.8z"/>
	<path class="st0" d="M2379.2,929.6c-9.5,0.8-16.9,5.6-16.1,14.6c0.7,8.8,8.8,12.5,18.3,11.8s15.7-7.2,15.1-14.5
		C2395.8,934.2,2388.7,928.9,2379.2,929.6L2379.2,929.6z"/>
	<path class="st0" d="M2356.2,955.5c-7.4-0.9-13.9,1.6-14.8,8.6c-0.9,6.8,4.7,11.1,12.1,12s13.2-3,13.9-8.7
		S2363.7,956.4,2356.2,955.5L2356.2,955.5z"/>
</g>
<g>
	<path class="st0" d="M2379.2,853.7c-4.7-11.2,0.3-11.9-2.9-19.6s-7.2-4.6-11.9-15.8c-4.7-11.2,8.9-18.3,18.4-14
		c7.6,3.5,12.5,6.8,20.4,3.4c2.2-0.9,4.6-0.7,6.9,0.1c8.3,2.8,12.4,12.6,8.6,20.5c-1.1,2.2-2.6,4.1-4.8,5c-7.9,3.3-9,9.1-11.8,17
		C2398.6,860.2,2383.9,864.9,2379.2,853.7L2379.2,853.7z"/>
	<path class="st0" d="M2438.2,804.4c-8.2,4.9-17,5.2-21.6-2.5c-4.5-7.6-0.1-15.3,8.1-20.2c8.2-4.9,16.9-3.2,20.7,3.1
		C2449.1,791.1,2446.4,799.6,2438.2,804.4L2438.2,804.4z"/>
	<path class="st0" d="M2403.8,797c-5.5,5.1-12.2,6.8-17,1.6c-4.7-5.1-2.6-11.7,2.9-16.8s12.5-5.2,16.4-1
		C2410,785,2409.3,791.9,2403.8,797L2403.8,797z"/>
	<path class="st0" d="M2441.5,809.4c-9.2,2.4-15.6,8.5-13.3,17.2c2.2,8.5,10.9,10.8,20.1,8.4c9.2-2.4,14.1-9.9,12.3-16.9
		C2458.7,811,2450.7,807,2441.5,809.4L2441.5,809.4z"/>
	<path class="st0" d="M2423.5,838.8c-7.5,0.4-13.4,4-13,11.1s6.6,10.1,14.1,9.7s12.5-5.3,12.2-11S2430.9,838.5,2423.5,838.8
		L2423.5,838.8z"/>
</g>
<g>
	<path class="st0" d="M2514,922.8c-6.7-10.1-1.9-11.8-6.5-18.7c-4.6-6.9-8-3.2-14.6-13.3c-6.7-10.1,5.4-19.7,15.5-17.1
		c8.2,2.1,13.6,4.3,20.7-0.4c2-1.3,4.4-1.6,6.8-1.2c8.7,1.3,14.5,10.1,12.2,18.5c-0.6,2.3-1.8,4.5-3.8,5.8
		c-7.1,4.7-7.1,10.6-8.5,18.9C2534.2,925.5,2520.7,932.9,2514,922.8L2514,922.8z"/>
	<path class="st0" d="M2562.8,863.5c-7.1,6.3-15.7,8.3-21.7,1.5c-5.8-6.6-2.9-15,4.2-21.3s16.1-6.3,20.9-0.8
		C2571.1,848.3,2570,857.2,2562.8,863.5L2562.8,863.5z"/>
	<path class="st0" d="M2527.7,862.5c-4.5,6-10.7,8.9-16.4,4.7c-5.5-4.1-4.7-11.1-0.2-17.1s11.3-7.4,15.9-4
		S2532.2,856.5,2527.7,862.5L2527.7,862.5z"/>
	<path class="st0" d="M2567,867.7c-8.6,4.1-13.8,11.2-9.9,19.4c3.8,7.9,12.7,8.6,21.3,4.5c8.6-4.1,12.1-12.3,8.9-18.9
		C2584.2,866.1,2575.6,863.6,2567,867.7L2567,867.7z"/>
	<path class="st0" d="M2554.7,900c-7.3,1.8-12.4,6.4-10.7,13.3s8.3,8.7,15.6,6.9c7.3-1.8,11.3-7.5,9.9-13.1S2562,898.2,2554.7,900
		L2554.7,900z"/>
</g>
<g>
	<path class="st0" d="M2533.1,781.7c-4-11.4,1-11.9-1.7-19.7c-2.8-7.8-7-5-11-16.5c-4-11.5,10-17.8,19.2-12.9
		c7.4,4,12.1,7.5,20.2,4.7c2.3-0.8,4.7-0.4,6.9,0.5c8.1,3.3,11.6,13.3,7.4,20.9c-1.2,2.1-2.8,3.9-5.1,4.7c-8,2.8-9.5,8.5-12.8,16.2
		C2552.1,789.2,2537.2,793.1,2533.1,781.7L2533.1,781.7z"/>
	<path class="st0" d="M2594.9,736c-8.5,4.4-17.3,4.2-21.4-3.8c-4-7.8,0.8-15.3,9.3-19.7s17.1-2.2,20.5,4.3
		C2606.6,723.3,2603.4,731.6,2594.9,736z"/>
	<path class="st0" d="M2561.1,726.5c-5.8,4.7-12.6,6-17.1,0.5c-4.4-5.3-1.9-11.9,3.9-16.6c5.8-4.7,12.8-4.4,16.4,0
		S2566.9,721.8,2561.1,726.5L2561.1,726.5z"/>
	<path class="st0" d="M2598,741.1c-9.4,1.9-16.1,7.5-14.3,16.4c1.7,8.6,10.2,11.4,19.6,9.5s14.7-9,13.3-16.2
		S2607.3,739.2,2598,741.1z"/>
	<path class="st0" d="M2578.2,769.4c-7.5-0.1-13.6,3.2-13.6,10.3c-0.1,6.9,6,10.4,13.5,10.5c7.5,0.1,12.8-4.5,12.8-10.3
		S2585.7,769.5,2578.2,769.4L2578.2,769.4z"/>
</g>
<g>
	<path class="st0" d="M2643.2,850.4c-2.2-11.9,2.8-11.6,1.3-19.8c-1.5-8.2-6.1-6-8.4-17.9c-2.2-11.9,12.6-16,20.9-9.8
		c6.7,5.1,10.8,9.2,19.2,7.7c2.4-0.4,4.7,0.3,6.8,1.5c7.5,4.5,9.5,14.9,4.1,21.8c-1.5,1.9-3.4,3.4-5.8,3.9
		c-8.4,1.6-10.7,7-15.1,14.1C2660.8,860.7,2645.4,862.3,2643.2,850.4z"/>
	<path class="st0" d="M2711.2,814.6c-9,3-17.7,1.5-20.6-7c-2.8-8.3,3.1-15,12.2-18s17.2,0.4,19.6,7.4
		C2724.7,803.9,2720.3,811.6,2711.2,814.6L2711.2,814.6z"/>
	<path class="st0" d="M2679.2,800.1c-6.4,3.8-13.4,4.1-16.9-2.1c-3.5-5.9,0-12,6.4-15.8s13.3-2.4,16.2,2.5
		C2687.8,789.6,2685.7,796.3,2679.2,800.1L2679.2,800.1z"/>
	<path class="st0" d="M2713.4,820.2c-9.5,0.4-17.1,5-16.6,14c0.4,8.8,8.3,12.8,17.9,12.4s15.9-6.7,15.6-13.9
		C2729.9,825.3,2723,819.7,2713.4,820.2L2713.4,820.2z"/>
	<path class="st0" d="M2689.6,845.1c-7.4-1.2-13.9,1.1-15.1,8.1c-1.1,6.8,4.3,11.2,11.7,12.4c7.4,1.2,13.3-2.5,14.2-8.2
		C2701.4,851.8,2697,846.3,2689.6,845.1L2689.6,845.1z"/>
</g>
<g>
	<path class="st0" d="M2190.8,860c1.4-12.1,6.1-10.2,7.1-18.5c0.9-8.3-4.1-7.5-2.7-19.6c1.4-12.1,16.8-11.6,22.9-3.2
		c4.9,6.8,7.6,12,16.1,13c2.4,0.3,4.4,1.6,6,3.4c5.9,6.6,4.7,17-2.5,22.1c-2,1.4-4.2,2.3-6.7,2c-8.5-1-12.3,3.5-18.6,9
		C2204.5,875.1,2189.4,872.1,2190.8,860L2190.8,860z"/>
	<path class="st0" d="M2266.3,845.9c-9.5,0.2-17.4-3.8-17.6-12.8c-0.2-8.8,7.4-13.4,16.9-13.7s16.4,5.5,16.5,12.8
		S2275.9,845.6,2266.3,845.9L2266.3,845.9z"/>
	<path class="st0" d="M2240,822.6c-7.3,1.7-13.9-0.1-15.6-7c-1.6-6.7,3.5-11.5,10.8-13.2c7.3-1.7,13.4,1.6,14.8,7.2
		C2251.3,815.1,2247.3,820.8,2240,822.6L2240,822.6z"/>
	<path class="st0" d="M2266.8,851.8c-9.2-2.4-17.8-0.3-20,8.5c-2.2,8.5,4.2,14.7,13.4,17.1c9.2,2.4,17.2-1.7,19-8.8
		S2276.1,854.2,2266.8,851.8z"/>
	<path class="st0" d="M2236.7,868.7c-6.7-3.3-13.6-3.1-16.8,3.3c-3.1,6.2,0.8,12,7.5,15.3c6.7,3.3,13.5,1.5,16-3.6
		S2243.4,872,2236.7,868.7L2236.7,868.7z"/>
</g>
<g>
	<path class="st0" d="M2108.4,962.2c-0.8-12.1,4.1-11.2,3.6-19.5c-0.6-8.3-5.4-6.7-6.2-18.8c-0.8-12.1,14.4-14.4,21.9-7.3
		c6.1,5.8,9.7,10.4,18.2,9.9c2.4-0.2,4.6,0.8,6.6,2.3c6.9,5.4,7.7,15.9,1.5,22.2c-1.7,1.7-3.8,3-6.2,3.2
		c-8.5,0.6-11.4,5.7-16.7,12.2C2124.7,974.5,2109.3,974.3,2108.4,962.2L2108.4,962.2z"/>
	<path class="st0" d="M2180.2,934.6c-9.3,2-17.8-0.5-19.6-9.4c-1.8-8.6,4.9-14.5,14.2-16.5c9.3-2,17.1,2.5,18.6,9.6
		C2194.8,925.5,2189.5,932.7,2180.2,934.6z"/>
	<path class="st0" d="M2150.1,916.5c-6.9,3-13.7,2.5-16.6-4c-2.8-6.3,1.4-11.9,8.2-15c6.9-3,13.5-0.9,15.8,4.4
		S2156.9,913.5,2150.1,916.5L2150.1,916.5z"/>
	<path class="st0" d="M2181.7,940.4c-9.5-0.7-17.5,2.9-18.2,12c-0.6,8.8,6.8,13.7,16.3,14.4s16.6-4.8,17.1-12
		S2191.2,941,2181.7,940.4L2181.7,940.4z"/>
	<path class="st0" d="M2155.1,962.4c-7.2-2.1-13.9-0.6-15.9,6.2s3,11.6,10.2,13.7c7.2,2.1,13.5-1,15.1-6.5
		S2162.3,964.5,2155.1,962.4L2155.1,962.4z"/>
</g>
<g>
	<path class="st0" d="M1903.3,939.8c1.3-12.1,6-10.3,6.9-18.6c0.9-8.3-4.1-7.5-2.8-19.6c1.3-12.1,16.7-11.7,22.9-3.3
		c5,6.8,7.7,12,16.2,12.9c2.4,0.3,4.4,1.6,6.1,3.4c5.9,6.5,4.8,17-2.4,22.1c-2,1.4-4.2,2.3-6.6,2.1c-8.5-0.9-12.2,3.6-18.6,9.2
		C1917.1,954.8,1902,951.9,1903.3,939.8L1903.3,939.8z"/>
	<path class="st0" d="M1978.7,925.2c-9.5,0.3-17.4-3.6-17.7-12.7c-0.3-8.8,7.3-13.5,16.8-13.8s16.4,5.4,16.6,12.7
		C1994.7,918.7,1988.3,924.9,1978.7,925.2L1978.7,925.2z"/>
	<path class="st0" d="M1952.3,902c-7.3,1.8-13.9,0-15.6-6.9c-1.6-6.7,3.4-11.5,10.7-13.3c7.3-1.8,13.5,1.5,14.8,7.1
		S1959.6,900.2,1952.3,902L1952.3,902z"/>
	<path class="st0" d="M1979.3,931.1c-9.2-2.3-17.8-0.2-20,8.6c-2.1,8.5,4.3,14.7,13.5,17c9.2,2.3,17.2-1.8,18.9-8.9
		S1988.5,933.4,1979.3,931.1z"/>
	<path class="st0" d="M1949.2,948.1c-6.7-3.3-13.6-3-16.7,3.4s0.9,12,7.6,15.3c6.7,3.3,13.5,1.4,16-3.8S1955.9,951.4,1949.2,948.1z"
		/>
</g>
<g>
	<path class="st0" d="M1996,855.7c1.3-12.1,6-10.3,6.9-18.6c0.9-8.3-4.1-7.5-2.8-19.6c1.3-12.1,16.7-11.7,22.9-3.3
		c5,6.8,7.7,12,16.2,12.9c2.4,0.3,4.4,1.6,6.1,3.4c5.9,6.5,4.8,17-2.4,22.1c-2,1.4-4.2,2.3-6.6,2.1c-8.5-0.9-12.2,3.6-18.6,9.2
		C2009.9,870.7,1994.7,867.8,1996,855.7L1996,855.7z"/>
	<path class="st0" d="M2071.5,841.1c-9.5,0.3-17.4-3.6-17.7-12.7c-0.3-8.8,7.3-13.5,16.8-13.8s16.4,5.4,16.6,12.7
		C2087.5,834.7,2081,840.8,2071.5,841.1L2071.5,841.1z"/>
	<path class="st0" d="M2045,818c-7.3,1.8-13.9,0-15.6-6.9c-1.6-6.7,3.4-11.5,10.7-13.3c7.3-1.8,13.5,1.5,14.8,7.1
		S2052.3,816.2,2045,818L2045,818z"/>
	<path class="st0" d="M2072,847c-9.2-2.3-17.8-0.2-20,8.6c-2.1,8.5,4.3,14.7,13.5,17c9.2,2.3,17.2-1.8,18.9-8.9
		S2081.2,849.4,2072,847z"/>
	<path class="st0" d="M2041.9,864.1c-6.7-3.3-13.6-3-16.7,3.4s0.9,12,7.6,15.3c6.7,3.3,13.5,1.4,16-3.8
		C2051.3,873.8,2048.7,867.4,2041.9,864.1z"/>
</g>
<g>
	<path class="st0" d="M1802.6,818.9c3.7-11.6,8-8.8,10.6-16.8s-2.5-8.2,1.2-19.8s18.7-8.1,23.1,1.4c3.5,7.7,5.1,13.3,13.2,15.9
		c2.3,0.8,4,2.5,5.2,4.6c4.4,7.6,1.2,17.6-6.8,21.1c-2.2,1-4.6,1.4-6.9,0.7c-8.1-2.6-12.7,1-20,5.2
		C1813,836.4,1798.8,830.4,1802.6,818.9L1802.6,818.9z"/>
	<path class="st0" d="M1879.4,819.9c-9.4-1.6-16.3-7.1-14.7-16c1.5-8.7,9.9-11.7,19.3-10.1c9.4,1.6,14.9,8.6,13.7,15.8
		C1896.4,816.9,1888.8,821.5,1879.4,819.9z"/>
	<path class="st0" d="M1858.2,791.9c-7.5,0.3-13.7-2.8-13.9-9.9c-0.2-6.9,5.7-10.6,13.2-10.8s12.9,4.2,13.1,9.9
		C1870.7,786.8,1865.7,791.6,1858.2,791.9L1858.2,791.9z"/>
	<path class="st0" d="M1878.7,825.8c-8.6-4.2-17.4-3.8-21.3,4.4c-3.8,7.9,1.2,15.3,9.8,19.4c8.6,4.2,17.2,1.7,20.3-4.8
		S1887.3,830,1878.7,825.8L1878.7,825.8z"/>
	<path class="st0" d="M1845.8,836.4c-5.9-4.6-12.7-5.7-17.1-0.1c-4.2,5.5-1.6,11.9,4.4,16.5s12.9,4.1,16.4-0.4
		S1851.7,841,1845.8,836.4L1845.8,836.4z"/>
</g>
<g>
	<path class="st0" d="M1671.2,858.8c6-10.6,9.6-7.1,13.7-14.3c4.1-7.2-0.8-8.5,5.2-19.1c6-10.6,20-4.2,22.3,6
		c1.9,8.2,2.3,14.1,9.8,18.2c2.1,1.2,3.4,3.2,4.2,5.5c2.8,8.3-2.3,17.5-10.9,19.3c-2.4,0.5-4.8,0.4-6.9-0.8
		c-7.4-4.2-12.7-1.6-20.7,1.1C1678,878,1665.2,869.4,1671.2,858.8L1671.2,858.8z"/>
	<path class="st0" d="M1746.3,875.2c-8.9-3.5-14.5-10.2-11.2-18.6c3.2-8.2,12-9.5,20.9-6c8.9,3.5,12.9,11.4,10.2,18.2
		C1763.5,875.6,1755.1,878.7,1746.3,875.2z"/>
	<path class="st0" d="M1731.1,843.5c-7.4-1.2-12.8-5.5-11.6-12.5c1.2-6.8,7.7-9.2,15.1-8c7.4,1.2,11.8,6.7,10.8,12.3
		C1744.4,841,1738.5,844.7,1731.1,843.5z"/>
	<path class="st0" d="M1744.4,880.9c-7.6-5.8-16.3-7.2-21.8,0c-5.3,7-1.9,15.2,5.7,21s16.5,5.1,20.9-0.7
		C1753.7,895.4,1752,886.6,1744.4,880.9L1744.4,880.9z"/>
	<path class="st0" d="M1710.1,884.6c-4.9-5.7-11.3-8.1-16.7-3.5s-3.9,11.4,1,17c4.9,5.7,11.8,6.6,16.2,2.9
		S1714.9,890.3,1710.1,884.6L1710.1,884.6z"/>
</g>
<g>
	<path class="st0" d="M1486.8,742.1c6-10.6,9.6-7.1,13.7-14.3c4.1-7.2-0.8-8.5,5.2-19.1c6-10.6,20-4.2,22.3,6
		c1.9,8.2,2.3,14.1,9.8,18.2c2.1,1.2,3.4,3.2,4.2,5.5c2.8,8.3-2.3,17.5-10.9,19.3c-2.4,0.5-4.8,0.4-6.9-0.8
		c-7.4-4.2-12.7-1.6-20.7,1.1C1493.6,761.4,1480.9,752.7,1486.8,742.1L1486.8,742.1z"/>
	<path class="st0" d="M1561.9,758.6c-8.9-3.5-14.5-10.2-11.2-18.6c3.2-8.2,12-9.5,20.9-6c8.9,3.5,12.9,11.4,10.2,18.2
		C1579.1,759,1570.8,762.1,1561.9,758.6z"/>
	<path class="st0" d="M1546.7,726.9c-7.4-1.2-12.8-5.5-11.6-12.5c1.2-6.8,7.7-9.2,15.1-8c7.4,1.2,11.8,6.7,10.8,12.3
		C1560.1,724.4,1554.1,728.1,1546.7,726.9z"/>
	<path class="st0" d="M1560,764.3c-7.6-5.8-16.3-7.2-21.8,0c-5.3,7-1.9,15.2,5.7,21s16.5,5.1,20.9-0.7
		C1569.3,778.8,1567.6,770,1560,764.3L1560,764.3z"/>
	<path class="st0" d="M1525.7,768c-4.9-5.7-11.3-8.1-16.7-3.5s-3.9,11.4,1,17c4.9,5.7,11.8,6.6,16.2,2.9S1530.6,773.7,1525.7,768
		L1525.7,768z"/>
</g>
<g>
	<path class="st0" d="M1622.6,715.5c7.3-9.7,10.4-5.8,15.4-12.4c5-6.7,0.3-8.6,7.6-18.3c7.3-9.7,20.3-1.5,21.4,8.8
		c0.8,8.4,0.5,14.2,7.3,19.3c1.9,1.5,3,3.7,3.5,6c1.7,8.6-4.6,17-13.3,17.8c-2.4,0.2-4.8-0.2-6.8-1.6c-6.8-5.1-12.3-3.2-20.6-1.6
		C1626.9,735.4,1615.3,725.2,1622.6,715.5L1622.6,715.5z"/>
	<path class="st0" d="M1695,741.5c-8.3-4.6-13.1-12-8.7-19.9c4.2-7.7,13.2-7.8,21.5-3.2s11.3,13,7.8,19.4
		C1712,744.1,1703.3,746.1,1695,741.5L1695,741.5z"/>
	<path class="st0" d="M1684,708.1c-7.2-2.2-12-7.1-9.9-13.9c2-6.6,8.8-8.2,16-6c7.2,2.2,10.8,8.2,9.1,13.6
		C1697.6,707.3,1691.2,710.2,1684,708.1L1684,708.1z"/>
	<path class="st0" d="M1692.4,746.8c-6.8-6.7-15.2-9.2-21.6-2.8c-6.2,6.2-3.8,14.8,2.9,21.6c6.8,6.7,15.7,7.2,20.8,2
		C1699.7,762.5,1699.2,753.6,1692.4,746.8z"/>
	<path class="st0" d="M1657.8,746.1c-4.1-6.3-10.2-9.5-16.1-5.6s-5.3,10.8-1.2,17s10.9,8.1,15.7,4.9
		C1660.9,759.3,1662,752.4,1657.8,746.1z"/>
</g>
<g>
	<path class="st0" d="M1424.4,621c3.1-11.7,7.5-9.3,9.6-17.3s-3-8,0.1-19.8s18.2-9.1,23.1,0.1c3.9,7.5,5.8,13,14.1,15.1
		c2.3,0.6,4.1,2.2,5.5,4.3c4.9,7.3,2.2,17.5-5.6,21.5c-2.2,1.1-4.5,1.7-6.9,1c-8.2-2.2-12.6,1.7-19.7,6.3
		C1435.8,637.9,1421.3,632.8,1424.4,621L1424.4,621z"/>
	<path class="st0" d="M1501.2,617.8c-9.5-1.1-16.7-6.2-15.6-15.2c1-8.7,9.2-12.2,18.7-11.1s15.4,7.8,14.6,15
		S1510.6,618.9,1501.2,617.8L1501.2,617.8z"/>
	<path class="st0" d="M1478.4,591c-7.5,0.7-13.8-2-14.4-9.1c-0.6-6.9,5.1-10.9,12.6-11.6c7.5-0.7,13.1,3.5,13.6,9.2
		S1485.9,590.3,1478.4,591L1478.4,591z"/>
	<path class="st0" d="M1500.8,623.7c-8.8-3.7-17.6-2.8-21,5.5c-3.4,8.1,2.1,15.2,10.8,18.8c8.8,3.7,17.2,0.8,20-6
		S1509.6,627.4,1500.8,623.7L1500.8,623.7z"/>
	<path class="st0" d="M1468.6,636.1c-6.2-4.2-13-5-17.1,0.9s-0.9,12,5.3,16.2c6.2,4.2,13.1,3.4,16.4-1.3
		C1476.4,647.2,1474.7,640.4,1468.6,636.1L1468.6,636.1z"/>
</g>
<g>
	<path class="st0" d="M1322.4,712.7c1.3-12.1,6.1-10.3,6.9-18.5c0.9-8.3-4.1-7.5-2.8-19.6c1.3-12.1,16.7-11.7,22.9-3.3
		c5,6.8,7.7,12,16.2,12.9c2.4,0.3,4.4,1.6,6.1,3.4c5.9,6.5,4.8,17-2.4,22.1c-2,1.4-4.2,2.3-6.7,2c-8.5-0.9-12.2,3.6-18.6,9.1
		C1336.2,727.7,1321.1,724.7,1322.4,712.7L1322.4,712.7z"/>
	<path class="st0" d="M1397.8,698.1c-9.5,0.3-17.4-3.7-17.7-12.7c-0.3-8.8,7.3-13.4,16.9-13.7s16.4,5.4,16.6,12.7
		S1407.4,697.9,1397.8,698.1L1397.8,698.1z"/>
	<path class="st0" d="M1371.4,675c-7.3,1.8-13.9,0-15.6-6.9c-1.6-6.7,3.4-11.5,10.7-13.3c7.3-1.8,13.5,1.5,14.8,7.1
		S1378.7,673.2,1371.4,675L1371.4,675z"/>
	<path class="st0" d="M1398.4,704.1c-9.2-2.3-17.8-0.2-20,8.6c-2.2,8.5,4.3,14.7,13.5,17c9.2,2.3,17.2-1.8,18.9-8.8
		C1412.6,713.8,1407.6,706.4,1398.4,704.1L1398.4,704.1z"/>
	<path class="st0" d="M1368.3,721.1c-6.7-3.3-13.6-3-16.7,3.4c-3,6.2,0.9,12,7.6,15.3c6.7,3.3,13.5,1.4,16-3.7
		S1375,724.4,1368.3,721.1L1368.3,721.1z"/>
</g>
<g>
	<path class="st0" d="M1216.6,609.9c-1.2-12.1,3.8-11.3,2.9-19.6c-0.8-8.3-5.6-6.5-6.8-18.6c-1.2-12.1,13.9-14.9,21.7-8
		c6.3,5.6,10,10.1,18.5,9.2c2.4-0.2,4.7,0.7,6.6,2.1c7.1,5.1,8.2,15.6,2.3,22.1c-1.6,1.8-3.7,3.1-6.1,3.4c-8.5,0.9-11.2,6-16.2,12.8
		C1233.2,621.7,1217.8,622,1216.6,609.9L1216.6,609.9z"/>
	<path class="st0" d="M1287.4,579.9c-9.3,2.3-17.8,0.1-19.9-8.7c-2.1-8.5,4.3-14.7,13.6-17s17.2,1.9,18.9,9
		S1296.6,577.6,1287.4,579.9L1287.4,579.9z"/>
	<path class="st0" d="M1256.7,562.8c-6.7,3.2-13.6,2.9-16.7-3.5c-3-6.2,1-12,7.7-15.2c6.7-3.2,13.5-1.3,16,3.8
		C1266.1,553.1,1263.4,559.6,1256.7,562.8L1256.7,562.8z"/>
	<path class="st0" d="M1289.1,585.6c-9.5-0.3-17.4,3.5-17.7,12.6c-0.3,8.8,7.2,13.5,16.8,13.8c9.5,0.3,16.4-5.3,16.7-12.6
		S1298.6,586,1289.1,585.6L1289.1,585.6z"/>
	<path class="st0" d="M1263.3,608.5c-7.3-1.8-13.9-0.1-15.7,6.8c-1.7,6.7,3.4,11.5,10.6,13.3s13.5-1.4,14.8-7
		C1274.5,616.1,1270.5,610.4,1263.3,608.5L1263.3,608.5z"/>
</g>
<g>
	<path class="st0" d="M1171.9,753.9c-5.3-10.9-0.4-11.9-4-19.4s-7.5-4.2-12.8-15.1s7.9-18.8,17.6-15c7.8,3.1,12.9,6,20.6,2.3
		c2.2-1.1,4.6-1,6.9-0.3c8.4,2.4,13.1,11.8,9.7,20c-0.9,2.2-2.3,4.2-4.5,5.3c-7.7,3.7-8.5,9.5-10.8,17.6
		C1191.6,759.2,1177.2,764.8,1171.9,753.9L1171.9,753.9z"/>
	<path class="st0" d="M1228.1,701.4c-7.9,5.3-16.7,6.2-21.7-1.3c-4.9-7.3-1-15.3,6.9-20.6c7.9-5.3,16.8-4.1,20.8,1.9
		C1238.2,687.5,1236,696.1,1228.1,701.4L1228.1,701.4z"/>
	<path class="st0" d="M1193.3,695.9c-5.2,5.4-11.8,7.4-16.9,2.5c-5-4.8-3.2-11.6,2-16.9s12.2-5.9,16.3-1.9
		S1198.6,690.5,1193.3,695.9L1193.3,695.9z"/>
	<path class="st0" d="M1231.7,706.2c-9.1,2.9-15.1,9.3-12.3,17.9c2.7,8.4,11.4,10.2,20.5,7.2c9.1-2.9,13.6-10.6,11.3-17.6
		S1240.7,703.2,1231.7,706.2z"/>
	<path class="st0" d="M1215.3,736.6c-7.4,0.8-13.1,4.7-12.4,11.8c0.7,6.9,7.1,9.7,14.6,8.9s12.2-6,11.5-11.7
		C1228.4,739.8,1222.7,735.8,1215.3,736.6z"/>
</g>
<g>
	<path class="st0" d="M1045.5,705.4c-6.2-10.5-1.3-11.8-5.5-19s-7.8-3.6-13.9-14.1s6.4-19.3,16.4-16.3c8.1,2.5,13.3,5,20.7,0.7
		c2.1-1.2,4.5-1.3,6.9-0.9c8.6,1.7,13.9,10.8,11.2,19.2c-0.8,2.3-2,4.4-4.1,5.6c-7.3,4.3-7.7,10.2-9.4,18.4
		C1065.5,709.2,1051.6,715.9,1045.5,705.4L1045.5,705.4z"/>
	<path class="st0" d="M1097.3,648.7c-7.5,5.9-16.1,7.5-21.7,0.4c-5.5-6.9-2.2-15.2,5.3-21.1c7.5-5.9,16.4-5.4,20.9,0.3
		S1104.8,642.8,1097.3,648.7L1097.3,648.7z"/>
	<path class="st0" d="M1062.3,645.9c-4.8,5.8-11.2,8.3-16.6,3.8c-5.3-4.4-4.1-11.3,0.7-17.1c4.8-5.8,11.7-6.8,16.1-3.2
		S1067.1,640.1,1062.3,645.9L1062.3,645.9z"/>
	<path class="st0" d="M1101.3,653.2c-8.8,3.7-14.4,10.5-10.9,18.8c3.4,8.1,12.2,9.3,21,5.6s12.7-11.7,9.9-18.4
		C1118.5,652.4,1110.1,649.5,1101.3,653.2L1101.3,653.2z"/>
	<path class="st0" d="M1087.3,684.8c-7.4,1.4-12.7,5.7-11.4,12.7c1.3,6.8,7.9,9.1,15.2,7.7c7.4-1.4,11.7-6.9,10.6-12.5
		S1094.7,683.4,1087.3,684.8L1087.3,684.8z"/>
</g>
<g>
	<path class="st0" d="M967.3,829.7c-1.9-12,3.1-11.5,1.8-19.7c-1.3-8.2-5.9-6.2-7.9-18.2c-1.9-12,13-15.7,21.2-9.2
		c6.6,5.2,10.6,9.5,19,8.2c2.4-0.4,4.7,0.4,6.7,1.7c7.4,4.7,9.1,15.1,3.5,21.9c-1.5,1.9-3.5,3.3-5.9,3.7
		c-8.4,1.3-10.9,6.7-15.5,13.7C984.6,840.6,969.3,841.7,967.3,829.7L967.3,829.7z"/>
	<path class="st0" d="M1036.3,795.8c-9.1,2.8-17.7,1.1-20.4-7.6c-2.6-8.4,3.5-14.9,12.6-17.7c9.1-2.8,17.2,0.9,19.4,7.9
		S1045.4,793,1036.3,795.8z"/>
	<path class="st0" d="M1004.7,780.4c-6.6,3.6-13.4,3.7-16.9-2.5c-3.3-6,0.3-12,6.8-15.6c6.6-3.6,13.4-2.1,16.2,2.9
		S1011.2,776.8,1004.7,780.4L1004.7,780.4z"/>
	<path class="st0" d="M1038.3,801.4c-9.5,0.2-17.2,4.5-17,13.6c0.2,8.8,8,13.1,17.5,12.9c9.5-0.2,16.1-6.2,15.9-13.5
		C1054.7,807,1047.9,801.2,1038.3,801.4L1038.3,801.4z"/>
	<path class="st0" d="M1013.8,825.7c-7.4-1.4-13.9,0.7-15.2,7.7c-1.3,6.8,4,11.3,11.4,12.7c7.4,1.4,13.4-2.2,14.4-7.8
		C1025.5,832.7,1021.2,827.1,1013.8,825.7L1013.8,825.7z"/>
</g>
<g>
	<path class="st0" d="M836.9,756.1c-1-12.1,4-11.2,3.3-19.5s-5.5-6.6-6.5-18.7c-1-12.1,14.2-14.7,21.8-7.6
		c6.2,5.7,9.8,10.3,18.3,9.6c2.4-0.2,4.7,0.8,6.6,2.2c7,5.3,7.9,15.8,1.8,22.1c-1.7,1.8-3.7,3.1-6.1,3.3
		c-8.5,0.7-11.3,5.8-16.5,12.5C853.3,768.2,837.9,768.2,836.9,756.1L836.9,756.1z"/>
	<path class="st0" d="M908.2,727.5c-9.3,2.1-17.8-0.3-19.8-9.1c-1.9-8.6,4.6-14.6,13.9-16.7s17.1,2.2,18.7,9.3
		S917.5,725.4,908.2,727.5L908.2,727.5z"/>
	<path class="st0" d="M877.8,709.8c-6.8,3.1-13.7,2.7-16.7-3.8c-2.9-6.3,1.2-12,8-15.1c6.8-3.1,13.5-1.1,15.9,4.1
		S884.7,706.7,877.8,709.8z"/>
	<path class="st0" d="M909.9,733.2c-9.5-0.5-17.5,3.2-18,12.2c-0.5,8.8,7,13.6,16.5,14.2s16.5-5,16.9-12.3
		C925.7,740,919.4,733.8,909.9,733.2L909.9,733.2z"/>
	<path class="st0" d="M883.6,755.7c-7.2-1.9-13.9-0.4-15.8,6.5c-1.8,6.7,3.2,11.6,10.4,13.6c7.2,1.9,13.5-1.2,15-6.7
		S890.8,757.6,883.6,755.7L883.6,755.7z"/>
</g>
<g>
	<path class="st0" d="M848.6,889.8c-7.8-9.3-3.2-11.5-8.6-17.8s-8.3-2.2-16.1-11.5c-7.8-9.3,3.1-20.2,13.4-18.8
		c8.4,1.1,14,2.7,20.5-2.8c1.9-1.6,4.2-2.1,6.7-2c8.8,0.2,15.6,8.3,14.3,17c-0.3,2.4-1.3,4.7-3.1,6.2c-6.5,5.5-5.9,11.3-6.2,19.7
		C868.9,890.2,856.4,899.1,848.6,889.8L848.6,889.8z"/>
	<path class="st0" d="M890.2,825.3c-6.4,7.1-14.7,10.1-21.4,4c-6.5-5.9-4.7-14.6,1.7-21.7c6.4-7.1,15.2-8.1,20.7-3.2
		S896.6,818.2,890.2,825.3L890.2,825.3z"/>
	<path class="st0" d="M855.2,828.4c-3.8,6.5-9.6,10.1-15.8,6.5c-6-3.5-5.9-10.4-2.2-16.9c3.8-6.5,10.4-8.7,15.3-5.8
		C857.5,815,858.9,821.9,855.2,828.4L855.2,828.4z"/>
	<path class="st0" d="M894.8,829c-8.1,5.1-12.4,12.7-7.6,20.4c4.7,7.4,13.6,7.1,21.7,2c8.1-5.1,10.6-13.6,6.7-19.8
		S902.9,823.9,894.8,829L894.8,829z"/>
	<path class="st0" d="M886.4,862.5c-7,2.6-11.6,7.8-9.1,14.4c2.4,6.5,9.3,7.6,16.3,5.1c7-2.6,10.3-8.8,8.3-14.1
		S893.4,859.9,886.4,862.5L886.4,862.5z"/>
</g>
<g>
	<path class="st0" d="M710.2,840.8c-5.8-10.6-0.9-11.9-4.9-19.2s-7.7-3.8-13.5-14.4c-5.8-10.7,7-19.2,16.8-15.8
		c8,2.7,13.2,5.4,20.7,1.3c2.1-1.2,4.5-1.2,6.9-0.7c8.6,2,13.6,11.2,10.7,19.5c-0.8,2.3-2.1,4.3-4.3,5.5c-7.5,4.1-8,9.9-10,18.1
		C730.1,845.2,716,851.5,710.2,840.8z"/>
	<path class="st0" d="M763.7,785.7c-7.6,5.7-16.3,7-21.8-0.3c-5.3-7.1-1.7-15.2,5.9-20.9c7.6-5.7,16.5-4.9,20.9,0.9
		S771.3,780,763.7,785.7L763.7,785.7z"/>
	<path class="st0" d="M728.7,781.9c-5,5.6-11.4,8-16.8,3.3c-5.2-4.6-3.8-11.4,1.2-17s11.9-6.5,16.2-2.7S733.7,776.2,728.7,781.9
		L728.7,781.9z"/>
	<path class="st0" d="M767.5,790.3c-8.9,3.4-14.7,10.1-11.4,18.5c3.1,8.2,11.9,9.6,20.8,6.2c8.9-3.4,13-11.3,10.5-18.1
		C784.8,790,776.4,786.9,767.5,790.3L767.5,790.3z"/>
	<path class="st0" d="M752.6,821.4c-7.4,1.2-12.9,5.3-11.8,12.3c1.1,6.8,7.6,9.3,15,8.2s11.8-6.6,11-12.2S760,820.3,752.6,821.4
		L752.6,821.4z"/>
</g>
<g>
	<path class="st0" d="M658.8,955.6c-4.5-11.3,0.5-11.9-2.6-19.6c-3.1-7.7-7.2-4.7-11.7-16c-4.5-11.3,9.3-18.2,18.6-13.7
		c7.6,3.7,12.4,7,20.3,3.8c2.3-0.9,4.7-0.7,7,0.2c8.3,3,12.2,12.8,8.2,20.6c-1.1,2.2-2.7,4-4.9,4.9c-7.9,3.2-9.1,8.9-12.1,16.8
		C678.1,962.4,663.3,966.9,658.8,955.6L658.8,955.6z"/>
	<path class="st0" d="M718.6,907.4c-8.3,4.7-17.1,4.9-21.5-2.9c-4.4-7.6,0.2-15.3,8.4-20.1c8.3-4.7,17-2.9,20.6,3.4
		C729.8,894.2,726.9,902.7,718.6,907.4z"/>
	<path class="st0" d="M684.4,899.4c-5.6,5-12.3,6.6-17,1.3c-4.6-5.2-2.4-11.8,3.2-16.8c5.6-5,12.6-5,16.4-0.7S690,894.4,684.4,899.4
		L684.4,899.4z"/>
	<path class="st0" d="M721.9,912.4c-9.3,2.3-15.8,8.2-13.6,17c2.1,8.5,10.7,11,19.9,8.7c9.3-2.3,14.3-9.6,12.6-16.7
		S731.1,910.1,721.9,912.4L721.9,912.4z"/>
	<path class="st0" d="M703.3,941.5c-7.5,0.2-13.4,3.7-13.2,10.8s6.4,10.2,13.9,9.9c7.5-0.2,12.5-5.1,12.4-10.8
		S710.8,941.3,703.3,941.5z"/>
</g>
<g>
	<path class="st0" d="M530.5,867c0.2-12.1,5-10.8,5.1-19.1c0.1-8.3-4.8-7.1-4.7-19.2c0.2-12.2,15.5-13.2,22.5-5.5
		c5.6,6.3,8.8,11.2,17.3,11.3c2.4,0,4.6,1.2,6.3,2.8c6.5,5.9,6.3,16.4-0.3,22.2c-1.8,1.6-4,2.7-6.4,2.7c-8.5-0.1-11.8,4.7-17.6,10.9
		C545.7,880.6,530.3,879.1,530.5,867L530.5,867z"/>
	<path class="st0" d="M604.2,845.3c-9.5,1.2-17.7-2-18.8-10.9c-1.1-8.7,6-14.1,15.5-15.3c9.5-1.2,16.8,3.8,17.7,11.1
		S613.7,844.1,604.2,845.3z"/>
	<path class="st0" d="M575.7,824.8c-7.1,2.5-13.9,1.3-16.2-5.4c-2.3-6.5,2.3-11.8,9.4-14.2s13.5,0.2,15.4,5.6
		S582.7,822.3,575.7,824.8L575.7,824.8z"/>
	<path class="st0" d="M605.3,851.2c-9.4-1.4-17.7,1.5-19.1,10.5c-1.3,8.7,5.7,14.2,15.1,15.7c9.4,1.4,16.9-3.4,18-10.6
		C620.4,859.5,614.7,852.6,605.3,851.2z"/>
	<path class="st0" d="M577,871c-7-2.6-13.8-1.7-16.3,4.9s2,11.8,9,14.5c7,2.6,13.5,0.1,15.5-5.2S584,873.6,577,871L577,871z"/>
</g>
<g>
	<path class="st0" d="M465.5,976.2c-2.6-11.9,2.5-11.7,0.7-19.8s-6.3-5.8-8.9-17.7c-2.6-11.9,12.2-16.4,20.7-10.4
		c6.9,4.9,11.1,8.9,19.4,7.1c2.4-0.5,4.7,0.1,6.8,1.3c7.7,4.3,9.9,14.6,4.7,21.7c-1.4,2-3.3,3.5-5.7,4c-8.3,1.8-10.5,7.3-14.7,14.5
		C483.3,986.1,468,988.1,465.5,976.2L465.5,976.2z"/>
	<path class="st0" d="M532.4,938.6c-9,3.3-17.7,2-20.8-6.4c-3-8.3,2.7-15.1,11.6-18.4c9-3.3,17.2,0,19.8,6.8
		C545.6,927.4,541.4,935.3,532.4,938.6L532.4,938.6z"/>
	<path class="st0" d="M500,925c-6.3,4-13.2,4.4-17-1.6c-3.7-5.8-0.4-12,6-16c6.3-4,13.2-2.8,16.3,2C508.3,914.3,506.4,921,500,925
		L500,925z"/>
	<path class="st0" d="M534.8,944c-9.5,0.7-16.9,5.5-16.2,14.5c0.7,8.8,8.7,12.6,18.2,11.9s15.7-7.1,15.2-14.4
		C551.4,948.7,544.3,943.3,534.8,944z"/>
	<path class="st0" d="M511.7,969.7c-7.4-1-13.9,1.5-14.8,8.5s4.6,11.1,12.1,12.1s13.2-2.9,14-8.6S519.1,970.7,511.7,969.7z"/>
</g>
<g>
	<path class="st0" d="M343.7,888c-0.1-12.1,4.8-10.9,4.7-19.2c-0.1-8.3-5-7-5.1-19.1c-0.1-12.2,15.2-13.6,22.3-6
		c5.8,6.2,9.1,11,17.6,10.9c2.4,0,4.6,1.1,6.4,2.7c6.6,5.8,6.7,16.3,0.2,22.2c-1.8,1.6-3.9,2.8-6.4,2.8c-8.5,0.1-11.7,5-17.3,11.3
		C359.2,901.3,343.8,900.2,343.7,888L343.7,888z"/>
	<path class="st0" d="M416.9,864.6c-9.4,1.4-17.7-1.6-19-10.5c-1.3-8.7,5.7-14.2,15.1-15.7c9.4-1.4,16.9,3.4,18,10.7
		C432,856.3,426.3,863.2,416.9,864.6L416.9,864.6z"/>
	<path class="st0" d="M387.9,844.8c-7,2.6-13.8,1.7-16.3-5c-2.4-6.5,2-11.8,9.1-14.5c7-2.6,13.5-0.1,15.5,5.3
		S394.9,842.1,387.9,844.8L387.9,844.8z"/>
	<path class="st0" d="M418.1,870.4c-9.5-1.2-17.7,1.9-18.8,10.9c-1.1,8.7,6,14.1,15.4,15.3s16.8-3.8,17.8-11
		S427.6,871.7,418.1,870.4L418.1,870.4z"/>
	<path class="st0" d="M390.3,890.9c-7.1-2.5-13.9-1.4-16.2,5.3c-2.3,6.5,2.3,11.8,9.4,14.3c7.1,2.5,13.5-0.2,15.4-5.6
		S397.3,893.4,390.3,890.9L390.3,890.9z"/>
</g>
<g>
	<path class="st0" d="M265.9,979.6c-0.1-12.1,4.8-10.9,4.7-19.2c-0.1-8.3-5-7-5.1-19.1c-0.1-12.2,15.2-13.6,22.3-6
		c5.8,6.2,9.1,11,17.6,10.9c2.4,0,4.6,1.1,6.4,2.7c6.6,5.8,6.7,16.3,0.2,22.2c-1.8,1.6-3.9,2.8-6.4,2.8c-8.5,0.1-11.7,5-17.4,11.3
		C281.4,992.9,266.1,991.8,265.9,979.6L265.9,979.6z"/>
	<path class="st0" d="M339.1,956.2c-9.4,1.4-17.7-1.6-19-10.5c-1.3-8.7,5.7-14.2,15.1-15.7c9.4-1.4,16.9,3.4,18,10.7
		C354.3,948,348.5,954.8,339.1,956.2L339.1,956.2z"/>
	<path class="st0" d="M310.1,936.4c-7,2.6-13.9,1.7-16.3-5c-2.4-6.5,2-11.8,9.1-14.5c7-2.6,13.5-0.1,15.5,5.3
		C320.4,927.6,317.1,933.8,310.1,936.4L310.1,936.4z"/>
	<path class="st0" d="M340.4,962.1c-9.5-1.2-17.7,1.9-18.8,10.9c-1.1,8.7,6,14.1,15.4,15.3s16.8-3.8,17.8-11
		S349.8,963.3,340.4,962.1L340.4,962.1z"/>
	<path class="st0" d="M312.5,982.5c-7.1-2.5-13.9-1.4-16.2,5.3c-2.3,6.5,2.3,11.8,9.4,14.3c7.1,2.5,13.5-0.2,15.4-5.6
		S319.6,985,312.5,982.5L312.5,982.5z"/>
</g>
<g>
	<path class="st0" d="M157.7,887.3c0.7-12.1,5.5-10.6,6-18.9c0.5-8.3-4.5-7.3-3.8-19.4c0.7-12.1,16.1-12.5,22.7-4.5
		c5.3,6.5,8.3,11.6,16.8,12.1c2.4,0.1,4.5,1.4,6.2,3.1c6.2,6.2,5.6,16.7-1.2,22.2c-1.9,1.5-4.1,2.5-6.5,2.4
		c-8.5-0.5-12,4.2-18.1,10.1C172.3,901.6,157,899.4,157.7,887.3L157.7,887.3z"/>
	<path class="st0" d="M232.3,868.9c-9.5,0.8-17.6-2.7-18.3-11.8c-0.7-8.8,6.6-13.8,16.1-14.6c9.5-0.8,16.6,4.6,17.2,11.8
		C248,861.7,241.8,868.1,232.3,868.9z"/>
	<path class="st0" d="M204.7,847.1c-7.2,2.1-13.9,0.7-16-6.1c-2-6.6,2.9-11.7,10-13.8c7.2-2.1,13.5,0.8,15.2,6.3
		S211.9,845,204.7,847.1z"/>
	<path class="st0" d="M233.1,874.8c-9.4-1.8-17.8,0.8-19.5,9.6c-1.7,8.6,5,14.5,14.4,16.3s17-2.7,18.5-9.8
		C247.9,883.8,242.5,876.7,233.1,874.8L233.1,874.8z"/>
	<path class="st0" d="M204,893.4c-6.9-2.9-13.8-2.3-16.5,4.2c-2.7,6.3,1.5,11.9,8.4,14.9c6.9,2.9,13.5,0.7,15.8-4.6
		S210.9,896.3,204,893.4L204,893.4z"/>
</g>
<g>
	<path class="st0" d="M2725.7,716.9c-6.3-10.4-1.5-11.8-5.8-18.9c-4.3-7.1-7.9-3.4-14.2-13.8c-6.3-10.4,6.1-19.5,16.1-16.6
		c8.1,2.3,13.4,4.8,20.7,0.3c2.1-1.3,4.5-1.4,6.9-1c8.6,1.6,14.1,10.5,11.6,18.9c-0.7,2.3-1.9,4.4-4,5.7c-7.3,4.4-7.5,10.3-9.1,18.6
		C2745.8,720.4,2732,727.3,2725.7,716.9L2725.7,716.9z"/>
	<path class="st0" d="M2776.5,659.3c-7.4,6.1-16,7.7-21.7,0.8c-5.6-6.8-2.4-15.1,4.9-21.2c7.4-6.1,16.3-5.7,20.9-0.1
		C2785.3,644.5,2783.9,653.3,2776.5,659.3L2776.5,659.3z"/>
	<path class="st0" d="M2741.4,657.1c-4.7,5.8-11,8.5-16.6,4.1c-5.4-4.3-4.3-11.2,0.4-17.1c4.7-5.8,11.6-7,16.1-3.4
		C2745.8,644.3,2746.1,651.3,2741.4,657.1L2741.4,657.1z"/>
	<path class="st0" d="M2780.6,663.7c-8.8,3.8-14.2,10.7-10.6,19c3.5,8.1,12.4,9,21.1,5.2s12.5-11.9,9.6-18.6
		S2789.3,659.9,2780.6,663.7L2780.6,663.7z"/>
	<path class="st0" d="M2767.2,695.6c-7.3,1.5-12.6,5.9-11.2,12.9c1.4,6.8,8,8.9,15.4,7.4s11.5-7.1,10.4-12.7
		S2774.5,694.1,2767.2,695.6L2767.2,695.6z"/>
</g>
<g>
	<path class="st0" d="M2860.8,768.8c-5.6-10.8-0.7-11.9-4.6-19.3s-7.6-3.9-13.2-14.7s7.4-19,17.1-15.5c7.9,2.9,13.1,5.7,20.6,1.7
		c2.2-1.1,4.6-1.1,6.9-0.5c8.5,2.1,13.4,11.5,10.3,19.7c-0.9,2.3-2.2,4.3-4.4,5.4c-7.6,3.9-8.2,9.8-10.3,17.9
		C2880.6,773.5,2866.4,779.5,2860.8,768.8L2860.8,768.8z"/>
	<path class="st0" d="M2915.4,714.7c-7.8,5.6-16.5,6.7-21.7-0.7c-5.1-7.2-1.4-15.2,6.4-20.8c7.8-5.6,16.6-4.6,20.9,1.3
		C2925.1,700.4,2923.1,709.1,2915.4,714.7L2915.4,714.7z"/>
	<path class="st0" d="M2880.5,710.2c-5.1,5.5-11.6,7.8-16.8,3c-5.1-4.7-3.6-11.5,1.5-17s12-6.2,16.2-2.4
		C2885.7,697.6,2885.6,704.6,2880.5,710.2L2880.5,710.2z"/>
	<path class="st0" d="M2919.1,719.3c-9,3.2-14.9,9.8-11.8,18.3c3,8.3,11.7,9.8,20.7,6.6s13.3-11,10.8-17.9
		C2936.3,719.4,2928.1,716.1,2919.1,719.3L2919.1,719.3z"/>
	<path class="st0" d="M2903.6,750.2c-7.4,1-13,5.1-12,12.1c0.9,6.8,7.4,9.5,14.8,8.4c7.4-1,12-6.3,11.2-12S2911,749.2,2903.6,750.2
		L2903.6,750.2z"/>
</g>
<g>
	<path class="st0" d="M2907.5,614.7c-1.1-12.1,3.9-11.3,3.1-19.5c-0.8-8.3-5.5-6.5-6.7-18.6c-1.1-12.1,14-14.8,21.7-7.8
		c6.2,5.7,9.9,10.2,18.4,9.4c2.4-0.2,4.7,0.7,6.6,2.1c7.1,5.2,8.1,15.7,2.1,22.1c-1.6,1.8-3.7,3.1-6.1,3.3
		c-8.5,0.8-11.3,6-16.4,12.7C2924,626.6,2908.6,626.8,2907.5,614.7z"/>
	<path class="st0" d="M2978.5,585.3c-9.3,2.2-17.8-0.1-19.9-8.9c-2-8.6,4.5-14.7,13.8-16.8c9.3-2.2,17.1,2,18.8,9.1
		C2992.9,575.8,2987.7,583.1,2978.5,585.3L2978.5,585.3z"/>
	<path class="st0" d="M2947.9,567.9c-6.8,3.2-13.7,2.8-16.7-3.6c-2.9-6.2,1.1-12,7.8-15.2c6.8-3.2,13.5-1.2,15.9,4
		S2954.7,564.7,2947.9,567.9L2947.9,567.9z"/>
	<path class="st0" d="M2980.2,591c-9.5-0.4-17.4,3.4-17.9,12.4c-0.4,8.8,7.1,13.5,16.7,14s16.4-5.2,16.8-12.5
		C2996.1,597.7,2989.7,591.4,2980.2,591L2980.2,591z"/>
	<path class="st0" d="M2954.1,613.7c-7.2-1.9-13.9-0.2-15.7,6.7s3.3,11.6,10.5,13.4c7.2,1.9,13.5-1.3,14.9-6.9
		S2961.4,615.6,2954.1,613.7z"/>
</g>
<g>
	<path class="st0" d="M3021.6,727c0.8-12.1,5.6-10.5,6.2-18.8c0.6-8.3-4.4-7.3-3.6-19.5c0.8-12.1,16.2-12.4,22.7-4.2
		c5.3,6.6,8.2,11.7,16.7,12.2c2.4,0.2,4.5,1.4,6.2,3.2c6.1,6.3,5.4,16.8-1.5,22.2c-1.9,1.5-4.1,2.5-6.6,2.3
		c-8.5-0.6-12.1,4.1-18.2,9.9C3036,741.4,3020.8,739.1,3021.6,727L3021.6,727z"/>
	<path class="st0" d="M3096.4,709.4c-9.5,0.7-17.5-2.9-18.2-12s6.8-13.7,16.3-14.4c9.5-0.7,16.6,4.8,17.1,12
		S3105.9,708.7,3096.4,709.4L3096.4,709.4z"/>
	<path class="st0" d="M3069.1,687.4c-7.2,2.1-13.9,0.6-15.9-6.2c-1.9-6.6,3-11.7,10.2-13.7c7.2-2.1,13.5,1,15.1,6.5
		C3080,679.4,3076.3,685.3,3069.1,687.4z"/>
	<path class="st0" d="M3097.2,715.3c-9.3-2-17.8,0.6-19.6,9.4c-1.8,8.6,4.9,14.5,14.2,16.5c9.3,2,17.1-2.5,18.6-9.6
		S3106.5,717.3,3097.2,715.3z"/>
	<path class="st0" d="M3067.8,733.6c-6.9-3-13.7-2.4-16.6,4s1.4,11.9,8.2,15c6.9,3,13.5,0.9,15.8-4.4S3074.7,736.6,3067.8,733.6z"/>
</g>
<g>
	<path class="st0" d="M3130.9,627.8c2.8-11.8,7.3-9.5,9.2-17.5c1.9-8.1-3.1-8-0.4-19.8c2.8-11.8,18-9.5,23.1-0.5
		c4.1,7.4,6.2,12.8,14.4,14.8c2.4,0.6,4.2,2.2,5.6,4.1c5,7.2,2.6,17.4-5.1,21.6c-2.1,1.2-4.5,1.8-6.9,1.2c-8.3-2-12.6,2-19.6,6.8
		C3142.7,644.4,3128.1,639.6,3130.9,627.8L3130.9,627.8z"/>
	<path class="st0" d="M3207.5,622.7c-9.5-0.9-16.8-5.8-16-14.8c0.8-8.8,8.9-12.4,18.4-11.5c9.5,0.9,15.6,7.4,14.9,14.7
		C3224.2,618.4,3217,623.6,3207.5,622.7L3207.5,622.7z"/>
	<path class="st0" d="M3184.2,596.5c-7.4,0.9-13.8-1.7-14.6-8.8s4.8-11,12.3-11.9s13.2,3.2,13.8,8.8
		C3196.3,590.4,3191.6,595.6,3184.2,596.5L3184.2,596.5z"/>
	<path class="st0" d="M3207.3,628.7c-8.9-3.5-17.6-2.4-20.9,6.1c-3.2,8.2,2.4,15.1,11.3,18.6c8.9,3.5,17.2,0.4,19.9-6.4
		C3220.3,640.1,3216.2,632.2,3207.3,628.7L3207.3,628.7z"/>
	<path class="st0" d="M3175.4,641.9c-6.3-4.1-13.1-4.7-17,1.3s-0.6,12,5.7,16.1c6.3,4.1,13.2,3.1,16.3-1.7S3181.7,646,3175.4,641.9z
		"/>
</g>
<g>
	<path class="st0" d="M3197.4,755.9c6.3-10.4,9.8-6.8,14.1-13.9s-0.6-8.6,5.7-18.9c6.3-10.4,20.1-3.6,22.1,6.6
		c1.6,8.3,1.9,14.1,9.2,18.5c2.1,1.3,3.3,3.3,4.1,5.7c2.6,8.4-2.9,17.4-11.5,19c-2.4,0.4-4.8,0.3-6.9-0.9
		c-7.3-4.4-12.6-1.9-20.7,0.4C3203.6,775.4,3191.1,766.4,3197.4,755.9L3197.4,755.9z"/>
	<path class="st0" d="M3271.9,774.6c-8.8-3.8-14.2-10.6-10.7-18.9c3.5-8.1,12.3-9.1,21.1-5.4s12.6,11.8,9.7,18.5
		C3289.2,775.5,3280.7,778.3,3271.9,774.6L3271.9,774.6z"/>
	<path class="st0" d="M3257.7,742.4c-7.3-1.5-12.6-5.9-11.3-12.8s8-9,15.3-7.5s11.6,7,10.4,12.7S3265.1,743.9,3257.7,742.4
		L3257.7,742.4z"/>
	<path class="st0" d="M3269.9,780.2c-7.4-6-16-7.6-21.7-0.6c-5.6,6.8-2.3,15.1,5.1,21.2c7.4,6,16.3,5.6,20.9,0
		C3278.7,795,3277.3,786.2,3269.9,780.2z"/>
	<path class="st0" d="M3235.5,782.9c-4.7-5.8-11.1-8.5-16.6-4s-4.2,11.2,0.5,17.1c4.7,5.8,11.6,7,16.1,3.3
		S3240.2,788.8,3235.5,782.9z"/>
</g>
<g>
	<path class="st0" d="M3343.3,727.9c7.6-9.5,10.6-5.4,15.8-11.9s0.6-8.6,8.1-18.1c7.6-9.5,20.4-0.9,21.1,9.4
		c0.6,8.4,0.1,14.2,6.8,19.6c1.9,1.5,2.9,3.7,3.3,6.1c1.5,8.7-5.1,16.9-13.8,17.4c-2.4,0.1-4.8-0.3-6.7-1.8
		c-6.7-5.3-12.2-3.5-20.6-2.2C3346.9,748,3335.7,737.4,3343.3,727.9L3343.3,727.9z"/>
	<path class="st0" d="M3414.8,756c-8.2-4.8-12.7-12.4-8.1-20.2c4.5-7.6,13.4-7.4,21.6-2.6c8.2,4.8,10.9,13.3,7.2,19.6
		C3431.8,759.2,3423.1,760.9,3414.8,756L3414.8,756z"/>
	<path class="st0" d="M3404.9,722.3c-7.1-2.4-11.8-7.4-9.5-14.2s9.1-7.9,16.2-5.5c7.1,2.4,10.6,8.5,8.7,13.9
		S3412,724.7,3404.9,722.3L3404.9,722.3z"/>
	<path class="st0" d="M3412.1,761.3c-6.6-6.9-14.9-9.7-21.5-3.4c-6.4,6.1-4.3,14.7,2.3,21.6s15.4,7.7,20.7,2.7
		S3418.7,768.2,3412.1,761.3L3412.1,761.3z"/>
	<path class="st0" d="M3377.6,759.6c-3.9-6.4-9.9-9.8-15.9-6.1s-5.7,10.6-1.7,17c3.9,6.4,10.6,8.4,15.5,5.4S3381.5,766,3377.6,759.6
		z"/>
</g>
<g>
	<path class="st0" d="M3392.8,881c6.2-10.4,9.8-6.9,14-14s-0.6-8.6,5.5-19c6.2-10.5,20.1-3.7,22.2,6.4c1.7,8.2,2.1,14.1,9.4,18.4
		c2.1,1.2,3.4,3.3,4.1,5.6c2.7,8.4-2.7,17.4-11.3,19.1c-2.4,0.5-4.8,0.3-6.9-0.9c-7.3-4.3-12.6-1.8-20.7,0.6
		C3399.2,900.4,3386.6,891.4,3392.8,881z"/>
	<path class="st0" d="M3467.6,898.9c-8.8-3.7-14.3-10.5-10.9-18.8c3.4-8.1,12.2-9.2,21-5.6c8.8,3.7,12.7,11.7,9.9,18.4
		C3484.8,899.7,3476.4,902.6,3467.6,898.9L3467.6,898.9z"/>
	<path class="st0" d="M3453,866.9c-7.4-1.4-12.7-5.8-11.4-12.7s7.9-9.1,15.2-7.7c7.4,1.4,11.6,6.9,10.6,12.6
		C3466.4,864.7,3460.4,868.3,3453,866.9L3453,866.9z"/>
	<path class="st0" d="M3465.6,904.6c-7.5-5.9-16.1-7.5-21.7-0.4c-5.5,6.9-2.2,15.2,5.3,21.1c7.5,5.9,16.4,5.5,20.9-0.2
		C3474.6,919.3,3473,910.5,3465.6,904.6z"/>
	<path class="st0" d="M3431.2,907.6c-4.8-5.8-11.2-8.4-16.6-3.8c-5.3,4.4-4.1,11.3,0.6,17.1c4.8,5.8,11.7,6.8,16.1,3.2
		C3435.7,920.4,3435.9,913.4,3431.2,907.6L3431.2,907.6z"/>
</g>
<g>
	<path class="st0" d="M3534.5,838.1c4-11.5,8.2-8.7,10.9-16.5s-2.3-8.2,1.6-19.7c4-11.5,18.9-7.7,23,1.9c3.3,7.7,4.8,13.4,12.9,16.2
		c2.3,0.8,3.9,2.6,5.1,4.7c4.3,7.7,0.8,17.6-7.3,21c-2.2,0.9-4.6,1.3-6.9,0.5c-8.1-2.8-12.7,0.8-20.1,4.8
		C3544.7,855.8,3530.6,849.6,3534.5,838.1L3534.5,838.1z"/>
	<path class="st0" d="M3611.3,840.8c-9.4-1.8-16.1-7.4-14.4-16.3c1.7-8.6,10.1-11.5,19.5-9.6s14.8,8.9,13.3,16.1
		S3620.7,842.6,3611.3,840.8L3611.3,840.8z"/>
	<path class="st0" d="M3590.7,812.3c-7.5,0.1-13.6-3.1-13.7-10.2s5.9-10.5,13.4-10.6c7.5-0.1,12.8,4.5,12.9,10.2
		S3598.2,812.2,3590.7,812.3z"/>
	<path class="st0" d="M3610.5,846.7c-8.5-4.3-17.3-4.1-21.4,3.9c-4,7.8,0.9,15.3,9.4,19.6s17.1,2.1,20.4-4.4S3619,851,3610.5,846.7
		L3610.5,846.7z"/>
	<path class="st0" d="M3577.4,856.6c-5.8-4.7-12.6-6-17.1-0.5c-4.3,5.4-1.8,11.9,4,16.6s12.8,4.4,16.4-0.1
		S3583.2,861.3,3577.4,856.6L3577.4,856.6z"/>
</g>
<g>
	<path class="st0" d="M3642.3,967.6c1.1-12.1,5.9-10.4,6.6-18.7c0.8-8.3-4.2-7.4-3.1-19.5c1.1-12.1,16.5-12,22.8-3.7
		c5.1,6.7,7.9,11.8,16.4,12.6c2.4,0.2,4.4,1.5,6.1,3.3c6,6.4,5,16.9-2,22.1c-1.9,1.4-4.2,2.4-6.6,2.2c-8.5-0.8-12.2,3.8-18.4,9.4
		C3656.4,982.4,3641.2,979.7,3642.3,967.6L3642.3,967.6z"/>
	<path class="st0" d="M3717.5,951.8c-9.5,0.4-17.4-3.4-17.9-12.4c-0.4-8.8,7.1-13.6,16.6-14c9.5-0.4,16.5,5.1,16.8,12.4
		C3733.4,945.1,3727,951.3,3717.5,951.8L3717.5,951.8z"/>
	<path class="st0" d="M3690.7,929.1c-7.2,1.9-13.9,0.2-15.7-6.6c-1.7-6.7,3.2-11.6,10.5-13.5c7.2-1.9,13.5,1.3,14.9,6.8
		C3701.8,921.4,3698,927.2,3690.7,929.1z"/>
	<path class="st0" d="M3718.2,957.7c-9.3-2.2-17.8,0.1-19.8,8.9c-2,8.6,4.5,14.6,13.8,16.8s17.1-2.1,18.8-9.2
		S3727.4,959.9,3718.2,957.7L3718.2,957.7z"/>
	<path class="st0" d="M3688.4,975.2c-6.8-3.2-13.7-2.8-16.7,3.7s1.1,12,7.9,15.2c6.8,3.2,13.5,1.2,15.9-4S3695.2,978.4,3688.4,975.2
		L3688.4,975.2z"/>
</g>
<g>
	<path class="st0" d="M3740.7,877.5c1.4-12.1,6.1-10.2,7.1-18.5c1-8.2-4-7.6-2.6-19.6c1.4-12.1,16.8-11.5,22.9-3.1
		c4.9,6.8,7.6,12.1,16.1,13.1c2.4,0.3,4.4,1.7,6,3.5c5.8,6.6,4.6,17-2.6,22.1c-2,1.4-4.2,2.3-6.7,2c-8.5-1-12.3,3.5-18.6,9
		C3754.4,892.6,3739.3,889.5,3740.7,877.5L3740.7,877.5z"/>
	<path class="st0" d="M3816.3,863.6c-9.5,0.2-17.4-3.8-17.6-12.8c-0.2-8.8,7.4-13.4,17-13.6c9.5-0.2,16.3,5.6,16.5,12.9
		C3832.3,857.4,3825.8,863.4,3816.3,863.6L3816.3,863.6z"/>
	<path class="st0" d="M3790.1,840.2c-7.3,1.7-13.9-0.1-15.6-7c-1.6-6.7,3.6-11.5,10.8-13.2c7.3-1.7,13.4,1.6,14.7,7.2
		C3801.4,832.8,3797.3,838.5,3790.1,840.2L3790.1,840.2z"/>
	<path class="st0" d="M3816.7,869.6c-9.2-2.4-17.8-0.3-20.1,8.4c-2.2,8.5,4.1,14.8,13.4,17.2c9.2,2.4,17.2-1.6,19-8.7
		S3826,872,3816.7,869.6z"/>
	<path class="st0" d="M3786.5,886.3c-6.7-3.3-13.6-3.1-16.8,3.2s0.8,12,7.5,15.3c6.7,3.3,13.4,1.5,16-3.6S3793.2,889.7,3786.5,886.3
		L3786.5,886.3z"/>
</g>
<g>
	<path class="st0" d="M3860.4,990.7c-1-12.1,4-11.2,3.3-19.5s-5.4-6.6-6.4-18.7c-1-12.1,14.2-14.6,21.8-7.6
		c6.2,5.7,9.8,10.3,18.3,9.6c2.4-0.2,4.6,0.8,6.6,2.2c7,5.3,7.9,15.8,1.8,22.1c-1.7,1.8-3.7,3.1-6.1,3.2
		c-8.5,0.7-11.4,5.8-16.5,12.5C3876.8,1002.8,3861.4,1002.8,3860.4,990.7L3860.4,990.7z"/>
	<path class="st0" d="M3931.7,962.2c-9.3,2.1-17.8-0.3-19.7-9.1c-1.9-8.6,4.7-14.6,14-16.7c9.3-2.1,17.1,2.2,18.7,9.4
		C3946.3,952.9,3941.1,960.1,3931.7,962.2z"/>
	<path class="st0" d="M3901.4,944.4c-6.8,3.1-13.7,2.6-16.6-3.8c-2.9-6.3,1.2-12,8-15.1c6.8-3.1,13.5-1.1,15.9,4.2
		C3911.1,934.9,3908.2,941.3,3901.4,944.4L3901.4,944.4z"/>
	<path class="st0" d="M3933.4,967.9c-9.5-0.6-17.5,3.2-18,12.2c-0.5,8.8,6.9,13.6,16.5,14.2c9.5,0.6,16.5-5,16.9-12.3
		S3942.9,968.5,3933.4,967.9L3933.4,967.9z"/>
	<path class="st0" d="M3907,990.3c-7.2-2-13.9-0.4-15.8,6.4c-1.8,6.7,3.1,11.6,10.4,13.6c7.2,2,13.5-1.1,15-6.7
		C3918.1,998.1,3914.3,992.3,3907,990.3L3907,990.3z"/>
</g>
<g>
	<path class="st0" d="M3949.4,881.3c1.5-12,6.2-10.2,7.3-18.4s-4-7.6-2.4-19.6c1.5-12.1,16.9-11.4,22.9-2.9
		c4.9,6.9,7.5,12.1,15.9,13.2c2.4,0.3,4.4,1.7,6,3.5c5.8,6.6,4.4,17.1-2.8,22c-2,1.4-4.3,2.2-6.7,1.9c-8.5-1.1-12.3,3.3-18.7,8.8
		C3963,896.6,3947.9,893.4,3949.4,881.3L3949.4,881.3z"/>
	<path class="st0" d="M4025.2,868.2c-9.5,0.1-17.3-4-17.4-13c-0.1-8.8,7.6-13.3,17.1-13.4c9.5-0.1,16.3,5.7,16.4,13
		C4041.3,862.1,4034.7,868.1,4025.2,868.2z"/>
	<path class="st0" d="M3999.2,844.6c-7.3,1.6-14-0.2-15.5-7.2c-1.5-6.7,3.7-11.4,11-13.1c7.3-1.6,13.4,1.8,14.7,7.4
		C4010.6,837.3,4006.5,842.9,3999.2,844.6L3999.2,844.6z"/>
	<path class="st0" d="M4025.6,874.2c-9.2-2.5-17.8-0.5-20.1,8.2c-2.3,8.5,4,14.8,13.2,17.3s17.2-1.4,19.1-8.5
		S4034.8,876.7,4025.6,874.2L4025.6,874.2z"/>
	<path class="st0" d="M3995.2,890.6c-6.7-3.4-13.6-3.3-16.8,3.1c-3.1,6.2,0.7,12,7.3,15.4c6.7,3.4,13.4,1.7,16-3.4
		S4001.8,894,3995.2,890.6z"/>
</g>
<g>
	<path class="st0" d="M4075.8,992.1c-3.4-11.7,1.7-11.8-0.7-19.8c-2.3-8-6.7-5.4-10.1-17c-3.4-11.7,11-17.2,19.9-11.8
		c7.2,4.4,11.7,8.1,19.9,5.8c2.3-0.7,4.7-0.2,6.9,0.8c7.9,3.8,10.9,13.9,6.2,21.3c-1.3,2.1-3,3.7-5.4,4.4c-8.2,2.4-10,8-13.7,15.5
		C4094.3,1000.7,4079.2,1003.7,4075.8,992.1L4075.8,992.1z"/>
	<path class="st0" d="M4140,949.9c-8.7,3.9-17.5,3.3-21.2-5c-3.6-8,1.6-15.2,10.3-19.1c8.7-3.9,17.2-1.2,20.2,5.4
		S4148.7,945.9,4140,949.9L4140,949.9z"/>
	<path class="st0" d="M4106.7,938.5c-6,4.4-12.9,5.3-17.1-0.4c-4.1-5.6-1.2-12,4.8-16.4c6-4.4,13-3.7,16.4,0.9
		C4114.2,927.3,4112.7,934.1,4106.7,938.5z"/>
	<path class="st0" d="M4142.7,955.1c-9.4,1.4-16.5,6.6-15.2,15.6c1.3,8.7,9.5,12,19,10.6c9.4-1.4,15.2-8.2,14.1-15.4
		S4152.1,953.8,4142.7,955.1L4142.7,955.1z"/>
	<path class="st0" d="M4121.4,982.4c-7.5-0.5-13.7,2.4-14.2,9.5c-0.4,6.9,5.4,10.7,12.9,11.2s13-3.8,13.4-9.6
		C4133.8,987.8,4128.9,982.8,4121.4,982.4L4121.4,982.4z"/>
</g>
</svg>
